<svg xmlns="http://www.w3.org/2000/svg" xmlns:ev="http://www.w3.org/2001/xml-events" xmlns:xlink="http://www.w3.org/1999/xlink" width="336.32" height="289.16" class="st10" color-interpolation-filters="sRGB" viewBox="0 0 252.24 216.87" xml:space="preserve"><style type="text/css">.st1,.st2{fill:none;stroke:#000;stroke-linecap:round;stroke-linejoin:round;stroke-width:1.5}.st2{stroke-width:.24}.st3,.st4{stroke:#ea700d}.st3{marker-end:url(#mrkr5-45);marker-start:url(#mrkr10-43);stroke-linecap:round;stroke-linejoin:round;stroke-width:1.25}.st4{fill:#ea700d;fill-opacity:1;stroke-opacity:1;stroke-width:.3315649867374}.st5{marker-end:url(#mrkr5-54);marker-start:url(#mrkr10-52);stroke-linecap:round;stroke-linejoin:round;stroke-width:1.25}.st5,.st6,.st7{stroke:#f59d56}.st6{fill:#f59d56;fill-opacity:1;stroke-opacity:1;stroke-width:.3315649867374}.st7{marker-end:url(#mrkr5-54);stroke-linecap:round;stroke-linejoin:round;stroke-width:1.25}.st8,.st9{stroke:#0070c0}.st8{marker-end:url(#mrkr5-70);marker-start:url(#mrkr10-68);stroke-linecap:round;stroke-linejoin:round;stroke-width:1.25}.st9{fill:#0070c0;fill-opacity:1;stroke-opacity:1;stroke-width:.3315649867374}.st10{fill:none;fill-rule:evenodd;font-size:12px;overflow:visible;stroke-linecap:square;stroke-miterlimit:3}</style><defs id="Markers"><g id="lend10"><path d="M 0 0.75 C -0.414214 0.75 -0.75 0.414214 -0.75 0 -0.75 -0.414214 -0.414214 -0.75 0 -0.75 0.414214 -0.75 0.75 -0.414214 0.75 0 0.75 0.414214 0.414214 0.75 0 0.75 Z" style="stroke:none"/></g><marker id="mrkr10-43" class="st4" markerUnits="strokeWidth" orient="auto" overflow="visible" refX="1.974"><use transform="scale(3.016)" xlink:href="#lend10"/></marker><g id="lend5"><path d="M 2 1 L 0 0 L 1.98117 -0.993387 C 1.67173 -0.364515 1.67301 0.372641 1.98465 1.00043" style="stroke:none"/></g><marker id="mrkr5-45" class="st4" markerUnits="strokeWidth" orient="auto" overflow="visible" refX="-5.278"><use transform="scale(-3.016,-3.016)" xlink:href="#lend5"/></marker><marker id="mrkr10-52" class="st6" markerUnits="strokeWidth" orient="auto" overflow="visible" refX="1.974"><use transform="scale(3.016)" xlink:href="#lend10"/></marker><marker id="mrkr5-54" class="st6" markerUnits="strokeWidth" orient="auto" overflow="visible" refX="-5.278"><use transform="scale(-3.016,-3.016)" xlink:href="#lend5"/></marker><marker id="mrkr10-68" class="st9" markerUnits="strokeWidth" orient="auto" overflow="visible" refX="1.974"><use transform="scale(3.016)" xlink:href="#lend10"/></marker><marker id="mrkr5-70" class="st9" markerUnits="strokeWidth" orient="auto" overflow="visible" refX="-5.278"><use transform="scale(-3.016,-3.016)" xlink:href="#lend5"/></marker></defs><g><title>Page-1</title><g id="shape33-1" transform="translate(72.12,-0.75)"><title>Square.33</title><rect width="144" height="144" x="0" y="72.87" class="st1"/></g><g id="shape38-3" transform="translate(72.12,-144.75)"><title>Square.38</title><rect width="36" height="36" x="0" y="180.87" class="st2"/></g><g id="shape39-5" transform="translate(108.12,-144.75)"><title>Square.39</title><rect width="36" height="36" x="0" y="180.87" class="st2"/></g><g id="shape40-7" transform="translate(144.12,-144.75)"><title>Square.40</title><rect width="36" height="36" x="0" y="180.87" class="st2"/></g><g id="shape41-9" transform="translate(180.12,-144.75)"><title>Square.41</title><rect width="36" height="36" x="0" y="180.87" class="st2"/></g><g id="shape42-11" transform="translate(36.12,-108.75)"><title>Square.42</title><rect width="36" height="36" x="0" y="180.87" class="st2"/></g><g id="shape43-13" transform="translate(36.12,-72.75)"><title>Square.43</title><rect width="36" height="36" x="0" y="180.87" class="st2"/></g><g id="shape44-15" transform="translate(36.12,-36.75)"><title>Square.44</title><rect width="36" height="36" x="0" y="180.87" class="st2"/></g><g id="shape45-17" transform="translate(36.12,-0.75)"><title>Square.45</title><rect width="36" height="36" x="0" y="180.87" class="st2"/></g><g id="shape46-19" transform="translate(0.12,-108.75)"><title>Square.46</title><rect width="36" height="36" x="0" y="180.87" class="st2"/></g><g id="shape47-21" transform="translate(0.12,-72.75)"><title>Square.47</title><rect width="36" height="36" x="0" y="180.87" class="st2"/></g><g id="shape48-23" transform="translate(0.120005,-36.75)"><title>Square.48</title><rect width="36" height="36" x="0" y="180.87" class="st2"/></g><g id="shape49-25" transform="translate(0.120005,-0.75)"><title>Square.49</title><rect width="36" height="36" x="0" y="180.87" class="st2"/></g><g id="shape50-27" transform="translate(72.12,-180.75)"><title>Square.50</title><rect width="36" height="36" x="0" y="180.87" class="st2"/></g><g id="shape51-29" transform="translate(108.12,-180.75)"><title>Square.51</title><rect width="36" height="36" x="0" y="180.87" class="st2"/></g><g id="shape52-31" transform="translate(144.12,-180.75)"><title>Square.52</title><rect width="36" height="36" x="0" y="180.87" class="st2"/></g><g id="shape53-33" transform="translate(180.12,-180.75)"><title>Square.53</title><rect width="36" height="36" x="0" y="180.87" class="st2"/></g><g id="shape54-35" transform="translate(36.12,-144.75)"><title>Square.54</title><rect width="36" height="36" x="0" y="180.87" class="st2"/></g><g id="shape55-37" transform="translate(90.12,-162.75)"><title>Sheet.55</title><path d="M2.47 216.87 L2.83 216.87 L101.4 216.87" class="st3"/></g><g id="shape56-46" transform="translate(270.99,90.12) rotate(90)"><title>Sheet.56</title><path d="M2.47 216.87 L2.83 216.87 L101.4 216.87" class="st5"/></g><g id="shape58-55" transform="translate(-81.3576,28.773) rotate(-38.6598)"><title>Sheet.58</title><path d="M0 216.87 L223.91 216.87" class="st7"/></g><g id="shape59-60" transform="translate(216.12,-144.75)"><title>Square.59</title><rect width="36" height="36" x="0" y="180.87" class="st2"/></g><g id="shape60-62" transform="translate(54.12,-162.75)"><title>Sheet.60</title><path d="M1.74 215.13 L2 214.87 L36 180.87 L137.4 180.87" class="st8"/></g><g id="shape61-71" transform="translate(234.99,90.12) rotate(90)"><title>Sheet.61</title><path d="M2.47 216.87 L2.83 216.87 L101.4 216.87" class="st8"/></g></g></svg>