<svg xmlns="http://www.w3.org/2000/svg" xmlns:ev="http://www.w3.org/2001/xml-events" xmlns:xlink="http://www.w3.org/1999/xlink" width="192.32" height="145.16" class="st4" color-interpolation-filters="sRGB" viewBox="0 0 144.24 108.87" xml:space="preserve"><style type="text/css">.st1{fill:none;stroke:#000;stroke-linecap:round;stroke-linejoin:round;stroke-width:.24}.st2{fill:#000;font-family:Calibri;font-size:.833336em}.st3{fill:none;stroke:#000;stroke-linecap:round;stroke-linejoin:round;stroke-width:1.5}.st4{fill:none;fill-rule:evenodd;font-size:12px;overflow:visible;stroke-linecap:square;stroke-miterlimit:3}</style><g><title>Page-1</title><g id="shape31-1" transform="translate(0.12,-0.12)"><title>Square.31</title><desc>B4</desc><rect width="36" height="36" x="0" y="72.87" class="st1"/><text x="12.75" y="93.87" class="st2">B4</text></g><g id="shape30-4" transform="translate(108.12,-36.12)"><title>Square.30</title><desc>B6</desc><rect width="36" height="36" x="0" y="72.87" class="st1"/><text x="12.75" y="93.87" class="st2">B6</text></g><g id="shape32-7" transform="translate(108.12,-0.12)"><title>Square.32</title><desc>B5</desc><rect width="36" height="36" x="0" y="72.87" class="st1"/><text x="12.75" y="93.87" class="st2">B5</text></g><g id="shape25-10" transform="translate(36.12,-36.12)"><title>Square</title><rect width="72" height="72" x="0" y="36.87" class="st3"/></g><g id="shape26-12" transform="translate(36.12,-72.12)"><title>Square.26</title><desc>B0</desc><rect width="36" height="36" x="0" y="72.87" class="st1"/><text x="12.75" y="93.87" class="st2">B0</text></g><g id="shape27-15" transform="translate(72.12,-72.12)"><title>Square.27</title><desc>B1</desc><rect width="36" height="36" x="0" y="72.87" class="st1"/><text x="12.75" y="93.87" class="st2">B1</text></g><g id="shape28-18" transform="translate(36.12,-36.12)"><title>Square.28</title><desc>B2</desc><rect width="36" height="36" x="0" y="72.87" class="st1"/><text x="12.75" y="93.87" class="st2">B2</text></g><g id="shape29-21" transform="translate(72.12,-36.12)"><title>Square.29</title><desc>B3</desc><rect width="36" height="36" x="0" y="72.87" class="st1"/><text x="12.75" y="93.87" class="st2">B3</text></g></g></svg>