<svg xmlns="http://www.w3.org/2000/svg" xmlns:ev="http://www.w3.org/2001/xml-events" xmlns:xlink="http://www.w3.org/1999/xlink" width="434" height="194" class="st6" color-interpolation-filters="sRGB" viewBox="0 0 325.5 145.5" xml:space="preserve"><style type="text/css">.st1,.st2{stroke-width:1.5}.st1,.st2,.st3{stroke:#000;stroke-linecap:round;stroke-linejoin:round}.st1{fill:none}.st2{stroke-dasharray:1.5,3}.st3{stroke-dasharray:.75,1.5;stroke-width:.75}.st4,.st5{stroke:#0070c0}.st4{marker-end:url(#mrkr5-22);stroke-linecap:round;stroke-linejoin:round;stroke-width:.75}.st5{fill:#0070c0;fill-opacity:1;stroke-opacity:1;stroke-width:.22935779816514}.st6{fill:none;fill-rule:evenodd;font-size:12px;overflow:visible;stroke-linecap:square;stroke-miterlimit:3}</style><defs id="Markers"><g id="lend5"><path d="M 2 1 L 0 0 L 1.98117 -0.993387 C 1.67173 -0.364515 1.67301 0.372641 1.98465 1.00043" style="stroke:none"/></g><marker id="mrkr5-22" class="st5" markerUnits="strokeWidth" orient="auto" overflow="visible" refX="-7.63"><use transform="scale(-4.36,-4.36)" xlink:href="#lend5"/></marker></defs><g><title>Page-1</title><g id="shape24-1" transform="translate(0.75,-0.75)"><title>Square.24</title><rect width="144" height="144" x="0" y="1.5" class="st1"/></g><g id="shape25-3" transform="translate(180.75,-0.75)"><title>Square.25</title><rect width="144" height="144" x="0" y="1.5" class="st1"/></g><g id="shape26-5" transform="translate(180.75,-72.75)"><title>Sheet.26</title><path d="M0 145.5 L144 145.5" class="st2"/></g><g id="shape27-8" transform="translate(398.25,0.75) rotate(90)"><title>Sheet.27</title><path d="M0 145.5 L144 145.5" class="st2"/></g><g id="shape28-11" transform="translate(252.75,-108.75)"><title>Sheet.28</title><path d="M0 145.5 L72 145.5" class="st3"/></g><g id="shape29-14" transform="translate(434.25,0.750007) rotate(90)"><title>Sheet.29</title><path d="M0 145.5 L72 145.5" class="st3"/></g><g id="shape30-17" transform="translate(170.739,-101.283) rotate(-18.4349)"><title>Sheet.30</title><path d="M0 145.5 L51.2 145.5" class="st4"/></g><g id="shape31-23" transform="translate(270.75,-126.75)"><title>Sheet.31</title><path d="M0 145.5 L30.28 145.5" class="st4"/></g><g id="shape32-28" transform="translate(409.634,121.634) rotate(135)"><title>Sheet.32</title><path d="M0 145.5 L45.06 145.5" class="st4"/></g><g id="shape33-33" transform="translate(270.844,-90.8438)"><title>Sheet.33</title><path d="M0 145.5 L30.18 145.5" class="st4"/></g><g id="shape34-38" transform="translate(381.705,179.364) rotate(148.992)"><title>Sheet.34</title><path d="M0 145.5 L99.28 145.5" class="st4"/></g><g id="shape35-43" transform="translate(216.75,-36.75)"><title>Sheet.35</title><path d="M0 145.5 L66.28 145.5" class="st4"/></g></g></svg>