<svg xmlns="http://www.w3.org/2000/svg" xmlns:ev="http://www.w3.org/2001/xml-events" xmlns:xlink="http://www.w3.org/1999/xlink" width="674" height="194" class="st6" color-interpolation-filters="sRGB" viewBox="0 0 505.5 145.5" xml:space="preserve"><style type="text/css">.st1,.st2{stroke-width:1.5}.st1,.st2,.st3{stroke:#000;stroke-linecap:round;stroke-linejoin:round}.st1{fill:none}.st2{stroke-dasharray:1.5,3}.st3{stroke-dasharray:.75,1.5;stroke-width:.75}.st4,.st5{stroke:#0070c0}.st4{marker-end:url(#mrkr5-36);stroke-linecap:round;stroke-linejoin:round;stroke-width:.75}.st5{fill:#0070c0;fill-opacity:1;stroke-opacity:1;stroke-width:.22935779816514}.st6{fill:none;fill-rule:evenodd;font-size:12px;overflow:visible;stroke-linecap:square;stroke-miterlimit:3}</style><defs id="Markers"><g id="lend5"><path d="M 2 1 L 0 0 L 1.98117 -0.993387 C 1.67173 -0.364515 1.67301 0.372641 1.98465 1.00043" style="stroke:none"/></g><marker id="mrkr5-36" class="st5" markerUnits="strokeWidth" orient="auto" overflow="visible" refX="-7.63"><use transform="scale(-4.36,-4.36)" xlink:href="#lend5"/></marker></defs><g><title>Page-1</title><g id="shape1-1" transform="translate(0.75,-0.75)"><title>Square</title><rect width="144" height="144" x="0" y="1.5" class="st1"/></g><g id="shape4-3" transform="translate(180.75,-0.75)"><title>Square.4</title><rect width="144" height="144" x="0" y="1.5" class="st1"/></g><g id="shape5-5" transform="translate(398.25,0.75) rotate(90)"><title>Sheet.5</title><path d="M0 145.5 L144 145.5" class="st2"/></g><g id="shape6-8" transform="translate(180.75,-72.75)"><title>Sheet.6</title><path d="M0 145.5 L144 145.5" class="st2"/></g><g id="shape7-11" transform="translate(360.75,-0.75)"><title>Square.7</title><rect width="144" height="144" x="0" y="1.5" class="st1"/></g><g id="shape8-13" transform="translate(578.25,0.75) rotate(90)"><title>Sheet.8</title><path d="M0 145.5 L144 145.5" class="st2"/></g><g id="shape9-16" transform="translate(432,-108.5)"><title>Sheet.9</title><path d="M0 145.5 L72.75 145.5" class="st3"/></g><g id="shape10-19" transform="translate(360.75,-72.75)"><title>Sheet.10</title><path d="M0 145.5 L144 145.5" class="st2"/></g><g id="shape11-22" transform="translate(360.75,-36.75)"><title>Sheet.11</title><path d="M0 145.5 L72 145.5" class="st3"/></g><g id="shape12-25" transform="translate(542.25,0.750007) rotate(90)"><title>Sheet.12</title><path d="M0 145.5 L72 145.5" class="st3"/></g><g id="shape13-28" transform="translate(614.25,0.75) rotate(90)"><title>Sheet.13</title><path d="M0 145.5 L72 145.5" class="st3"/></g><g id="shape14-31" transform="translate(216.75,-108.75)"><title>Sheet.14</title><path d="M0 145.5 L66.28 145.5" class="st4"/></g><g id="shape15-37" transform="translate(391.634,139.634) rotate(135)"><title>Sheet.15</title><path d="M0 145.5 L96.1 145.5" class="st4"/></g><g id="shape16-42" transform="translate(216.75,-36.75)"><title>Sheet.16</title><path d="M0 145.5 L66.28 145.5" class="st4"/></g><g id="shape17-47" transform="translate(378.75,-126.75)"><title>Sheet.17</title><path d="M0 145.5 L102.28 145.5" class="st4"/></g><g id="shape18-52" transform="translate(378.75,-90.75)"><title>Sheet.18</title><path d="M0 145.5 L102.28 145.5" class="st4"/></g><g id="shape19-57" transform="translate(378.75,-54.75)"><title>Sheet.19</title><path d="M0 145.5 L102.28 145.5" class="st4"/></g><g id="shape20-62" transform="translate(378.75,-18.75)"><title>Sheet.20</title><path d="M0 145.5 L102.28 145.5" class="st4"/></g><g id="shape21-67" transform="translate(532.761,156.783) rotate(161.565)"><title>Sheet.21</title><path d="M0 145.5 L108.12 145.5" class="st4"/></g><g id="shape22-72" transform="translate(532.761,192.783) rotate(161.565)"><title>Sheet.22</title><path d="M0 145.5 L108.12 145.5" class="st4"/></g><g id="shape23-77" transform="translate(532.761,228.783) rotate(161.565)"><title>Sheet.23</title><path d="M0 145.5 L108.12 145.5" class="st4"/></g><g id="shape36-82" transform="translate(360.75,-108.5)"><title>Sheet.36</title><path d="M0 145.5 L72 145.5" class="st3"/></g><g id="shape37-85" transform="translate(432.75,-36.75)"><title>Sheet.37</title><path d="M0 145.5 L72 145.5" class="st3"/></g><g id="shape38-88" transform="translate(542.25,72.75) rotate(90)"><title>Sheet.38</title><path d="M0 145.5 L72 145.5" class="st3"/></g><g id="shape39-91" transform="translate(614.25,72.75) rotate(90)"><title>Sheet.39</title><path d="M0 145.5 L72 145.5" class="st3"/></g></g></svg>