<svg xmlns="http://www.w3.org/2000/svg" xmlns:ev="http://www.w3.org/2001/xml-events" xmlns:xlink="http://www.w3.org/1999/xlink" width="242" height="242" class="st7" color-interpolation-filters="sRGB" viewBox="0 0 181.5 181.5" xml:space="preserve"><style type="text/css">.st1{fill:none;stroke:#000;stroke-dasharray:2.25,2.25;stroke-linecap:round;stroke-linejoin:round;stroke-width:.75}.st2{fill:#000;font-family:Calibri;font-size:1.00001em}.st3{fill:none;stroke:#000;stroke-linecap:round;stroke-linejoin:round;stroke-width:.24}.st4{fill:#000;font-family:Calibri;font-size:.833336em}.st5{font-size:1em}.st6{fill:none;stroke:#000;stroke-linecap:round;stroke-linejoin:round;stroke-width:2.25}.st7{fill:none;fill-rule:evenodd;font-size:12px;overflow:visible;stroke-linecap:square;stroke-miterlimit:3}</style><g><title>Page-1</title><g id="shape211-1" transform="translate(0.375,-73.125)"><title>Square.211</title><desc>L</desc><path d="M0 181.5 L36 181.5 L36 145.5 L0 145.5 L0 181.5 Z" class="st1"/><text x="15.48" y="167.1" class="st2">L</text></g><g id="shape212-4" transform="translate(108.375,-145.125)"><title>Square.212</title><desc>T</desc><path d="M0 181.5 L36 181.5 L36 145.5 L0 145.5 L0 181.5 Z" class="st1"/><text x="15.08" y="167.1" class="st2">T</text></g><g id="shape213-7" transform="translate(0.375007,-145.125)"><title>Square.213</title><desc>TL</desc><path d="M0 181.5 L36 181.5 L36 145.5 L0 145.5 L0 181.5 Z" class="st1"/><text x="12.55" y="167.1" class="st2">TL</text></g><g id="group214-10" transform="translate(36.375,-1.12501)"><title>Sheet.214</title><g id="shape183-11" transform="translate(6.86646E-06,-108)"><title>Square.183</title><rect width="36" height="36" x="0" y="145.5" class="st3"/></g><g id="shape184-13" transform="translate(36,-108)"><title>Square.184</title><rect width="36" height="36" x="0" y="145.5" class="st3"/></g><g id="shape185-15" transform="translate(72,-108)"><title>Square.185</title><rect width="36" height="36" x="0" y="145.5" class="st3"/></g><g id="shape186-17" transform="translate(108,-108)"><title>Square.186</title><rect width="36" height="36" x="0" y="145.5" class="st3"/></g><g id="shape199-19" transform="translate(1.37329E-05,-72)"><title>Square.199</title><rect width="36" height="36" x="0" y="145.5" class="st3"/></g><g id="shape200-21" transform="translate(36,-72)"><title>Square.200</title><rect width="36" height="36" x="0" y="145.5" class="st3"/></g><g id="shape201-23" transform="translate(72,-72)"><title>Square.201</title><desc>Current Pixel</desc><rect width="36" height="36" x="0" y="145.5" class="st3"/><text x="2.43" y="160.5" class="st4">Current <tspan x="8.47" class="st5" dy="1.2em">Pixel</tspan></text></g><g id="shape202-27" transform="translate(108,-72)"><title>Square.202</title><rect width="36" height="36" x="0" y="145.5" class="st3"/></g><g id="shape203-29" transform="translate(0,-36)"><title>Square.203</title><rect width="36" height="36" x="0" y="145.5" class="st3"/></g><g id="shape204-31" transform="translate(36,-36)"><title>Square.204</title><rect width="36" height="36" x="0" y="145.5" class="st3"/></g><g id="shape205-33" transform="translate(72,-36)"><title>Square.205</title><rect width="36" height="36" x="0" y="145.5" class="st3"/></g><g id="shape206-35" transform="translate(108,-36)"><title>Square.206</title><rect width="36" height="36" x="0" y="145.5" class="st3"/></g><g id="shape207-37" transform="translate(6.86646E-06,0)"><title>Square.207</title><rect width="36" height="36" x="0" y="145.5" class="st3"/></g><g id="shape208-39" transform="translate(36,0)"><title>Square.208</title><rect width="36" height="36" x="0" y="145.5" class="st3"/></g><g id="shape209-41" transform="translate(72,0)"><title>Square.209</title><rect width="36" height="36" x="0" y="145.5" class="st3"/></g><g id="shape210-43" transform="translate(108,0)"><title>Square.210</title><rect width="36" height="36" x="0" y="145.5" class="st3"/></g></g><g id="shape215-45" transform="translate(36.375,-1.125)"><title>Square.215</title><rect width="144" height="144" x="0" y="37.5" class="st6"/></g></g></svg>