<svg xmlns="http://www.w3.org/2000/svg" xmlns:ev="http://www.w3.org/2001/xml-events" xmlns:xlink="http://www.w3.org/1999/xlink" width="626.178" height="183.085" class="st13" color-interpolation-filters="sRGB" viewBox="0 0 469.634 137.314" xml:space="preserve"><style type="text/css">.st1,.st2{stroke:#000;stroke-width:.75}.st1{fill:#f0f;fill-opacity:0;stroke-opacity:0}.st2{fill:#fff}.st3{fill:#000;font-family:Calibri;font-size:.75em}.st4{marker-end:url(#mrkr4-22);stroke-linecap:round;stroke-linejoin:round;stroke-width:1}.st4,.st5,.st6{stroke:#000}.st5{fill:#000;fill-opacity:1;stroke-opacity:1;stroke-width:.28409090909091}.st6{fill:none;stroke-width:.75}.st7,.st8{fill:#000;font-family:Calibri;font-size:1.99999em}.st8{font-size:1.5em}.st9{fill:none;stroke:none;stroke-width:.25}.st10{font-size:1em}.st11{fill:#000;font-family:SimSun;font-size:.75em}.st12{font-family:Calibri;font-size:1em}.st13{fill:none;fill-rule:evenodd;font-size:12px;overflow:visible;stroke-linecap:square;stroke-miterlimit:3}</style><defs id="Markers"><g id="lend4"><path d="M 2 1 L 0 0 L 2 -1 L 2 1" style="stroke:none"/></g><marker id="mrkr4-22" class="st5" markerUnits="strokeWidth" orient="auto" overflow="visible" refX="-7.04"><use transform="scale(-3.52,-3.52)" xlink:href="#lend4"/></marker></defs><g><title>Page-1</title><g id="group5-1" transform="translate(111.581,-86.9232)"><title>Tagged process</title><g id="shape6-2" transform="translate(0.566929,0)"><title>Sheet.6</title><path d="M53.15 137.31 L70.87 137.31 L70.87 128.46 L70.87 116.05 L0 116.05 L0 137.31 L53.15 137.31 Z" class="st1"/></g><g id="shape7-4" transform="translate(54.9213,0)"><title>Sheet.7</title></g><g id="shape8-6"><title>Sheet.8</title><desc>Sub-Sample</desc><path d="M0 137.31 L70.87 137.31 L70.87 121.37 L70.87 116.05 L0 116.05 L0 137.31 Z" class="st2"/><text x="13.81" y="129.38" class="st3">Sub-Sample</text></g></g><g id="group9-9" transform="translate(224.967,-86.9232)"><title>Tagged process.9</title><g id="shape10-10" transform="translate(0.566929,0)"><title>Sheet.10</title><path d="M53.15 137.31 L70.87 137.31 L70.87 128.46 L70.87 116.05 L0 116.05 L0 137.31 L53.15 137.31 Z" class="st1"/></g><g id="shape11-12" transform="translate(54.9213,0)"><title>Sheet.11</title></g><g id="shape12-14"><title>Sheet.12</title><desc>Average</desc><path d="M0 137.31 L70.87 137.31 L70.87 121.37 L70.87 116.05 L0 116.05 L0 137.31 Z" class="st2"/><text x="20.48" y="129.38" class="st3">Average</text></g></g><g id="shape27-17" transform="translate(182.447,-97.5531)"><title>Sheet.27</title><path d="M0 137.31 L35.48 137.31" class="st4"/></g><g id="shape28-23" transform="translate(295.833,-97.5531)"><title>Sheet.28</title><path d="M0 137.31 L35.48 137.31" class="st4"/></g><g id="shape29-28" transform="translate(341.47,-86.9232)"><title>Sheet.29</title><desc>-</desc><ellipse cx="11.197" cy="126.117" class="st6" rx="11.197" ry="11.197"/><text x="7.52" y="133.32" class="st7">-</text></g><g id="shape34-31" transform="translate(147.014,-101.663)"><title>Dynamic connector</title><path d="M0 130.79 L0 109.53 L205.65 109.53 L205.65 122.62" class="st4"/></g><g id="shape35-36" transform="translate(34.2657,-97.5531)"><title>Sheet.35</title><path d="M0 137.31 L70.27 137.31" class="st4"/></g><g id="shape36-41" transform="translate(341.329,-43.2697)"><title>Sheet.36</title><desc>×</desc><ellipse cx="11.197" cy="126.117" class="st6" rx="11.197" ry="11.197"/><text x="6.71" y="131.52" class="st8">×</text></g><g id="shape37-44" transform="translate(34.2657,-53.5676)"><title>Sheet.37</title><path d="M0 137.31 L300.06 137.31" class="st4"/></g><g id="shape38-49" transform="translate(489.499,50.3067) rotate(89.9693)"><title>Sheet.38</title><path d="M0 137.31 L14.24 137.31" class="st4"/></g><g id="shape39-54" transform="translate(341.329,-0.75)"><title>Sheet.39</title><desc>+</desc><ellipse cx="11.197" cy="126.117" class="st6" rx="11.197" ry="11.197"/><text x="6.71" y="131.52" class="st8">+</text></g><g id="shape40-57" transform="translate(34.2657,-11.9539)"><title>Sheet.40</title><path d="M0 137.31 L300.02 137.31" class="st4"/></g><g id="shape41-62" transform="translate(345.51,-86.9234)"><title>Dynamic connector.41</title><path d="M7.09 137.31 L7.09 151.53" class="st4"/></g><g id="shape74-67" transform="translate(345.439,-43.2697)"><title>Dynamic connector.74</title><path d="M7.09 137.31 L7.09 150.4" class="st4"/></g><g id="shape75-72" transform="translate(363.722,-11.9551)"><title>Sheet.75</title><path d="M0 137.31 L35.48 137.31" class="st4"/></g><g id="shape78-77" transform="translate(3.08465,-17.2788)"><title>Sheet.78</title><desc>Chroma DC Prediction</desc><rect width="140.783" height="12" x="0" y="125.314" class="st9"/><text x="30.02" y="134.01" class="st3">Chroma DC Prediction</text></g><g id="shape82-80" transform="translate(0.25,-60.75)"><title>Sheet.82</title><desc>Scaling parameter α</desc><rect width="140.783" height="12" x="0" y="125.314" class="st9"/><text x="33.74" y="134.01" class="st3">Scaling parameter α</text></g><g id="shape83-83" transform="translate(30.0138,-102.514)"><title>Sheet.83</title><desc>Luma reconstructed samples</desc><rect width="87.874" height="12" x="0" y="125.314" class="st9"/><text x="7.25" y="128.61" class="st3">Luma reconstructed <tspan x="29.03" class="st10" dy="1.2em">samples</tspan></text></g><g id="shape84-87" transform="translate(398.518,-5.47437)"><title>Sheet.84</title><desc>CfL Prediction</desc><rect width="70.866" height="12" x="0" y="125.314" class="st9"/><text x="10.04" y="134.01" class="st3">CfL Prediction</text></g><g id="shape85-90" transform="translate(354.581,-72.75)"><title>Sheet.85</title><desc>“AC” contribution</desc><rect width="80.787" height="12" x="0" y="125.314" class="st9"/><text x="2.62" y="134.31" class="st11">“<tspan class="st12">AC</tspan>”<tspan class="st12"> </tspan><tspan class="st12">contribution</tspan></text></g></g></svg>