<svg xmlns="http://www.w3.org/2000/svg" xmlns:ev="http://www.w3.org/2001/xml-events" xmlns:xlink="http://www.w3.org/1999/xlink" width="407.97" height="403.5" class="st13" color-interpolation-filters="sRGB" viewBox="0 0 305.978 302.625" xml:space="preserve"><style type="text/css">.st1{fill:none;stroke-linecap:round;stroke-linejoin:round;stroke-width:1.5}.st1,.st2,.st3{stroke:#000}.st2{marker-start:url(#mrkr5-8);stroke-linecap:round;stroke-linejoin:round;stroke-width:1.5}.st3{fill:#000;fill-opacity:1;stroke-opacity:1;stroke-width:.37313432835821}.st4{fill:#fff;stroke:none;stroke-linecap:butt;stroke-width:7.2}.st5{fill:#2f4f4f;font-family:Consolas;font-size:.791656em}.st6{font-size:1em}.st7{fill:#fff;stroke:none;stroke-linecap:butt}.st8,.st9{marker-end:url(#mrkr5-49);stroke:#000;stroke-linecap:round;stroke-linejoin:round;stroke-width:1.5}.st9{marker-end:url(#mrkr5-65);stroke-dasharray:2.25,2.25;stroke-width:.75}.st10{fill:#000;fill-opacity:1;stroke:#000;stroke-opacity:1;stroke-width:.22935779816514}.st11{fill:none;stroke:none;stroke-linecap:round;stroke-linejoin:round;stroke-width:.75}.st12{fill:#000;font-family:Calibri;font-size:.666664em}.st13{fill:none;fill-rule:evenodd;font-size:12px;overflow:visible;stroke-linecap:square;stroke-miterlimit:3}</style><defs id="Markers"><g id="lend5"><path d="M 2 1 L 0 0 L 1.98117 -0.993387 C 1.67173 -0.364515 1.67301 0.372641 1.98465 1.00043" style="stroke:none"/></g><marker id="mrkr5-8" class="st3" markerUnits="strokeWidth" orient="auto" overflow="visible" refX="4.45"><use transform="scale(2.68)" xlink:href="#lend5"/></marker><marker id="mrkr5-49" class="st3" markerUnits="strokeWidth" orient="auto" overflow="visible" refX="-4.69"><use transform="scale(-2.68,-2.68)" xlink:href="#lend5"/></marker><marker id="mrkr5-65" class="st10" markerUnits="strokeWidth" orient="auto" overflow="visible" refX="-7.63"><use transform="scale(-4.36,-4.36)" xlink:href="#lend5"/></marker></defs><g><title>Page-1</title><g id="shape1-1" transform="translate(8.98899,-0.75)"><title>Square</title><rect width="288" height="288" x="0" y="14.625" class="st1"/></g><g id="shape5-3" transform="translate(222.977,-200.113) rotate(45)"><title>Sheet.5</title><desc>D135_PRED</desc><path d="M6.68 302.62 L7.03 302.62 L203.65 302.62" class="st2"/><rect width="47.009" height="14.4" x="78.319" y="295.425" class="st4"/><text x="78.32" y="306.23" class="st5">D<tspan class="st6">13</tspan>5_PRED</text></g><g id="shape6-12" transform="translate(8.98899,-144.75)"><title>Sheet.6</title><desc>H_PRED</desc><path d="M6.67 302.62 L7.03 302.62 L144 302.62" class="st2"/><rect width="31.339" height="14.4" x="56.331" y="295.425" class="st4"/><text x="56.33" y="306.23" class="st5">H<tspan class="st6">_PRED</tspan></text></g><g id="shape8-20" transform="translate(367.241,-107.423) rotate(66.3706)"><title>Sheet.8</title><desc>D113_PRED</desc><path d="M6.67 302.62 L7.03 302.62 L157.18 302.62" class="st2"/><rect width="47.009" height="14.4" x="55.085" y="295.425" class="st7"/><text x="55.08" y="306.23" class="st5">D<tspan class="st6">113</tspan>_PRED</text></g><g id="shape9-28" transform="translate(130.287,-182.377) rotate(23.6294)"><title>Sheet.9</title><desc>D157_PRED</desc><path d="M6.67 302.62 L7.03 302.62 L157.18 302.62" class="st2"/><rect width="47.009" height="14.4" x="55.085" y="295.425" class="st4"/><text x="55.08" y="306.23" class="st5">D<tspan class="st6">157</tspan>_PRED</text></g><g id="shape10-36" transform="translate(-112.309,-56.3771) rotate(-23.6294)"><title>Sheet.10</title><desc>D203_PRED</desc><path d="M6.67 302.62 L7.03 302.62 L157.18 302.62" class="st2"/><rect width="47.009" height="14.4" x="55.085" y="295.425" class="st4"/><text x="55.08" y="306.23" class="st5">D<tspan class="st6">203</tspan>_PRED</text></g><g id="shape11-44" transform="translate(-60.9992,-56.1132) rotate(-45)"><title>Sheet.11</title><desc>D45_PRED</desc><path d="M0 302.62 L196.61 302.62" class="st8"/><rect width="41.785" height="14.4" x="80.931" y="295.425" class="st7"/><text x="80.93" y="306.23" class="st5">D45_PRED</text></g><g id="shape12-52" transform="translate(-149.636,157.875) rotate(-90)"><title>Sheet.12</title><desc>V_PRED</desc><path d="M0 302.62 L136.96 302.62" class="st8"/><rect width="31.339" height="14.4" x="56.331" y="295.425" class="st7"/><text x="56.33" y="306.23" class="st5">V<tspan class="st6">_PRED</tspan></text></g><g id="shape13-60" transform="translate(-117.687,22.537) rotate(-63.4349)"><title>Sheet.13</title><path d="M0 302.62 L155.27 302.62" class="st9"/></g><g id="shape14-66" transform="translate(-110.772,9.50969) rotate(-60.6422)"><title>Sheet.14</title><path d="M0 302.62 L159.5 302.62" class="st9"/></g><g id="shape15-71" transform="translate(-103.636,-2.51593) rotate(-57.9946)"><title>Sheet.15</title><path d="M0 302.62 L164.09 302.62" class="st9"/></g><g id="shape16-76" transform="translate(-130.368,51.6163) rotate(-69.444)"><title>Sheet.16</title><path d="M0 302.62 L148.07 302.62" class="st9"/></g><g id="shape17-81" transform="translate(-135.861,67.6095) rotate(-72.646)"><title>Sheet.17</title><path d="M0 302.62 L145.14 302.62" class="st9"/></g><g id="shape18-86" transform="translate(-140.6,84.4777) rotate(-75.9638)"><title>Sheet.18</title><path d="M0 302.62 L142.71 302.62" class="st9"/></g><g id="shape30-91" transform="translate(-124.263,36.5772) rotate(-66.3706)"><title>Sheet.30</title><desc>D67_PRED</desc><path d="M0 302.62 L150.14 302.62" class="st8"/><rect width="41.785" height="14.4" x="57.696" y="295.425" class="st4"/><text x="57.7" y="306.23" class="st5">D<tspan class="st6">67</tspan>_PRED</text></g><g id="shape31-99" transform="translate(214.864,-288.75)"><title>Sheet.31</title><desc>+1</desc><rect width="18" height="13.5" x="0" y="289.125" class="st11"/><text x="4.98" y="298.27" class="st12">+1</text></g><g id="shape32-102" transform="translate(224.989,-288.75)"><title>Sheet.32</title><desc>+2</desc><rect width="18" height="13.5" x="0" y="289.125" class="st11"/><text x="4.98" y="298.27" class="st12">+2</text></g><g id="shape33-105" transform="translate(238.489,-288.75)"><title>Sheet.33</title><desc>+3</desc><rect width="18" height="13.5" x="0" y="289.125" class="st11"/><text x="4.98" y="298.27" class="st12">+3</text></g><g id="shape34-108" transform="translate(197.989,-288.75)"><title>Sheet.34</title><desc>-1</desc><rect width="18" height="13.5" x="0" y="289.125" class="st11"/><text x="5.75" y="298.27" class="st12">-1</text></g><g id="shape35-111" transform="translate(188.989,-288.75)"><title>Sheet.35</title><desc>-2</desc><rect width="18" height="13.5" x="0" y="289.125" class="st11"/><text x="5.75" y="298.27" class="st12">-2</text></g><g id="shape36-114" transform="translate(177.739,-288.75)"><title>Sheet.36</title><desc>-3</desc><rect width="18" height="13.5" x="0" y="289.125" class="st11"/><text x="5.75" y="298.27" class="st12">-3</text></g></g></svg>