<svg xmlns="http://www.w3.org/2000/svg" xmlns:ev="http://www.w3.org/2001/xml-events" xmlns:xlink="http://www.w3.org/1999/xlink" width="433.934" height="428.825" class="st9" color-interpolation-filters="sRGB" viewBox="0 0 325.45 321.619" xml:space="preserve"><style type="text/css">.st1{fill:none;stroke:#000;stroke-width:.24}.st1,.st2,.st3{stroke-linecap:round;stroke-linejoin:round}.st2{fill:none;stroke:#000;stroke-width:1.5}.st3{marker-end:url(#mrkr10-184);marker-start:url(#mrkr10-182);stroke:#0070c0;stroke-dasharray:.75,1.5;stroke-width:.75}.st4,.st5{fill:#0070c0;fill-opacity:1;stroke:#0070c0;stroke-opacity:1;stroke-width:.34246575342466}.st5{stroke-width:.29411764705882}.st6{marker-end:url(#mrkr10-235);marker-start:url(#mrkr10-233);stroke:#bf9000;stroke-dasharray:.75,1.5;stroke-linecap:round;stroke-linejoin:round;stroke-width:.75}.st7,.st8{fill:#bf9000;fill-opacity:1;stroke:#bf9000;stroke-opacity:1;stroke-width:.34246575342466}.st8{stroke-width:.29411764705882}.st9{fill:none;fill-rule:evenodd;font-size:12px;overflow:visible;stroke-linecap:square;stroke-miterlimit:3}</style><defs id="Markers"><g id="lend10"><path d="M 0 0.75 C -0.414214 0.75 -0.75 0.414214 -0.75 0 -0.75 -0.414214 -0.414214 -0.75 0 -0.75 0.414214 -0.75 0.75 -0.414214 0.75 0 0.75 0.414214 0.414214 0.75 0 0.75 Z" style="stroke:none"/></g><marker id="mrkr10-182" class="st4" markerUnits="strokeWidth" orient="auto" overflow="visible" refX="1.71"><use transform="scale(2.92)" xlink:href="#lend10"/></marker><marker id="mrkr10-184" class="st5" markerUnits="strokeWidth" orient="auto" overflow="visible" refX="-2.55"><use transform="scale(-3.4,-3.4)" xlink:href="#lend10"/></marker><marker id="mrkr10-233" class="st7" markerUnits="strokeWidth" orient="auto" overflow="visible" refX="1.71"><use transform="scale(2.92)" xlink:href="#lend10"/></marker><marker id="mrkr10-235" class="st8" markerUnits="strokeWidth" orient="auto" overflow="visible" refX="-2.55"><use transform="scale(-3.4,-3.4)" xlink:href="#lend10"/></marker></defs><g><title>Page-1</title><g id="group149-1" transform="translate(0.12,-214.583)"><title>Sheet.149</title><g id="shape142-2" transform="translate(0,-71.2776)"><title>Square.142</title><rect width="36.065" height="35.639" x="0" y="285.98" class="st1"/></g><g id="shape143-4" transform="translate(36.0645,-71.2776)"><title>Square.143</title><rect width="36.065" height="35.639" x="0" y="285.98" class="st1"/></g><g id="shape144-6" transform="translate(72.129,-71.2776)"><title>Square.144</title><rect width="36.065" height="35.639" x="0" y="285.98" class="st1"/></g><g id="shape145-8" transform="translate(108.193,-71.2776)"><title>Square.145</title><rect width="36.065" height="35.639" x="0" y="285.98" class="st1"/></g><g id="shape146-10" transform="translate(144.258,-71.2776)"><title>Square.146</title><rect width="36.065" height="35.639" x="0" y="285.98" class="st1"/></g><g id="shape147-12" transform="translate(0,-35.6388)"><title>Square.147</title><rect width="36.065" height="35.639" x="0" y="285.98" class="st1"/></g><g id="shape148-14"><title>Square.148</title><rect width="36.065" height="35.639" x="0" y="285.98" class="st1"/></g></g><g id="group64-16" transform="translate(36.1845,-214.583)"><title>Sheet.64</title><g id="shape38-17"><title>Rectangle</title><rect width="144.258" height="71.278" x="0" y="250.341" class="st2"/></g><g id="group63-19"><title>Sheet.63</title><g id="shape46-20" transform="translate(0,-35.6388)"><title>Square.46</title><rect width="36.065" height="35.639" x="0" y="285.98" class="st1"/></g><g id="shape47-22" transform="translate(36.0645,-35.6388)"><title>Square.47</title><rect width="36.065" height="35.639" x="0" y="285.98" class="st1"/></g><g id="shape48-24" transform="translate(72.129,-35.6388)"><title>Square.48</title><rect width="36.065" height="35.639" x="0" y="285.98" class="st1"/></g><g id="shape49-26" transform="translate(108.193,-35.6388)"><title>Square.49</title><rect width="36.065" height="35.639" x="0" y="285.98" class="st1"/></g><g id="shape50-28"><title>Square.50</title><rect width="36.065" height="35.639" x="0" y="285.98" class="st1"/></g><g id="shape51-30" transform="translate(36.0645,0)"><title>Square.51</title><rect width="36.065" height="35.639" x="0" y="285.98" class="st1"/></g><g id="shape52-32" transform="translate(72.129,0)"><title>Square.52</title><rect width="36.065" height="35.639" x="0" y="285.98" class="st1"/></g><g id="shape53-34" transform="translate(108.193,0)"><title>Square.53</title><rect width="36.065" height="35.639" x="0" y="285.98" class="st1"/></g></g></g><g id="group65-36" transform="translate(180.442,-214.583)"><title>Sheet.65</title><g id="shape66-37"><title>Rectangle</title><rect width="144.258" height="71.278" x="0" y="250.341" class="st2"/></g><g id="group67-39"><title>Sheet.67</title><g id="shape68-40" transform="translate(0,-35.6388)"><title>Square.46</title><rect width="36.065" height="35.639" x="0" y="285.98" class="st1"/></g><g id="shape69-42" transform="translate(36.0645,-35.6388)"><title>Square.47</title><rect width="36.065" height="35.639" x="0" y="285.98" class="st1"/></g><g id="shape70-44" transform="translate(72.129,-35.6388)"><title>Square.48</title><rect width="36.065" height="35.639" x="0" y="285.98" class="st1"/></g><g id="shape71-46" transform="translate(108.193,-35.6388)"><title>Square.49</title><rect width="36.065" height="35.639" x="0" y="285.98" class="st1"/></g><g id="shape72-48"><title>Square.50</title><rect width="36.065" height="35.639" x="0" y="285.98" class="st1"/></g><g id="shape73-50" transform="translate(36.0645,0)"><title>Square.51</title><rect width="36.065" height="35.639" x="0" y="285.98" class="st1"/></g><g id="shape74-52" transform="translate(72.129,0)"><title>Square.52</title><rect width="36.065" height="35.639" x="0" y="285.98" class="st1"/></g><g id="shape75-54" transform="translate(108.193,0)"><title>Square.53</title><rect width="36.065" height="35.639" x="0" y="285.98" class="st1"/></g></g></g><g id="group76-56" transform="translate(36.1845,-143.305)"><title>Sheet.76</title><g id="shape77-57"><title>Rectangle</title><rect width="144.258" height="71.278" x="0" y="250.341" class="st2"/></g><g id="group78-59"><title>Sheet.78</title><g id="shape79-60" transform="translate(0,-35.6388)"><title>Square.46</title><rect width="36.065" height="35.639" x="0" y="285.98" class="st1"/></g><g id="shape80-62" transform="translate(36.0645,-35.6388)"><title>Square.47</title><rect width="36.065" height="35.639" x="0" y="285.98" class="st1"/></g><g id="shape81-64" transform="translate(72.129,-35.6388)"><title>Square.48</title><rect width="36.065" height="35.639" x="0" y="285.98" class="st1"/></g><g id="shape82-66" transform="translate(108.193,-35.6388)"><title>Square.49</title><rect width="36.065" height="35.639" x="0" y="285.98" class="st1"/></g><g id="shape83-68"><title>Square.50</title><rect width="36.065" height="35.639" x="0" y="285.98" class="st1"/></g><g id="shape84-70" transform="translate(36.0645,0)"><title>Square.51</title><rect width="36.065" height="35.639" x="0" y="285.98" class="st1"/></g><g id="shape85-72" transform="translate(72.129,0)"><title>Square.52</title><rect width="36.065" height="35.639" x="0" y="285.98" class="st1"/></g><g id="shape86-74" transform="translate(108.193,0)"><title>Square.53</title><rect width="36.065" height="35.639" x="0" y="285.98" class="st1"/></g></g></g><g id="group87-76" transform="translate(180.442,-143.305)"><title>Sheet.87</title><g id="shape88-77"><title>Rectangle</title><rect width="144.258" height="71.278" x="0" y="250.341" class="st2"/></g><g id="group89-79"><title>Sheet.89</title><g id="shape90-80" transform="translate(0,-35.6388)"><title>Square.46</title><rect width="36.065" height="35.639" x="0" y="285.98" class="st1"/></g><g id="shape91-82" transform="translate(36.0645,-35.6388)"><title>Square.47</title><rect width="36.065" height="35.639" x="0" y="285.98" class="st1"/></g><g id="shape92-84" transform="translate(72.129,-35.6388)"><title>Square.48</title><rect width="36.065" height="35.639" x="0" y="285.98" class="st1"/></g><g id="shape93-86" transform="translate(108.193,-35.6388)"><title>Square.49</title><rect width="36.065" height="35.639" x="0" y="285.98" class="st1"/></g><g id="shape94-88"><title>Square.50</title><rect width="36.065" height="35.639" x="0" y="285.98" class="st1"/></g><g id="shape95-90" transform="translate(36.0645,0)"><title>Square.51</title><rect width="36.065" height="35.639" x="0" y="285.98" class="st1"/></g><g id="shape96-92" transform="translate(72.129,0)"><title>Square.52</title><rect width="36.065" height="35.639" x="0" y="285.98" class="st1"/></g><g id="shape97-94" transform="translate(108.193,0)"><title>Square.53</title><rect width="36.065" height="35.639" x="0" y="285.98" class="st1"/></g></g></g><g id="group98-96" transform="translate(36.1845,-72.0276)"><title>Sheet.98</title><g id="shape99-97"><title>Rectangle</title><rect width="144.258" height="71.278" x="0" y="250.341" class="st2"/></g><g id="group100-99"><title>Sheet.100</title><g id="shape101-100" transform="translate(0,-35.6388)"><title>Square.46</title><rect width="36.065" height="35.639" x="0" y="285.98" class="st1"/></g><g id="shape102-102" transform="translate(36.0645,-35.6388)"><title>Square.47</title><rect width="36.065" height="35.639" x="0" y="285.98" class="st1"/></g><g id="shape103-104" transform="translate(72.129,-35.6388)"><title>Square.48</title><rect width="36.065" height="35.639" x="0" y="285.98" class="st1"/></g><g id="shape104-106" transform="translate(108.193,-35.6388)"><title>Square.49</title><rect width="36.065" height="35.639" x="0" y="285.98" class="st1"/></g><g id="shape105-108"><title>Square.50</title><rect width="36.065" height="35.639" x="0" y="285.98" class="st1"/></g><g id="shape106-110" transform="translate(36.0645,0)"><title>Square.51</title><rect width="36.065" height="35.639" x="0" y="285.98" class="st1"/></g><g id="shape107-112" transform="translate(72.129,0)"><title>Square.52</title><rect width="36.065" height="35.639" x="0" y="285.98" class="st1"/></g><g id="shape108-114" transform="translate(108.193,0)"><title>Square.53</title><rect width="36.065" height="35.639" x="0" y="285.98" class="st1"/></g></g></g><g id="group109-116" transform="translate(180.442,-72.0276)"><title>Sheet.109</title><g id="shape110-117"><title>Rectangle</title><rect width="144.258" height="71.278" x="0" y="250.341" class="st2"/></g><g id="group111-119"><title>Sheet.111</title><g id="shape112-120" transform="translate(0,-35.6388)"><title>Square.46</title><rect width="36.065" height="35.639" x="0" y="285.98" class="st1"/></g><g id="shape113-122" transform="translate(36.0645,-35.6388)"><title>Square.47</title><rect width="36.065" height="35.639" x="0" y="285.98" class="st1"/></g><g id="shape114-124" transform="translate(72.129,-35.6388)"><title>Square.48</title><rect width="36.065" height="35.639" x="0" y="285.98" class="st1"/></g><g id="shape115-126" transform="translate(108.193,-35.6388)"><title>Square.49</title><rect width="36.065" height="35.639" x="0" y="285.98" class="st1"/></g><g id="shape116-128"><title>Square.50</title><rect width="36.065" height="35.639" x="0" y="285.98" class="st1"/></g><g id="shape117-130" transform="translate(36.0645,0)"><title>Square.51</title><rect width="36.065" height="35.639" x="0" y="285.98" class="st1"/></g><g id="shape118-132" transform="translate(72.129,0)"><title>Square.52</title><rect width="36.065" height="35.639" x="0" y="285.98" class="st1"/></g><g id="shape119-134" transform="translate(108.193,0)"><title>Square.53</title><rect width="36.065" height="35.639" x="0" y="285.98" class="st1"/></g></g></g><g id="group120-136" transform="translate(36.1845,-0.75)"><title>Sheet.120</title><g id="shape121-137"><title>Rectangle</title><rect width="144.258" height="71.278" x="0" y="250.341" class="st2"/></g><g id="group122-139"><title>Sheet.122</title><g id="shape123-140" transform="translate(0,-35.6388)"><title>Square.46</title><rect width="36.065" height="35.639" x="0" y="285.98" class="st1"/></g><g id="shape124-142" transform="translate(36.0645,-35.6388)"><title>Square.47</title><rect width="36.065" height="35.639" x="0" y="285.98" class="st1"/></g><g id="shape125-144" transform="translate(72.129,-35.6388)"><title>Square.48</title><rect width="36.065" height="35.639" x="0" y="285.98" class="st1"/></g><g id="shape126-146" transform="translate(108.193,-35.6388)"><title>Square.49</title><rect width="36.065" height="35.639" x="0" y="285.98" class="st1"/></g><g id="shape127-148"><title>Square.50</title><rect width="36.065" height="35.639" x="0" y="285.98" class="st1"/></g><g id="shape128-150" transform="translate(36.0645,0)"><title>Square.51</title><rect width="36.065" height="35.639" x="0" y="285.98" class="st1"/></g><g id="shape129-152" transform="translate(72.129,0)"><title>Square.52</title><rect width="36.065" height="35.639" x="0" y="285.98" class="st1"/></g><g id="shape130-154" transform="translate(108.193,0)"><title>Square.53</title><rect width="36.065" height="35.639" x="0" y="285.98" class="st1"/></g></g></g><g id="group131-156" transform="translate(180.442,-0.75)"><title>Sheet.131</title><g id="shape132-157"><title>Rectangle</title><rect width="144.258" height="71.278" x="0" y="250.341" class="st2"/></g><g id="group133-159"><title>Sheet.133</title><g id="shape134-160" transform="translate(0,-35.6388)"><title>Square.46</title><rect width="36.065" height="35.639" x="0" y="285.98" class="st1"/></g><g id="shape135-162" transform="translate(36.0645,-35.6388)"><title>Square.47</title><rect width="36.065" height="35.639" x="0" y="285.98" class="st1"/></g><g id="shape136-164" transform="translate(72.129,-35.6388)"><title>Square.48</title><rect width="36.065" height="35.639" x="0" y="285.98" class="st1"/></g><g id="shape137-166" transform="translate(108.193,-35.6388)"><title>Square.49</title><rect width="36.065" height="35.639" x="0" y="285.98" class="st1"/></g><g id="shape138-168"><title>Square.50</title><rect width="36.065" height="35.639" x="0" y="285.98" class="st1"/></g><g id="shape139-170" transform="translate(36.0645,0)"><title>Square.51</title><rect width="36.065" height="35.639" x="0" y="285.98" class="st1"/></g><g id="shape140-172" transform="translate(72.129,0)"><title>Square.52</title><rect width="36.065" height="35.639" x="0" y="285.98" class="st1"/></g><g id="shape141-174" transform="translate(108.193,0)"><title>Square.53</title><rect width="36.065" height="35.639" x="0" y="285.98" class="st1"/></g></g></g><g id="shape150-176" transform="translate(244.217,-210.826) rotate(44.6598)"><title>Sheet.150</title><path d="M1.28 321.62 L1.64 321.62 L49.49 321.62" class="st3"/></g><g id="shape151-185" transform="translate(-266.901,54.0731) rotate(-90)"><title>Sheet.151</title><path d="M1.28 321.62 L1.64 321.62 L34.22 321.62" class="st3"/></g><g id="shape152-192" transform="translate(319.501,243.543) rotate(134.544)"><title>Sheet.152</title><path d="M1.28 321.62 L1.64 321.62 L48.79 321.62" class="st3"/></g><g id="shape153-199" transform="translate(271.203,305.09) rotate(153.231)"><title>Sheet.153</title><path d="M1.28 321.62 L1.64 321.62 L78.31 321.62" class="st3"/></g><g id="shape154-206" transform="translate(264.717,322.853) rotate(161.452)"><title>Sheet.154</title><path d="M1.28 321.62 L1.64 321.62 L111.68 321.62" class="st3"/></g><g id="shape155-213" transform="translate(18.1522,-267.546)"><title>Sheet.155</title><path d="M1.28 321.62 L1.64 321.62 L34.65 321.62" class="st3"/></g><g id="shape156-220" transform="translate(-204.714,-142.665) rotate(-43.8643)"><title>Sheet.156</title><path d="M1.28 321.62 L1.64 321.62 L48.8 321.62" class="st3"/></g><g id="shape157-227" transform="translate(388.475,-68.2707) rotate(44.6598)"><title>Sheet.157</title><path d="M1.28 321.62 L1.64 321.62 L99.49 321.62" class="st6"/></g><g id="shape158-236" transform="translate(-53.2468,375.362) rotate(-116.517)"><title>Sheet.158</title><path d="M1.28 321.62 L1.64 321.62 L77.74 321.62" class="st6"/></g><g id="shape159-243" transform="translate(556.158,160.495) rotate(90)"><title>Sheet.159</title><path d="M1.28 321.62 L1.64 321.62 L69.37 321.62" class="st6"/></g><g id="shape160-250" transform="translate(557.58,305.696) rotate(116.838)"><title>Sheet.160</title><path d="M1.28 321.62 L1.64 321.62 L77.97 321.62" class="st6"/></g><g id="shape161-257" transform="translate(532.733,389.26) rotate(135.34)"><title>Sheet.161</title><path d="M1.28 321.62 L1.64 321.62 L99.49 321.62" class="st6"/></g><g id="shape162-264" transform="translate(303.283,-92.4976) rotate(25.977)"><title>Sheet.162</title><path d="M1.28 321.62 L1.64 321.62 L78.32 321.62" class="st6"/></g><g id="shape163-271" transform="translate(162.41,-89.8469)"><title>Sheet.163</title><path d="M1.28 321.62 L1.64 321.62 L70.22 321.62" class="st6"/></g></g></svg>