<svg xmlns="http://www.w3.org/2000/svg" xmlns:ev="http://www.w3.org/2001/xml-events" xmlns:xlink="http://www.w3.org/1999/xlink" width="526" height="239.909" class="st11" color-interpolation-filters="sRGB" viewBox="0 0 394.5 179.932" xml:space="preserve"><style type="text/css">.st1,.st2{stroke-linecap:round;stroke-linejoin:round}.st1{fill:#bfbfbf;stroke:#000;stroke-width:.24}.st2{marker-end:url(#mrkr4-8);stroke-width:1}.st2,.st3,.st4{stroke:#000}.st3{fill:#000;fill-opacity:1;stroke-opacity:1;stroke-width:.28409090909091}.st4{stroke-dasharray:0,3.75;stroke-linecap:round;stroke-linejoin:round;stroke-width:.75}.st5,.st6{stroke:#4bacc6}.st5{marker-end:url(#mrkr4-27);stroke-linecap:round;stroke-linejoin:round;stroke-width:1}.st6{fill:#4bacc6;fill-opacity:1;stroke-opacity:1;stroke-width:.28409090909091}.st7{fill:none;stroke:none;stroke-linecap:round;stroke-linejoin:round;stroke-width:.75}.st8{fill:#000;font-family:Times New Roman;font-size:1.00001em}.st9{baseline-shift:-32.4941%;font-size:.649882em}.st10{font-size:1em}.st11{fill:none;fill-rule:evenodd;font-size:12px;overflow:visible;stroke-linecap:square;stroke-miterlimit:3}</style><defs id="Markers"><g id="lend4"><path d="M 2 1 L 0 0 L 2 -1 L 2 1" style="stroke:none"/></g><marker id="mrkr4-8" class="st3" markerUnits="strokeWidth" orient="auto" overflow="visible" refX="-7.04"><use transform="scale(-3.52,-3.52)" xlink:href="#lend4"/></marker><marker id="mrkr4-27" class="st6" markerUnits="strokeWidth" orient="auto" overflow="visible" refX="-7.04"><use transform="scale(-3.52,-3.52)" xlink:href="#lend4"/></marker></defs><g><title>Page-1</title><g id="shape24-1" transform="translate(34.9607,-40.8257)"><title>Parallelogram</title><path d="M0 179.93 L222.58 179.93 L288.29 110.74 L65.71 110.74 L0 179.93 Z" class="st1"/></g><g id="shape28-3" transform="translate(-95.504,15.1931) rotate(-46.4754)"><title>Sheet.28</title><path d="M0 179.93 L40.67 179.93" class="st2"/></g><g id="shape29-9" transform="translate(34.9607,-40.8257)"><title>Sheet.29</title><path d="M0 179.93 L48.37 179.93" class="st2"/></g><g id="shape33-14" transform="translate(-10.6429,-34.9507) rotate(-14.6817)"><title>Sheet.33</title><path d="M0 179.93 L180.5 179.93" class="st2"/></g><g id="shape36-19" transform="translate(36.2288,91.5749) rotate(-90)"><title>Sheet.36</title><path d="M0 179.93 L57.25 179.93" class="st4"/></g><g id="shape37-22" transform="translate(-55.1147,-16.6562) rotate(-30.0403)"><title>Sheet.37</title><path d="M0 179.93 L202.28 179.93" class="st5"/></g><g id="shape38-28" transform="translate(18.375,-33.5132)"><title>Sheet.38</title><desc>X</desc><rect width="10.688" height="11.813" x="0" y="168.119" class="st7"/><text x="4" y="177.63" class="st8">X</text></g><g id="shape43-31" transform="translate(31.875,-69.5132)"><title>Sheet.43</title><desc>X1</desc><rect width="28.688" height="11.813" x="0" y="168.119" class="st7"/><text x="8.06" y="177.63" class="st8">X<tspan class="st9" dy="-.279em">1</tspan></text></g><g id="shape52-35" transform="translate(72.375,-20.0132)"><title>Sheet.52</title><desc>X2</desc><rect width="28.688" height="11.813" x="0" y="168.119" class="st7"/><text x="8.06" y="177.63" class="st8">X<tspan class="st9" dy="-.279em">2</tspan></text></g><g id="shape53-39" transform="translate(205.688,-148.826)"><title>Sheet.53</title><desc>Y</desc><rect width="21.375" height="11.813" x="0" y="168.119" class="st7"/><text x="6.35" y="177.63" class="st8">Y</text></g><g id="shape54-42" transform="translate(200.625,-60.1114)"><title>Sheet.54</title><desc>Xr = X + α(X1 – X) + β(X2 – X)</desc><rect width="175.5" height="18" x="0" y="161.932" class="st7"/><text x="12.79" y="174.53" class="st8">X<tspan class="st9" dy="-.279em">r </tspan><tspan class="st10" dy=".181em">= X + </tspan>α(X<tspan class="st9" dy="-.279em">1 </tspan><tspan class="st10" dy=".181em">–</tspan> X) + β(X<tspan class="st9" dy="-.279em">2 </tspan><tspan class="st10" dy=".181em">–</tspan> X)</text></g></g></svg>