<svg xmlns="http://www.w3.org/2000/svg" xmlns:ev="http://www.w3.org/2001/xml-events" xmlns:xlink="http://www.w3.org/1999/xlink" width="770" height="817.5" class="st6" color-interpolation-filters="sRGB" viewBox="0 0 577.5 613.125" xml:space="preserve"><style type="text/css">.st1,.st2{fill:none;stroke:#000;stroke-linecap:round;stroke-linejoin:round;stroke-width:1.5}.st2{stroke:none;stroke-width:.75}.st3{fill:#000;font-family:Consolas;font-size:1.16666em}.st4{font-size:1em}.st5{stroke:#0070c0;stroke-dasharray:1.5,3;stroke-linecap:round;stroke-linejoin:round;stroke-width:1.5}.st6{fill:none;fill-rule:evenodd;font-size:12px;overflow:visible;stroke-linecap:square;stroke-miterlimit:3}</style><g><title>Page-1</title><g id="shape1-1" transform="translate(0.75,-468.375)"><title>Square</title><rect width="144" height="144" x="0" y="469.125" class="st1"/></g><g id="shape6-3" transform="translate(216.75,-468.375)"><title>Square.6</title><rect width="144" height="144" x="0" y="469.125" class="st1"/></g><g id="shape15-5" transform="translate(432.75,-468.375)"><title>Square.15</title><rect width="144" height="144" x="0" y="469.125" class="st1"/></g><g id="shape24-7" transform="translate(0.75,-252.375)"><title>Square.24</title><rect width="144" height="144" x="0" y="469.125" class="st1"/></g><g id="shape30-9" transform="translate(216.75,-252.375)"><title>Square.30</title><rect width="144" height="144" x="0" y="469.125" class="st1"/></g><g id="shape34-11" transform="translate(432.75,-252.375)"><title>Square.34</title><rect width="144" height="144" x="0" y="469.125" class="st1"/></g><g id="shape38-13" transform="translate(0.75,-36.375)"><title>Square.38</title><rect width="144" height="144" x="0" y="469.125" class="st1"/></g><g id="shape42-15" transform="translate(216.75,-36.375)"><title>Square.42</title><rect width="144" height="144" x="0" y="469.125" class="st1"/></g><g id="shape47-17" transform="translate(432.75,-36.375)"><title>Square.47</title><rect width="144" height="144" x="0" y="469.125" class="st1"/></g><g id="shape50-19" transform="translate(0.75,-436.875)"><title>Sheet.50</title><desc>PARTITION_SPLIT</desc><rect width="144" height="27" x="0" y="586.125" class="st2"/><text x="14.27" y="610.43" class="st3">PARTITION_SPLIT</text></g><g id="shape51-22" transform="translate(216.75,-436.875)"><title>Sheet.51</title><desc>PARTITION_VERT_4</desc><rect width="144" height="27" x="0" y="586.125" class="st2"/><text x="10.42" y="610.43" class="st3">PARTITION_VERT_4</text></g><g id="shape52-25" transform="translate(432.75,-436.875)"><title>Sheet.52</title><desc>PARTITION_HORZ_4</desc><rect width="144" height="27" x="0" y="586.125" class="st2"/><text x="10.42" y="610.43" class="st3">PARTITION_HORZ_4</text></g><g id="shape60-28" transform="translate(0.75,-220.875)"><title>Sheet.60</title><desc>PARTITION_HORZ_B</desc><rect width="144" height="27" x="0" y="586.125" class="st2"/><text x="10.42" y="604.32" class="st3">PARTITION_HORZ_<tspan class="st4">B</tspan></text></g><g id="shape61-32" transform="translate(216.75,-220.875)"><title>Sheet.61</title><desc>PARTITION_VERT_A</desc><rect width="144" height="27" x="0" y="586.125" class="st2"/><text x="10.42" y="604.32" class="st3">PARTITION_VERT_A</text></g><g id="shape62-35" transform="translate(432.75,-220.875)"><title>Sheet.62</title><desc>PARTITION_HORZ_A</desc><rect width="144" height="27" x="0" y="586.125" class="st2"/><text x="10.42" y="604.32" class="st3">PARTITION_HORZ_A</text></g><g id="shape63-38" transform="translate(0.75,-0.375)"><title>Sheet.63</title><desc>PARTITION_VERT_B</desc><rect width="144" height="27" x="0" y="586.125" class="st2"/><text x="10.42" y="604.32" class="st3">PARTITION_VERT_<tspan class="st4">B</tspan></text></g><g id="shape64-42" transform="translate(216.75,-0.375)"><title>Sheet.64</title><desc>PARTITION_HORZ</desc><rect width="144" height="27" x="0" y="586.125" class="st2"/><text x="18.12" y="604.32" class="st3">PARTITION_HORZ</text></g><g id="shape65-45" transform="translate(432.75,-0.375)"><title>Sheet.65</title><desc>PARTITION_VERT</desc><rect width="144" height="27" x="0" y="586.125" class="st2"/><text x="18.12" y="604.32" class="st3">PARTITION_<tspan class="st4">VERT</tspan></text></g><g id="shape66-49" transform="translate(685.875,0.75) rotate(90)"><title>Sheet.66</title><path d="M0 613.13 L144 613.13" class="st5"/></g><g id="shape67-52" transform="translate(0.75,-540.375)"><title>Sheet.67</title><path d="M0 613.13 L144 613.13" class="st5"/></g><g id="shape68-55" transform="translate(865.875,0.750007) rotate(90)"><title>Sheet.68</title><path d="M0 613.13 L144 613.13" class="st5"/></g><g id="shape69-58" transform="translate(901.875,0.750007) rotate(90)"><title>Sheet.69</title><path d="M0 613.13 L144 613.13" class="st5"/></g><g id="shape70-61" transform="translate(937.875,0.750007) rotate(90)"><title>Sheet.70</title><path d="M0 613.13 L144 613.13" class="st5"/></g><g id="shape71-64" transform="translate(432.75,-504.375)"><title>Sheet.71</title><path d="M0 613.13 L144 613.13" class="st5"/></g><g id="shape72-67" transform="translate(432.75,-540.375)"><title>Sheet.72</title><path d="M0 613.13 L144 613.13" class="st5"/></g><g id="shape73-70" transform="translate(432.75,-576.375)"><title>Sheet.73</title><path d="M0 613.13 L144 613.13" class="st5"/></g><g id="shape74-73" transform="translate(0.75,-324.375)"><title>Sheet.74</title><path d="M0 613.13 L144 613.13" class="st5"/></g><g id="shape75-76" transform="translate(685.875,288.75) rotate(90)"><title>Sheet.75</title><path d="M0 613.13 L72 613.13" class="st5"/></g><g id="shape76-79" transform="translate(901.875,216.75) rotate(90)"><title>Sheet.76</title><path d="M0 613.13 L144 613.13" class="st5"/></g><g id="shape77-82" transform="translate(216.75,-324.375)"><title>Sheet.77</title><path d="M0 613.13 L72 613.13" class="st5"/></g><g id="shape78-85" transform="translate(432.75,-324.375)"><title>Sheet.78</title><path d="M0 613.13 L144 613.13" class="st5"/></g><g id="shape79-88" transform="translate(1117.88,216.75) rotate(90)"><title>Sheet.79</title><path d="M0 613.13 L72 613.13" class="st5"/></g><g id="shape80-91" transform="translate(685.875,432.75) rotate(90)"><title>Sheet.80</title><path d="M0 613.13 L144 613.13" class="st5"/></g><g id="shape81-94" transform="translate(72.75,-108.375)"><title>Sheet.81</title><path d="M0 613.13 L72 613.13" class="st5"/></g><g id="shape82-97" transform="translate(216.75,-108.375)"><title>Sheet.82</title><path d="M0 613.13 L144 613.13" class="st5"/></g><g id="shape83-100" transform="translate(1117.88,432.75) rotate(90)"><title>Sheet.83</title><path d="M0 613.13 L144 613.13" class="st5"/></g></g></svg>