<svg xmlns="http://www.w3.org/2000/svg" xmlns:ev="http://www.w3.org/2001/xml-events" xmlns:xlink="http://www.w3.org/1999/xlink" width="1080.317" height="636.66" class="st7" color-interpolation-filters="sRGB" viewBox="0 0 810.24 477.495" xml:space="preserve"><style type="text/css">.st1{fill:#fff;stroke:#000;stroke-linecap:round;stroke-linejoin:round;stroke-width:.24}.st2{fill:#000;font-family:Calibri;font-size:1.00001em;font-style:italic}.st3{font-size:1em;font-style:normal}.st4,.st5{stroke-linecap:round;stroke-linejoin:round}.st4{fill:#00b0f0;fill-opacity:.5;stroke:#000;stroke-width:.24}.st5{fill:none;stroke:none;stroke-width:.75}.st6{fill:#000;font-family:Calibri;font-size:1.5em;font-style:italic}.st7{fill:none;fill-rule:evenodd;font-size:12px;overflow:visible;stroke-linecap:square;stroke-miterlimit:3}</style><g><title>Page-1</title><g id="shape1-1" transform="translate(18.12,-423.375)"><title>Square</title><rect width="36" height="36" x="0" y="441.495" class="st1"/></g><g id="shape2-3" transform="translate(54.12,-423.375)"><title>Square.2</title><rect width="36" height="36" x="0" y="441.495" class="st1"/></g><g id="shape3-5" transform="translate(90.12,-423.375)"><title>Square.3</title><rect width="36" height="36" x="0" y="441.495" class="st1"/></g><g id="shape4-7" transform="translate(126.12,-423.375)"><title>Square.4</title><rect width="36" height="36" x="0" y="441.495" class="st1"/></g><g id="shape5-9" transform="translate(162.12,-423.375)"><title>Square.5</title><desc>a/16</desc><rect width="36" height="36" x="0" y="441.495" class="st1"/><text x="6.52" y="463.1" class="st2">a<tspan class="st3">/16</tspan></text></g><g id="shape6-13" transform="translate(18.12,-387.375)"><title>Square.6</title><rect width="36" height="36" x="0" y="441.495" class="st1"/></g><g id="shape7-15" transform="translate(54.12,-387.375)"><title>Square.7</title><rect width="36" height="36" x="0" y="441.495" class="st1"/></g><g id="shape8-17" transform="translate(90.12,-387.375)"><title>Square.8</title><rect width="36" height="36" x="0" y="441.495" class="st1"/></g><g id="shape9-19" transform="translate(126.12,-387.375)"><title>Square.9</title><desc>b/16</desc><rect width="36" height="36" x="0" y="441.495" class="st1"/><text x="6.52" y="463.1" class="st2">b<tspan class="st3">/16</tspan></text></g><g id="shape10-23" transform="translate(162.12,-387.375)"><title>Square.10</title><rect width="36" height="36" x="0" y="441.495" class="st1"/></g><g id="shape11-25" transform="translate(18.12,-351.375)"><title>Square.11</title><rect width="36" height="36" x="0" y="441.495" class="st1"/></g><g id="shape12-27" transform="translate(54.12,-351.375)"><title>Square.12</title><rect width="36" height="36" x="0" y="441.495" class="st1"/></g><g id="shape13-29" transform="translate(90.12,-351.375)"><title>Square.13</title><rect width="36" height="36" x="0" y="441.495" class="st4"/></g><g id="shape14-31" transform="translate(126.12,-351.375)"><title>Square.14</title><rect width="36" height="36" x="0" y="441.495" class="st1"/></g><g id="shape15-33" transform="translate(162.12,-351.375)"><title>Square.15</title><rect width="36" height="36" x="0" y="441.495" class="st1"/></g><g id="shape16-35" transform="translate(18.12,-315.375)"><title>Square.16</title><rect width="36" height="36" x="0" y="441.495" class="st1"/></g><g id="shape17-37" transform="translate(54.12,-315.375)"><title>Square.17</title><desc>b/16</desc><rect width="36" height="36" x="0" y="441.495" class="st1"/><text x="6.52" y="463.1" class="st2">b<tspan class="st3">/16</tspan></text></g><g id="shape18-41" transform="translate(90.12,-315.375)"><title>Square.18</title><rect width="36" height="36" x="0" y="441.495" class="st1"/></g><g id="shape19-43" transform="translate(126.12,-315.375)"><title>Square.19</title><rect width="36" height="36" x="0" y="441.495" class="st1"/></g><g id="shape20-45" transform="translate(162.12,-315.375)"><title>Square.20</title><rect width="36" height="36" x="0" y="441.495" class="st1"/></g><g id="shape21-47" transform="translate(18.12,-279.375)"><title>Square.21</title><desc>a/16</desc><rect width="36" height="36" x="0" y="441.495" class="st1"/><text x="6.52" y="463.1" class="st2">a<tspan class="st3">/16</tspan></text></g><g id="shape22-51" transform="translate(54.12,-279.375)"><title>Square.22</title><rect width="36" height="36" x="0" y="441.495" class="st1"/></g><g id="shape23-53" transform="translate(90.12,-279.375)"><title>Square.23</title><rect width="36" height="36" x="0" y="441.495" class="st1"/></g><g id="shape24-55" transform="translate(126.12,-279.375)"><title>Square.24</title><rect width="36" height="36" x="0" y="441.495" class="st1"/></g><g id="shape25-57" transform="translate(162.12,-279.375)"><title>Square.25</title><rect width="36" height="36" x="0" y="441.495" class="st1"/></g><g id="shape30-59" transform="translate(216.12,-423.375)"><title>Square.30</title><rect width="36" height="36" x="0" y="441.495" class="st1"/></g><g id="shape31-61" transform="translate(252.12,-423.375)"><title>Square.31</title><rect width="36" height="36" x="0" y="441.495" class="st1"/></g><g id="shape32-63" transform="translate(288.12,-423.375)"><title>Square.32</title><rect width="36" height="36" x="0" y="441.495" class="st1"/></g><g id="shape33-65" transform="translate(324.12,-423.375)"><title>Square.33</title><rect width="36" height="36" x="0" y="441.495" class="st1"/></g><g id="shape34-67" transform="translate(360.12,-423.375)"><title>Square.34</title><rect width="36" height="36" x="0" y="441.495" class="st1"/></g><g id="shape35-69" transform="translate(216.12,-387.375)"><title>Square.35</title><rect width="36" height="36" x="0" y="441.495" class="st1"/></g><g id="shape36-71" transform="translate(252.12,-387.375)"><title>Square.36</title><rect width="36" height="36" x="0" y="441.495" class="st1"/></g><g id="shape37-73" transform="translate(288.12,-387.375)"><title>Square.37</title><rect width="36" height="36" x="0" y="441.495" class="st1"/></g><g id="shape38-75" transform="translate(324.12,-387.375)"><title>Square.38</title><rect width="36" height="36" x="0" y="441.495" class="st1"/></g><g id="shape39-77" transform="translate(360.12,-387.375)"><title>Square.39</title><desc>a/16</desc><rect width="36" height="36" x="0" y="441.495" class="st1"/><text x="6.52" y="463.1" class="st2">a<tspan class="st3">/16</tspan></text></g><g id="shape40-81" transform="translate(216.12,-351.375)"><title>Square.40</title><rect width="36" height="36" x="0" y="441.495" class="st1"/></g><g id="shape41-83" transform="translate(252.12,-351.375)"><title>Square.41</title><desc>b/16</desc><rect width="36" height="36" x="0" y="441.495" class="st1"/><text x="6.52" y="463.1" class="st2">b<tspan class="st3">/16</tspan></text></g><g id="shape42-87" transform="translate(288.12,-351.375)"><title>Square.42</title><rect width="36" height="36" x="0" y="441.495" class="st4"/></g><g id="shape43-89" transform="translate(324.12,-351.375)"><title>Square.43</title><desc>b/16</desc><rect width="36" height="36" x="0" y="441.495" class="st1"/><text x="6.52" y="463.1" class="st2">b<tspan class="st3">/16</tspan></text></g><g id="shape44-93" transform="translate(360.12,-351.375)"><title>Square.44</title><rect width="36" height="36" x="0" y="441.495" class="st1"/></g><g id="shape45-95" transform="translate(216.12,-315.375)"><title>Square.45</title><desc>a/16</desc><rect width="36" height="36" x="0" y="441.495" class="st1"/><text x="6.52" y="463.1" class="st2">a<tspan class="st3">/16</tspan></text></g><g id="shape46-99" transform="translate(252.12,-315.375)"><title>Square.46</title><rect width="36" height="36" x="0" y="441.495" class="st1"/></g><g id="shape47-101" transform="translate(288.12,-315.375)"><title>Square.47</title><rect width="36" height="36" x="0" y="441.495" class="st1"/></g><g id="shape48-103" transform="translate(324.12,-315.375)"><title>Square.48</title><rect width="36" height="36" x="0" y="441.495" class="st1"/></g><g id="shape49-105" transform="translate(360.12,-315.375)"><title>Square.49</title><rect width="36" height="36" x="0" y="441.495" class="st1"/></g><g id="shape50-107" transform="translate(216.12,-279.375)"><title>Square.50</title><rect width="36" height="36" x="0" y="441.495" class="st1"/></g><g id="shape51-109" transform="translate(252.12,-279.375)"><title>Square.51</title><rect width="36" height="36" x="0" y="441.495" class="st1"/></g><g id="shape52-111" transform="translate(288.12,-279.375)"><title>Square.52</title><rect width="36" height="36" x="0" y="441.495" class="st1"/></g><g id="shape53-113" transform="translate(324.12,-279.375)"><title>Square.53</title><rect width="36" height="36" x="0" y="441.495" class="st1"/></g><g id="shape54-115" transform="translate(360.12,-279.375)"><title>Square.54</title><rect width="36" height="36" x="0" y="441.495" class="st1"/></g><g id="shape55-117" transform="translate(414.12,-423.375)"><title>Square.55</title><rect width="36" height="36" x="0" y="441.495" class="st1"/></g><g id="shape56-119" transform="translate(450.12,-423.375)"><title>Square.56</title><rect width="36" height="36" x="0" y="441.495" class="st1"/></g><g id="shape57-121" transform="translate(486.12,-423.375)"><title>Square.57</title><rect width="36" height="36" x="0" y="441.495" class="st1"/></g><g id="shape58-123" transform="translate(522.12,-423.375)"><title>Square.58</title><rect width="36" height="36" x="0" y="441.495" class="st1"/></g><g id="shape59-125" transform="translate(558.12,-423.375)"><title>Square.59</title><rect width="36" height="36" x="0" y="441.495" class="st1"/></g><g id="shape60-127" transform="translate(414.12,-387.375)"><title>Square.60</title><rect width="36" height="36" x="0" y="441.495" class="st1"/></g><g id="shape61-129" transform="translate(450.12,-387.375)"><title>Square.61</title><rect width="36" height="36" x="0" y="441.495" class="st1"/></g><g id="shape62-131" transform="translate(486.12,-387.375)"><title>Square.62</title><rect width="36" height="36" x="0" y="441.495" class="st1"/></g><g id="shape63-133" transform="translate(522.12,-387.375)"><title>Square.63</title><rect width="36" height="36" x="0" y="441.495" class="st1"/></g><g id="shape64-135" transform="translate(558.12,-387.375)"><title>Square.64</title><rect width="36" height="36" x="0" y="441.495" class="st1"/></g><g id="shape65-137" transform="translate(414.12,-351.375)"><title>Square.65</title><desc>a/16</desc><rect width="36" height="36" x="0" y="441.495" class="st1"/><text x="6.52" y="463.1" class="st2">a<tspan class="st3">/16</tspan></text></g><g id="shape66-141" transform="translate(450.12,-351.375)"><title>Square.66</title><desc>b/16</desc><rect width="36" height="36" x="0" y="441.495" class="st1"/><text x="6.52" y="463.1" class="st2">b<tspan class="st3">/16</tspan></text></g><g id="shape67-145" transform="translate(486.12,-351.375)"><title>Square.67</title><rect width="36" height="36" x="0" y="441.495" class="st4"/></g><g id="shape68-147" transform="translate(522.12,-351.375)"><title>Square.68</title><desc>b/16</desc><rect width="36" height="36" x="0" y="441.495" class="st1"/><text x="6.52" y="463.1" class="st2">b<tspan class="st3">/16</tspan></text></g><g id="shape69-151" transform="translate(558.12,-351.375)"><title>Square.69</title><desc>a/16</desc><rect width="36" height="36" x="0" y="441.495" class="st1"/><text x="6.52" y="463.1" class="st2">a<tspan class="st3">/16</tspan></text></g><g id="shape70-155" transform="translate(414.12,-315.375)"><title>Square.70</title><rect width="36" height="36" x="0" y="441.495" class="st1"/></g><g id="shape71-157" transform="translate(450.12,-315.375)"><title>Square.71</title><rect width="36" height="36" x="0" y="441.495" class="st1"/></g><g id="shape72-159" transform="translate(486.12,-315.375)"><title>Square.72</title><rect width="36" height="36" x="0" y="441.495" class="st1"/></g><g id="shape73-161" transform="translate(522.12,-315.375)"><title>Square.73</title><rect width="36" height="36" x="0" y="441.495" class="st1"/></g><g id="shape74-163" transform="translate(558.12,-315.375)"><title>Square.74</title><rect width="36" height="36" x="0" y="441.495" class="st1"/></g><g id="shape75-165" transform="translate(414.12,-279.375)"><title>Square.75</title><rect width="36" height="36" x="0" y="441.495" class="st1"/></g><g id="shape76-167" transform="translate(450.12,-279.375)"><title>Square.76</title><rect width="36" height="36" x="0" y="441.495" class="st1"/></g><g id="shape77-169" transform="translate(486.12,-279.375)"><title>Square.77</title><rect width="36" height="36" x="0" y="441.495" class="st1"/></g><g id="shape78-171" transform="translate(522.12,-279.375)"><title>Square.78</title><rect width="36" height="36" x="0" y="441.495" class="st1"/></g><g id="shape79-173" transform="translate(558.12,-279.375)"><title>Square.79</title><rect width="36" height="36" x="0" y="441.495" class="st1"/></g><g id="shape80-175" transform="translate(612.12,-423.375)"><title>Square.80</title><rect width="36" height="36" x="0" y="441.495" class="st1"/></g><g id="shape81-177" transform="translate(648.12,-423.375)"><title>Square.81</title><rect width="36" height="36" x="0" y="441.495" class="st1"/></g><g id="shape82-179" transform="translate(684.12,-423.375)"><title>Square.82</title><rect width="36" height="36" x="0" y="441.495" class="st1"/></g><g id="shape83-181" transform="translate(720.12,-423.375)"><title>Square.83</title><rect width="36" height="36" x="0" y="441.495" class="st1"/></g><g id="shape84-183" transform="translate(756.12,-423.375)"><title>Square.84</title><rect width="36" height="36" x="0" y="441.495" class="st1"/></g><g id="shape85-185" transform="translate(612.12,-387.375)"><title>Square.85</title><desc>a/16</desc><rect width="36" height="36" x="0" y="441.495" class="st1"/><text x="6.52" y="463.1" class="st2">a<tspan class="st3">/16</tspan></text></g><g id="shape86-189" transform="translate(648.12,-387.375)"><title>Square.86</title><rect width="36" height="36" x="0" y="441.495" class="st1"/></g><g id="shape87-191" transform="translate(684.12,-387.375)"><title>Square.87</title><rect width="36" height="36" x="0" y="441.495" class="st1"/></g><g id="shape88-193" transform="translate(720.12,-387.375)"><title>Square.88</title><rect width="36" height="36" x="0" y="441.495" class="st1"/></g><g id="shape89-195" transform="translate(756.12,-387.375)"><title>Square.89</title><rect width="36" height="36" x="0" y="441.495" class="st1"/></g><g id="shape90-197" transform="translate(612.12,-351.375)"><title>Square.90</title><rect width="36" height="36" x="0" y="441.495" class="st1"/></g><g id="shape91-199" transform="translate(648.12,-351.375)"><title>Square.91</title><desc>b/16</desc><rect width="36" height="36" x="0" y="441.495" class="st1"/><text x="6.52" y="463.1" class="st2">b<tspan class="st3">/16</tspan></text></g><g id="shape92-203" transform="translate(684.12,-351.375)"><title>Square.92</title><rect width="36" height="36" x="0" y="441.495" class="st4"/></g><g id="shape93-205" transform="translate(720.12,-351.375)"><title>Square.93</title><desc>b/16</desc><rect width="36" height="36" x="0" y="441.495" class="st1"/><text x="6.52" y="463.1" class="st2">b<tspan class="st3">/16</tspan></text></g><g id="shape94-209" transform="translate(756.12,-351.375)"><title>Square.94</title><rect width="36" height="36" x="0" y="441.495" class="st1"/></g><g id="shape95-211" transform="translate(612.12,-315.375)"><title>Square.95</title><rect width="36" height="36" x="0" y="441.495" class="st1"/></g><g id="shape96-213" transform="translate(648.12,-315.375)"><title>Square.96</title><rect width="36" height="36" x="0" y="441.495" class="st1"/></g><g id="shape97-215" transform="translate(684.12,-315.375)"><title>Square.97</title><rect width="36" height="36" x="0" y="441.495" class="st1"/></g><g id="shape98-217" transform="translate(720.12,-315.375)"><title>Square.98</title><rect width="36" height="36" x="0" y="441.495" class="st1"/></g><g id="shape99-219" transform="translate(756.12,-315.375)"><title>Square.99</title><desc>a/16</desc><rect width="36" height="36" x="0" y="441.495" class="st1"/><text x="6.52" y="463.1" class="st2">a<tspan class="st3">/16</tspan></text></g><g id="shape100-223" transform="translate(612.12,-279.375)"><title>Square.100</title><rect width="36" height="36" x="0" y="441.495" class="st1"/></g><g id="shape101-225" transform="translate(648.12,-279.375)"><title>Square.101</title><rect width="36" height="36" x="0" y="441.495" class="st1"/></g><g id="shape102-227" transform="translate(684.12,-279.375)"><title>Square.102</title><rect width="36" height="36" x="0" y="441.495" class="st1"/></g><g id="shape103-229" transform="translate(720.12,-279.375)"><title>Square.103</title><rect width="36" height="36" x="0" y="441.495" class="st1"/></g><g id="shape104-231" transform="translate(756.12,-279.375)"><title>Square.104</title><rect width="36" height="36" x="0" y="441.495" class="st1"/></g><g id="shape115-233" transform="translate(18.12,-189.375)"><title>Square.115</title><desc>a/16</desc><rect width="36" height="36" x="0" y="441.495" class="st1"/><text x="6.52" y="463.1" class="st2">a<tspan class="st3">/16</tspan></text></g><g id="shape116-237" transform="translate(54.12,-189.375)"><title>Square.116</title><rect width="36" height="36" x="0" y="441.495" class="st1"/></g><g id="shape117-239" transform="translate(90.12,-189.375)"><title>Square.117</title><rect width="36" height="36" x="0" y="441.495" class="st1"/></g><g id="shape118-241" transform="translate(126.12,-189.375)"><title>Square.118</title><rect width="36" height="36" x="0" y="441.495" class="st1"/></g><g id="shape119-243" transform="translate(162.12,-189.375)"><title>Square.119</title><rect width="36" height="36" x="0" y="441.495" class="st1"/></g><g id="shape120-245" transform="translate(18.12,-153.375)"><title>Square.120</title><rect width="36" height="36" x="0" y="441.495" class="st1"/></g><g id="shape121-247" transform="translate(54.12,-153.375)"><title>Square.121</title><desc>b/16</desc><rect width="36" height="36" x="0" y="441.495" class="st1"/><text x="6.52" y="463.1" class="st2">b<tspan class="st3">/16</tspan></text></g><g id="shape122-251" transform="translate(90.12,-153.375)"><title>Square.122</title><rect width="36" height="36" x="0" y="441.495" class="st1"/></g><g id="shape123-253" transform="translate(126.12,-153.375)"><title>Square.123</title><rect width="36" height="36" x="0" y="441.495" class="st1"/></g><g id="shape124-255" transform="translate(162.12,-153.375)"><title>Square.124</title><rect width="36" height="36" x="0" y="441.495" class="st1"/></g><g id="shape125-257" transform="translate(18.12,-117.375)"><title>Square.125</title><rect width="36" height="36" x="0" y="441.495" class="st1"/></g><g id="shape126-259" transform="translate(54.12,-117.375)"><title>Square.126</title><rect width="36" height="36" x="0" y="441.495" class="st1"/></g><g id="shape127-261" transform="translate(90.12,-117.375)"><title>Square.127</title><rect width="36" height="36" x="0" y="441.495" class="st4"/></g><g id="shape128-263" transform="translate(126.12,-117.375)"><title>Square.128</title><rect width="36" height="36" x="0" y="441.495" class="st1"/></g><g id="shape129-265" transform="translate(162.12,-117.375)"><title>Square.129</title><rect width="36" height="36" x="0" y="441.495" class="st1"/></g><g id="shape130-267" transform="translate(18.12,-81.375)"><title>Square.130</title><rect width="36" height="36" x="0" y="441.495" class="st1"/></g><g id="shape131-269" transform="translate(54.12,-81.375)"><title>Square.131</title><rect width="36" height="36" x="0" y="441.495" class="st1"/></g><g id="shape132-271" transform="translate(90.12,-81.3749)"><title>Square.132</title><rect width="36" height="36" x="0" y="441.495" class="st1"/></g><g id="shape133-273" transform="translate(126.12,-81.3749)"><title>Square.133</title><desc>b/16</desc><rect width="36" height="36" x="0" y="441.495" class="st1"/><text x="6.52" y="463.1" class="st2">b<tspan class="st3">/16</tspan></text></g><g id="shape134-277" transform="translate(162.12,-81.3749)"><title>Square.134</title><rect width="36" height="36" x="0" y="441.495" class="st1"/></g><g id="shape135-279" transform="translate(18.12,-45.375)"><title>Square.135</title><rect width="36" height="36" x="0" y="441.495" class="st1"/></g><g id="shape136-281" transform="translate(54.12,-45.375)"><title>Square.136</title><rect width="36" height="36" x="0" y="441.495" class="st1"/></g><g id="shape137-283" transform="translate(90.12,-45.375)"><title>Square.137</title><rect width="36" height="36" x="0" y="441.495" class="st1"/></g><g id="shape138-285" transform="translate(126.12,-45.375)"><title>Square.138</title><rect width="36" height="36" x="0" y="441.495" class="st1"/></g><g id="shape139-287" transform="translate(162.12,-45.375)"><title>Square.139</title><desc>a/16</desc><rect width="36" height="36" x="0" y="441.495" class="st1"/><text x="6.52" y="463.1" class="st2">a<tspan class="st3">/16</tspan></text></g><g id="shape140-291" transform="translate(216.12,-189.375)"><title>Square.140</title><rect width="36" height="36" x="0" y="441.495" class="st1"/></g><g id="shape141-293" transform="translate(252.12,-189.375)"><title>Square.141</title><desc>a/16</desc><rect width="36" height="36" x="0" y="441.495" class="st1"/><text x="6.52" y="463.1" class="st2">a<tspan class="st3">/16</tspan></text></g><g id="shape142-297" transform="translate(288.12,-189.375)"><title>Square.142</title><rect width="36" height="36" x="0" y="441.495" class="st1"/></g><g id="shape143-299" transform="translate(324.12,-189.375)"><title>Square.143</title><rect width="36" height="36" x="0" y="441.495" class="st1"/></g><g id="shape144-301" transform="translate(360.12,-189.375)"><title>Square.144</title><rect width="36" height="36" x="0" y="441.495" class="st1"/></g><g id="shape145-303" transform="translate(216.12,-153.375)"><title>Square.145</title><rect width="36" height="36" x="0" y="441.495" class="st1"/></g><g id="shape146-305" transform="translate(252.12,-153.375)"><title>Square.146</title><rect width="36" height="36" x="0" y="441.495" class="st1"/></g><g id="shape147-307" transform="translate(288.12,-153.375)"><title>Square.147</title><desc>b/16</desc><rect width="36" height="36" x="0" y="441.495" class="st1"/><text x="6.52" y="463.1" class="st2">b<tspan class="st3">/16</tspan></text></g><g id="shape148-311" transform="translate(324.12,-153.375)"><title>Square.148</title><rect width="36" height="36" x="0" y="441.495" class="st1"/></g><g id="shape149-313" transform="translate(360.12,-153.375)"><title>Square.149</title><rect width="36" height="36" x="0" y="441.495" class="st1"/></g><g id="shape150-315" transform="translate(216.12,-117.375)"><title>Square.150</title><rect width="36" height="36" x="0" y="441.495" class="st1"/></g><g id="shape151-317" transform="translate(252.12,-117.375)"><title>Square.151</title><rect width="36" height="36" x="0" y="441.495" class="st1"/></g><g id="shape152-319" transform="translate(288.12,-117.375)"><title>Square.152</title><rect width="36" height="36" x="0" y="441.495" class="st4"/></g><g id="shape153-321" transform="translate(324.12,-117.375)"><title>Square.153</title><rect width="36" height="36" x="0" y="441.495" class="st1"/></g><g id="shape154-323" transform="translate(360.12,-117.375)"><title>Square.154</title><rect width="36" height="36" x="0" y="441.495" class="st1"/></g><g id="shape155-325" transform="translate(216.12,-81.3749)"><title>Square.155</title><rect width="36" height="36" x="0" y="441.495" class="st1"/></g><g id="shape156-327" transform="translate(252.12,-81.3749)"><title>Square.156</title><rect width="36" height="36" x="0" y="441.495" class="st1"/></g><g id="shape157-329" transform="translate(288.12,-81.3749)"><title>Square.157</title><desc>b/16</desc><rect width="36" height="36" x="0" y="441.495" class="st1"/><text x="6.52" y="463.1" class="st2">b<tspan class="st3">/16</tspan></text></g><g id="shape158-333" transform="translate(324.12,-81.3749)"><title>Square.158</title><rect width="36" height="36" x="0" y="441.495" class="st1"/></g><g id="shape159-335" transform="translate(360.12,-81.3749)"><title>Square.159</title><rect width="36" height="36" x="0" y="441.495" class="st1"/></g><g id="shape160-337" transform="translate(216.12,-45.3749)"><title>Square.160</title><rect width="36" height="36" x="0" y="441.495" class="st1"/></g><g id="shape161-339" transform="translate(252.12,-45.3749)"><title>Square.161</title><rect width="36" height="36" x="0" y="441.495" class="st1"/></g><g id="shape162-341" transform="translate(288.12,-45.3749)"><title>Square.162</title><rect width="36" height="36" x="0" y="441.495" class="st1"/></g><g id="shape163-343" transform="translate(324.12,-45.3749)"><title>Square.163</title><desc>a/16</desc><rect width="36" height="36" x="0" y="441.495" class="st1"/><text x="6.52" y="463.1" class="st2">a<tspan class="st3">/16</tspan></text></g><g id="shape164-347" transform="translate(360.12,-45.3749)"><title>Square.164</title><rect width="36" height="36" x="0" y="441.495" class="st1"/></g><g id="shape165-349" transform="translate(414.12,-189.375)"><title>Square.165</title><rect width="36" height="36" x="0" y="441.495" class="st1"/></g><g id="shape166-351" transform="translate(450.12,-189.375)"><title>Square.166</title><rect width="36" height="36" x="0" y="441.495" class="st1"/></g><g id="shape167-353" transform="translate(486.12,-189.375)"><title>Square.167</title><desc>a/16</desc><rect width="36" height="36" x="0" y="441.495" class="st1"/><text x="6.52" y="463.1" class="st2">a<tspan class="st3">/16</tspan></text></g><g id="shape168-357" transform="translate(522.12,-189.375)"><title>Square.168</title><rect width="36" height="36" x="0" y="441.495" class="st1"/></g><g id="shape169-359" transform="translate(558.12,-189.375)"><title>Square.169</title><rect width="36" height="36" x="0" y="441.495" class="st1"/></g><g id="shape170-361" transform="translate(414.12,-153.375)"><title>Square.170</title><rect width="36" height="36" x="0" y="441.495" class="st1"/></g><g id="shape171-363" transform="translate(450.12,-153.375)"><title>Square.171</title><rect width="36" height="36" x="0" y="441.495" class="st1"/></g><g id="shape172-365" transform="translate(486.12,-153.375)"><title>Square.172</title><desc>b/16</desc><rect width="36" height="36" x="0" y="441.495" class="st1"/><text x="6.52" y="463.1" class="st2">b<tspan class="st3">/16</tspan></text></g><g id="shape173-369" transform="translate(522.12,-153.375)"><title>Square.173</title><rect width="36" height="36" x="0" y="441.495" class="st1"/></g><g id="shape174-371" transform="translate(558.12,-153.375)"><title>Square.174</title><rect width="36" height="36" x="0" y="441.495" class="st1"/></g><g id="shape175-373" transform="translate(414.12,-117.375)"><title>Square.175</title><rect width="36" height="36" x="0" y="441.495" class="st1"/></g><g id="shape176-375" transform="translate(450.12,-117.375)"><title>Square.176</title><rect width="36" height="36" x="0" y="441.495" class="st1"/></g><g id="shape177-377" transform="translate(486.12,-117.375)"><title>Square.177</title><rect width="36" height="36" x="0" y="441.495" class="st4"/></g><g id="shape178-379" transform="translate(522.12,-117.375)"><title>Square.178</title><rect width="36" height="36" x="0" y="441.495" class="st1"/></g><g id="shape179-381" transform="translate(558.12,-117.375)"><title>Square.179</title><rect width="36" height="36" x="0" y="441.495" class="st1"/></g><g id="shape180-383" transform="translate(414.12,-81.3749)"><title>Square.180</title><rect width="36" height="36" x="0" y="441.495" class="st1"/></g><g id="shape181-385" transform="translate(450.12,-81.3749)"><title>Square.181</title><rect width="36" height="36" x="0" y="441.495" class="st1"/></g><g id="shape182-387" transform="translate(486.12,-81.3749)"><title>Square.182</title><desc>b/16</desc><rect width="36" height="36" x="0" y="441.495" class="st1"/><text x="6.52" y="463.1" class="st2">b<tspan class="st3">/16</tspan></text></g><g id="shape183-391" transform="translate(522.12,-81.3749)"><title>Square.183</title><rect width="36" height="36" x="0" y="441.495" class="st1"/></g><g id="shape184-393" transform="translate(558.12,-81.3749)"><title>Square.184</title><rect width="36" height="36" x="0" y="441.495" class="st1"/></g><g id="shape185-395" transform="translate(414.12,-45.3749)"><title>Square.185</title><rect width="36" height="36" x="0" y="441.495" class="st1"/></g><g id="shape186-397" transform="translate(450.12,-45.3749)"><title>Square.186</title><rect width="36" height="36" x="0" y="441.495" class="st1"/></g><g id="shape187-399" transform="translate(486.12,-45.3749)"><title>Square.187</title><desc>a/16</desc><rect width="36" height="36" x="0" y="441.495" class="st1"/><text x="6.52" y="463.1" class="st2">a<tspan class="st3">/16</tspan></text></g><g id="shape188-403" transform="translate(522.12,-45.3749)"><title>Square.188</title><rect width="36" height="36" x="0" y="441.495" class="st1"/></g><g id="shape189-405" transform="translate(558.12,-45.3749)"><title>Square.189</title><rect width="36" height="36" x="0" y="441.495" class="st1"/></g><g id="shape190-407" transform="translate(612.12,-189.375)"><title>Square.190</title><rect width="36" height="36" x="0" y="441.495" class="st1"/></g><g id="shape191-409" transform="translate(648.12,-189.375)"><title>Square.191</title><rect width="36" height="36" x="0" y="441.495" class="st1"/></g><g id="shape192-411" transform="translate(684.12,-189.375)"><title>Square.192</title><rect width="36" height="36" x="0" y="441.495" class="st1"/></g><g id="shape193-413" transform="translate(720.12,-189.375)"><title>Square.193</title><desc>a/16</desc><rect width="36" height="36" x="0" y="441.495" class="st1"/><text x="6.52" y="463.1" class="st2">a<tspan class="st3">/16</tspan></text></g><g id="shape194-417" transform="translate(756.12,-189.375)"><title>Square.194</title><rect width="36" height="36" x="0" y="441.495" class="st1"/></g><g id="shape195-419" transform="translate(612.12,-153.375)"><title>Square.195</title><rect width="36" height="36" x="0" y="441.495" class="st1"/></g><g id="shape196-421" transform="translate(648.12,-153.375)"><title>Square.196</title><rect width="36" height="36" x="0" y="441.495" class="st1"/></g><g id="shape197-423" transform="translate(684.12,-153.375)"><title>Square.197</title><desc>b/16</desc><rect width="36" height="36" x="0" y="441.495" class="st1"/><text x="6.52" y="463.1" class="st2">b<tspan class="st3">/16</tspan></text></g><g id="shape198-427" transform="translate(720.12,-153.375)"><title>Square.198</title><rect width="36" height="36" x="0" y="441.495" class="st1"/></g><g id="shape199-429" transform="translate(756.12,-153.375)"><title>Square.199</title><rect width="36" height="36" x="0" y="441.495" class="st1"/></g><g id="shape200-431" transform="translate(612.12,-117.375)"><title>Square.200</title><rect width="36" height="36" x="0" y="441.495" class="st1"/></g><g id="shape201-433" transform="translate(648.12,-117.375)"><title>Square.201</title><rect width="36" height="36" x="0" y="441.495" class="st1"/></g><g id="shape202-435" transform="translate(684.12,-117.375)"><title>Square.202</title><rect width="36" height="36" x="0" y="441.495" class="st4"/></g><g id="shape203-437" transform="translate(720.12,-117.375)"><title>Square.203</title><rect width="36" height="36" x="0" y="441.495" class="st1"/></g><g id="shape204-439" transform="translate(756.12,-117.375)"><title>Square.204</title><rect width="36" height="36" x="0" y="441.495" class="st1"/></g><g id="shape205-441" transform="translate(612.12,-81.3749)"><title>Square.205</title><rect width="36" height="36" x="0" y="441.495" class="st1"/></g><g id="shape206-443" transform="translate(648.12,-81.3749)"><title>Square.206</title><rect width="36" height="36" x="0" y="441.495" class="st1"/></g><g id="shape207-445" transform="translate(684.12,-81.3749)"><title>Square.207</title><desc>b/16</desc><rect width="36" height="36" x="0" y="441.495" class="st1"/><text x="6.52" y="463.1" class="st2">b<tspan class="st3">/16</tspan></text></g><g id="shape208-449" transform="translate(720.12,-81.3749)"><title>Square.208</title><rect width="36" height="36" x="0" y="441.495" class="st1"/></g><g id="shape209-451" transform="translate(756.12,-81.3749)"><title>Square.209</title><rect width="36" height="36" x="0" y="441.495" class="st1"/></g><g id="shape210-453" transform="translate(612.12,-45.3749)"><title>Square.210</title><rect width="36" height="36" x="0" y="441.495" class="st1"/></g><g id="shape211-455" transform="translate(648.12,-45.3749)"><title>Square.211</title><desc>a/16</desc><rect width="36" height="36" x="0" y="441.495" class="st1"/><text x="6.52" y="463.1" class="st2">a<tspan class="st3">/16</tspan></text></g><g id="shape212-459" transform="translate(684.12,-45.3749)"><title>Square.212</title><rect width="36" height="36" x="0" y="441.495" class="st1"/></g><g id="shape213-461" transform="translate(720.12,-45.3749)"><title>Square.213</title><rect width="36" height="36" x="0" y="441.495" class="st1"/></g><g id="shape214-463" transform="translate(756.12,-45.3749)"><title>Square.214</title><rect width="36" height="36" x="0" y="441.495" class="st1"/></g><g id="shape236-465" transform="translate(54.12,-252.375)"><title>Sheet.236</title><desc>d = 0</desc><rect width="108" height="27" x="0" y="450.495" class="st5"/><text x="36.26" y="469.4" class="st6">d<tspan class="st3"> </tspan><tspan class="st3">= 0</tspan></text></g><g id="shape237-470" transform="translate(252.12,-252.375)"><title>Sheet.237</title><desc>d = 1</desc><rect width="108" height="27" x="0" y="450.495" class="st5"/><text x="36.26" y="469.4" class="st6">d<tspan class="st3"> </tspan><tspan class="st3">= 1</tspan></text></g><g id="shape238-475" transform="translate(450.12,-252.375)"><title>Sheet.238</title><desc>d = 2</desc><rect width="108" height="27" x="0" y="450.495" class="st5"/><text x="36.26" y="469.4" class="st6">d<tspan class="st3"> </tspan><tspan class="st3">= 2</tspan></text></g><g id="shape239-480" transform="translate(648.12,-252.375)"><title>Sheet.239</title><desc>d = 3</desc><rect width="108" height="27" x="0" y="450.495" class="st5"/><text x="36.26" y="469.4" class="st6">d<tspan class="st3"> </tspan><tspan class="st3">= 3</tspan></text></g><g id="shape240-485" transform="translate(54.12,-18.375)"><title>Sheet.240</title><desc>d = 4</desc><rect width="108" height="27" x="0" y="450.495" class="st5"/><text x="36.26" y="469.4" class="st6">d<tspan class="st3"> </tspan><tspan class="st3">= 4</tspan></text></g><g id="shape241-490" transform="translate(252.12,-18.375)"><title>Sheet.241</title><desc>d = 5</desc><rect width="108" height="27" x="0" y="450.495" class="st5"/><text x="36.26" y="469.4" class="st6">d<tspan class="st3"> </tspan><tspan class="st3">= 5</tspan></text></g><g id="shape242-495" transform="translate(450.12,-18.375)"><title>Sheet.242</title><desc>d = 6</desc><rect width="108" height="27" x="0" y="450.495" class="st5"/><text x="36.26" y="469.4" class="st6">d<tspan class="st3"> </tspan><tspan class="st3">= 6</tspan></text></g><g id="shape243-500" transform="translate(648.12,-18.375)"><title>Sheet.243</title><desc>d = 7</desc><rect width="108" height="27" x="0" y="450.495" class="st5"/><text x="36.26" y="469.4" class="st6">d<tspan class="st3"> </tspan><tspan class="st3">= 7</tspan></text></g></g></svg>