<svg xmlns="http://www.w3.org/2000/svg" xmlns:ev="http://www.w3.org/2001/xml-events" xmlns:xlink="http://www.w3.org/1999/xlink" width="520.877" height="284.131" class="st8" color-interpolation-filters="sRGB" viewBox="0 0 390.657 213.098" xml:space="preserve"><style type="text/css">.st1{fill:#d8d8d8}.st1,.st2,.st3,.st4,.st5{stroke:#000;stroke-width:.25}.st6{stroke-width:.25}.st2{fill:#fec000}.st3{fill:#00fefe}.st4{fill:#fff}.st5{fill:#ffc000}.st6{fill:none;stroke:none}.st7{fill:#4672c4;font-family:Calibri;font-size:.666664em}.st8{fill:none;fill-rule:evenodd;font-size:12px;overflow:visible;stroke-linecap:square;stroke-miterlimit:3}</style><g><title>Page-1</title><g id="shape1-1" transform="translate(0.25,-141.982)"><title>Sheet.1</title><rect width="28.346" height="28.346" x="0" y="184.752" class="st1"/></g><g id="shape3-3" transform="translate(28.5965,-141.982)"><title>Sheet.3</title><rect width="28.346" height="28.346" x="0" y="184.752" class="st1"/></g><g id="shape4-5" transform="translate(56.9429,-141.982)"><title>Sheet.4</title><rect width="28.346" height="28.346" x="0" y="184.752" class="st1"/></g><g id="shape5-7" transform="translate(85.2894,-141.982)"><title>Sheet.5</title><rect width="28.346" height="28.346" x="0" y="184.752" class="st1"/></g><g id="shape6-9" transform="translate(113.636,-141.982)"><title>Sheet.6</title><rect width="28.346" height="28.346" x="0" y="184.752" class="st1"/></g><g id="shape7-11" transform="translate(141.982,-141.982)"><title>Sheet.7</title><rect width="28.346" height="28.346" x="0" y="184.752" class="st1"/></g><g id="shape8-13" transform="translate(170.329,-141.982)"><title>Sheet.8</title><rect width="28.346" height="28.346" x="0" y="184.752" class="st1"/></g><g id="shape9-15" transform="translate(198.675,-141.982)"><title>Sheet.9</title><rect width="28.346" height="28.346" x="0" y="184.752" class="st1"/></g><g id="shape10-17" transform="translate(0.25,-113.636)"><title>Sheet.10</title><rect width="28.346" height="28.346" x="0" y="184.752" class="st1"/></g><g id="shape11-19" transform="translate(28.5965,-113.636)"><title>Sheet.11</title><rect width="28.346" height="28.346" x="0" y="184.752" class="st1"/></g><g id="shape12-21" transform="translate(56.9429,-113.636)"><title>Sheet.12</title><rect width="28.346" height="28.346" x="0" y="184.752" class="st1"/></g><g id="shape13-23" transform="translate(85.2894,-113.636)"><title>Sheet.13</title><rect width="28.346" height="28.346" x="0" y="184.752" class="st1"/></g><g id="shape14-25" transform="translate(113.636,-113.636)"><title>Sheet.14</title><rect width="28.346" height="28.346" x="0" y="184.752" class="st1"/></g><g id="shape15-27" transform="translate(141.982,-113.636)"><title>Sheet.15</title><rect width="28.346" height="28.346" x="0" y="184.752" class="st1"/></g><g id="shape16-29" transform="translate(170.329,-113.636)"><title>Sheet.16</title><rect width="28.346" height="28.346" x="0" y="184.752" class="st1"/></g><g id="shape17-31" transform="translate(198.675,-113.636)"><title>Sheet.17</title><rect width="28.346" height="28.346" x="0" y="184.752" class="st1"/></g><g id="shape18-33" transform="translate(0.25,-85.2894)"><title>Sheet.18</title><rect width="28.346" height="28.346" x="0" y="184.752" class="st1"/></g><g id="shape19-35" transform="translate(28.5965,-85.2894)"><title>Sheet.19</title><rect width="28.346" height="28.346" x="0" y="184.752" class="st1"/></g><g id="shape20-37" transform="translate(56.9429,-85.2894)"><title>Sheet.20</title><rect width="28.346" height="28.346" x="0" y="184.752" class="st1"/></g><g id="shape21-39" transform="translate(85.2894,-85.2894)"><title>Sheet.21</title><rect width="28.346" height="28.346" x="0" y="184.752" class="st1"/></g><g id="shape22-41" transform="translate(113.636,-85.2894)"><title>Sheet.22</title><rect width="28.346" height="28.346" x="0" y="184.752" class="st1"/></g><g id="shape23-43" transform="translate(141.982,-85.2894)"><title>Sheet.23</title><rect width="28.346" height="28.346" x="0" y="184.752" class="st1"/></g><g id="shape24-45" transform="translate(170.329,-85.2894)"><title>Sheet.24</title><rect width="28.346" height="28.346" x="0" y="184.752" class="st2"/></g><g id="shape25-47" transform="translate(198.675,-85.2894)"><title>Sheet.25</title><rect width="28.346" height="28.346" x="0" y="184.752" class="st3"/></g><g id="shape26-49" transform="translate(0.25,-56.9429)"><title>Sheet.26</title><rect width="28.346" height="28.346" x="0" y="184.752" class="st1"/></g><g id="shape27-51" transform="translate(28.5965,-56.9429)"><title>Sheet.27</title><rect width="28.346" height="28.346" x="0" y="184.752" class="st1"/></g><g id="shape28-53" transform="translate(56.9429,-56.9429)"><title>Sheet.28</title><rect width="28.346" height="28.346" x="0" y="184.752" class="st1"/></g><g id="shape29-55" transform="translate(85.2894,-56.9429)"><title>Sheet.29</title><rect width="28.346" height="28.346" x="0" y="184.752" class="st1"/></g><g id="shape30-57" transform="translate(113.636,-56.9429)"><title>Sheet.30</title><rect width="28.346" height="28.346" x="0" y="184.752" class="st2"/></g><g id="shape31-59" transform="translate(141.982,-56.9429)"><title>Sheet.31</title><rect width="28.346" height="28.346" x="0" y="184.752" class="st3"/></g><g id="shape32-61" transform="translate(170.329,-56.9429)"><title>Sheet.32</title><rect width="28.346" height="28.346" x="0" y="184.752" class="st4"/></g><g id="shape33-63" transform="translate(198.675,-56.9429)"><title>Sheet.33</title><rect width="28.346" height="28.346" x="0" y="184.752" class="st4"/></g><g id="shape34-65" transform="translate(227.022,-141.982)"><title>Sheet.34</title><rect width="28.346" height="28.346" x="0" y="184.752" class="st1"/></g><g id="shape35-67" transform="translate(255.368,-141.982)"><title>Sheet.35</title><rect width="28.346" height="28.346" x="0" y="184.752" class="st1"/></g><g id="shape36-69" transform="translate(283.715,-141.982)"><title>Sheet.36</title><rect width="28.346" height="28.346" x="0" y="184.752" class="st5"/></g><g id="shape37-71" transform="translate(312.061,-141.982)"><title>Sheet.37</title><rect width="28.346" height="28.346" x="0" y="184.752" class="st3"/></g><g id="shape38-73" transform="translate(227.022,-113.636)"><title>Sheet.38</title><rect width="28.346" height="28.346" x="0" y="184.752" class="st2"/></g><g id="shape39-75" transform="translate(255.368,-113.636)"><title>Sheet.39</title><rect width="28.346" height="28.346" x="0" y="184.752" class="st3"/></g><g id="shape40-77" transform="translate(283.715,-113.636)"><title>Sheet.40</title><rect width="28.346" height="28.346" x="0" y="184.752" class="st4"/></g><g id="shape41-79" transform="translate(312.061,-113.636)"><title>Sheet.41</title><rect width="28.346" height="28.346" x="0" y="184.752" class="st4"/></g><g id="shape42-81" transform="translate(227.022,-85.2894)"><title>Sheet.42</title><rect width="28.346" height="28.346" x="0" y="184.752" class="st4"/></g><g id="shape43-83" transform="translate(255.368,-85.2894)"><title>Sheet.43</title><rect width="28.346" height="28.346" x="0" y="184.752" class="st4"/></g><g id="shape44-85" transform="translate(283.715,-85.2894)"><title>Sheet.44</title><rect width="28.346" height="28.346" x="0" y="184.752" class="st4"/></g><g id="shape45-87" transform="translate(312.061,-85.2894)"><title>Sheet.45</title><rect width="28.346" height="28.346" x="0" y="184.752" class="st4"/></g><g id="shape46-89" transform="translate(227.022,-56.9429)"><title>Sheet.46</title><rect width="28.346" height="28.346" x="0" y="184.752" class="st4"/></g><g id="shape47-91" transform="translate(255.368,-56.9429)"><title>Sheet.47</title><rect width="28.346" height="28.346" x="0" y="184.752" class="st4"/></g><g id="shape48-93" transform="translate(283.715,-56.9429)"><title>Sheet.48</title><rect width="28.346" height="28.346" x="0" y="184.752" class="st4"/></g><g id="shape49-95" transform="translate(312.061,-56.9429)"><title>Sheet.49</title><rect width="28.346" height="28.346" x="0" y="184.752" class="st4"/></g><g id="shape50-97" transform="translate(0.25,-28.5965)"><title>Sheet.50</title><rect width="28.346" height="28.346" x="0" y="184.752" class="st1"/></g><g id="shape51-99" transform="translate(28.5965,-28.5965)"><title>Sheet.51</title><rect width="28.346" height="28.346" x="0" y="184.752" class="st1"/></g><g id="shape52-101" transform="translate(56.9429,-28.5965)"><title>Sheet.52</title><rect width="28.346" height="28.346" x="0" y="184.752" class="st2"/></g><g id="shape53-103" transform="translate(85.2894,-28.5965)"><title>Sheet.53</title><rect width="28.346" height="28.346" x="0" y="184.752" class="st3"/></g><g id="shape54-105" transform="translate(113.636,-28.5965)"><title>Sheet.54</title><rect width="28.346" height="28.346" x="0" y="184.752" class="st4"/></g><g id="shape55-107" transform="translate(141.982,-28.5965)"><title>Sheet.55</title><rect width="28.346" height="28.346" x="0" y="184.752" class="st4"/></g><g id="shape56-109" transform="translate(170.329,-28.5965)"><title>Sheet.56</title><rect width="28.346" height="28.346" x="0" y="184.752" class="st4"/></g><g id="shape57-111" transform="translate(198.675,-28.5965)"><title>Sheet.57</title><rect width="28.346" height="28.346" x="0" y="184.752" class="st4"/></g><g id="shape58-113" transform="translate(227.022,-28.5965)"><title>Sheet.58</title><rect width="28.346" height="28.346" x="0" y="184.752" class="st4"/></g><g id="shape59-115" transform="translate(255.368,-28.5965)"><title>Sheet.59</title><rect width="28.346" height="28.346" x="0" y="184.752" class="st4"/></g><g id="shape60-117" transform="translate(283.715,-28.5965)"><title>Sheet.60</title><rect width="28.346" height="28.346" x="0" y="184.752" class="st4"/></g><g id="shape61-119" transform="translate(312.061,-28.5965)"><title>Sheet.61</title><rect width="28.346" height="28.346" x="0" y="184.752" class="st4"/></g><g id="shape62-121" transform="translate(0.25,-0.25)"><title>Sheet.62</title><rect width="28.346" height="28.346" x="0" y="184.752" class="st4"/></g><g id="shape63-123" transform="translate(28.5965,-0.25)"><title>Sheet.63</title><rect width="28.346" height="28.346" x="0" y="184.752" class="st4"/></g><g id="shape64-125" transform="translate(56.9429,-0.25)"><title>Sheet.64</title><rect width="28.346" height="28.346" x="0" y="184.752" class="st4"/></g><g id="shape65-127" transform="translate(85.2894,-0.25)"><title>Sheet.65</title><rect width="28.346" height="28.346" x="0" y="184.752" class="st4"/></g><g id="shape66-129" transform="translate(113.636,-0.25)"><title>Sheet.66</title><rect width="28.346" height="28.346" x="0" y="184.752" class="st4"/></g><g id="shape67-131" transform="translate(141.982,-0.25)"><title>Sheet.67</title><rect width="28.346" height="28.346" x="0" y="184.752" class="st4"/></g><g id="shape68-133" transform="translate(170.329,-0.25)"><title>Sheet.68</title><rect width="28.346" height="28.346" x="0" y="184.752" class="st4"/></g><g id="shape69-135" transform="translate(198.675,-0.25)"><title>Sheet.69</title><rect width="28.346" height="28.346" x="0" y="184.752" class="st4"/></g><g id="shape70-137" transform="translate(227.022,-0.25)"><title>Sheet.70</title><rect width="28.346" height="28.346" x="0" y="184.752" class="st4"/></g><g id="shape71-139" transform="translate(255.368,-0.25)"><title>Sheet.71</title><rect width="28.346" height="28.346" x="0" y="184.752" class="st4"/></g><g id="shape72-141" transform="translate(283.715,-0.25)"><title>Sheet.72</title><rect width="28.346" height="28.346" x="0" y="184.752" class="st4"/></g><g id="shape73-143" transform="translate(312.061,-0.25)"><title>Sheet.73</title><rect width="28.346" height="28.346" x="0" y="184.752" class="st4"/></g><g id="shape74-145" transform="translate(0.25,-184.502)"><title>Sheet.74</title><rect width="28.346" height="28.346" x="0" y="184.752" class="st3"/></g><g id="shape75-147" transform="translate(255.368,-184.502)"><title>Sheet.75</title><rect width="28.346" height="28.346" x="0" y="184.752" class="st5"/></g><g id="shape76-149" transform="translate(127.809,-184.502)"><title>Sheet.76</title><rect width="28.346" height="28.346" x="0" y="184.752" class="st1"/></g><g id="shape79-151" transform="translate(27.8091,-193.762)"><title>Sheet.79</title><desc>Current processing block</desc><rect width="100" height="12" x="0" y="201.098" class="st6"/><text x="9.78" y="209.5" class="st7">Current processing block</text></g><g id="shape80-154" transform="translate(158.899,-192.675)"><title>Sheet.80</title><desc>Allowed prediction block</desc><rect width="100" height="12" x="0" y="201.098" class="st6"/><text x="9.68" y="209.5" class="st7">Allowed prediction block</text></g><g id="shape81-157" transform="translate(290.407,-192.675)"><title>Sheet.81</title><desc>Restricted immediate blocks</desc><rect width="100" height="12" x="0" y="201.098" class="st6"/><text x="3.92" y="209.5" class="st7">Restricted immediate blocks</text></g></g></svg>