<svg xmlns="http://www.w3.org/2000/svg" xmlns:ev="http://www.w3.org/2001/xml-events" xmlns:xlink="http://www.w3.org/1999/xlink" width="1080.317" height="324.66" class="st7" color-interpolation-filters="sRGB" viewBox="0 0 810.24 243.495" xml:space="preserve"><style type="text/css">.st1{fill:#fff;stroke:#000;stroke-linecap:round;stroke-linejoin:round;stroke-width:.24}.st2{fill:#000;font-family:Calibri;font-size:1.00001em}.st3,.st4{stroke-linecap:round;stroke-linejoin:round}.st3{fill:#00b0f0;fill-opacity:.5;stroke:#000;stroke-width:.24}.st4{fill:none;stroke:none;stroke-width:.75}.st5{fill:#000;font-family:Calibri;font-size:1.5em;font-style:italic}.st6{font-size:1em;font-style:normal}.st7{fill:none;fill-rule:evenodd;font-size:12px;overflow:visible;stroke-linecap:square;stroke-miterlimit:3}</style><g><title>Page-1</title><g id="shape1-1" transform="translate(18.12,-189.375)"><title>Square</title><rect width="36" height="36" x="0" y="207.495" class="st1"/></g><g id="shape2-3" transform="translate(54.12,-189.375)"><title>Square.2</title><rect width="36" height="36" x="0" y="207.495" class="st1"/></g><g id="shape3-5" transform="translate(90.12,-189.375)"><title>Square.3</title><desc>1/16</desc><rect width="36" height="36" x="0" y="207.495" class="st1"/><text x="6.56" y="229.1" class="st2">1/16</text></g><g id="shape4-8" transform="translate(126.12,-189.375)"><title>Square.4</title><rect width="36" height="36" x="0" y="207.495" class="st1"/></g><g id="shape5-10" transform="translate(162.12,-189.375)"><title>Square.5</title><rect width="36" height="36" x="0" y="207.495" class="st1"/></g><g id="shape6-12" transform="translate(18.12,-153.375)"><title>Square.6</title><rect width="36" height="36" x="0" y="207.495" class="st1"/></g><g id="shape7-14" transform="translate(54.12,-153.375)"><title>Square.7</title><rect width="36" height="36" x="0" y="207.495" class="st1"/></g><g id="shape8-16" transform="translate(90.12,-153.375)"><title>Square.8</title><desc>2/16</desc><rect width="36" height="36" x="0" y="207.495" class="st1"/><text x="6.56" y="229.1" class="st2">2/16</text></g><g id="shape9-19" transform="translate(126.12,-153.375)"><title>Square.9</title><rect width="36" height="36" x="0" y="207.495" class="st1"/></g><g id="shape10-21" transform="translate(162.12,-153.375)"><title>Square.10</title><rect width="36" height="36" x="0" y="207.495" class="st1"/></g><g id="shape11-23" transform="translate(18.12,-117.375)"><title>Square.11</title><desc>1/16</desc><rect width="36" height="36" x="0" y="207.495" class="st1"/><text x="6.56" y="229.1" class="st2">1/16</text></g><g id="shape12-26" transform="translate(54.12,-117.375)"><title>Square.12</title><desc>2/16</desc><rect width="36" height="36" x="0" y="207.495" class="st1"/><text x="6.56" y="229.1" class="st2">2/16</text></g><g id="shape13-29" transform="translate(90.12,-117.375)"><title>Square.13</title><rect width="36" height="36" x="0" y="207.495" class="st3"/></g><g id="shape14-31" transform="translate(126.12,-117.375)"><title>Square.14</title><desc>2/16</desc><rect width="36" height="36" x="0" y="207.495" class="st1"/><text x="6.56" y="229.1" class="st2">2/16</text></g><g id="shape15-34" transform="translate(162.12,-117.375)"><title>Square.15</title><desc>1/16</desc><rect width="36" height="36" x="0" y="207.495" class="st1"/><text x="6.56" y="229.1" class="st2">1/16</text></g><g id="shape16-37" transform="translate(18.12,-81.375)"><title>Square.16</title><rect width="36" height="36" x="0" y="207.495" class="st1"/></g><g id="shape17-39" transform="translate(54.12,-81.375)"><title>Square.17</title><rect width="36" height="36" x="0" y="207.495" class="st1"/></g><g id="shape18-41" transform="translate(90.12,-81.375)"><title>Square.18</title><desc>2/16</desc><rect width="36" height="36" x="0" y="207.495" class="st1"/><text x="6.56" y="229.1" class="st2">2/16</text></g><g id="shape19-44" transform="translate(126.12,-81.375)"><title>Square.19</title><rect width="36" height="36" x="0" y="207.495" class="st1"/></g><g id="shape20-46" transform="translate(162.12,-81.375)"><title>Square.20</title><rect width="36" height="36" x="0" y="207.495" class="st1"/></g><g id="shape21-48" transform="translate(18.12,-45.375)"><title>Square.21</title><rect width="36" height="36" x="0" y="207.495" class="st1"/></g><g id="shape22-50" transform="translate(54.12,-45.375)"><title>Square.22</title><rect width="36" height="36" x="0" y="207.495" class="st1"/></g><g id="shape23-52" transform="translate(90.12,-45.375)"><title>Square.23</title><desc>1/16</desc><rect width="36" height="36" x="0" y="207.495" class="st1"/><text x="6.56" y="229.1" class="st2">1/16</text></g><g id="shape24-55" transform="translate(126.12,-45.375)"><title>Square.24</title><rect width="36" height="36" x="0" y="207.495" class="st1"/></g><g id="shape25-57" transform="translate(162.12,-45.375)"><title>Square.25</title><rect width="36" height="36" x="0" y="207.495" class="st1"/></g><g id="shape30-59" transform="translate(216.12,-189.375)"><title>Square.30</title><rect width="36" height="36" x="0" y="207.495" class="st1"/></g><g id="shape31-61" transform="translate(252.12,-189.375)"><title>Square.31</title><rect width="36" height="36" x="0" y="207.495" class="st1"/></g><g id="shape32-63" transform="translate(288.12,-189.375)"><title>Square.32</title><rect width="36" height="36" x="0" y="207.495" class="st1"/></g><g id="shape33-65" transform="translate(324.12,-189.375)"><title>Square.33</title><desc>1/16</desc><rect width="36" height="36" x="0" y="207.495" class="st1"/><text x="6.56" y="229.1" class="st2">1/16</text></g><g id="shape34-68" transform="translate(360.12,-189.375)"><title>Square.34</title><rect width="36" height="36" x="0" y="207.495" class="st1"/></g><g id="shape35-70" transform="translate(216.12,-153.375)"><title>Square.35</title><desc>1/16</desc><rect width="36" height="36" x="0" y="207.495" class="st1"/><text x="6.56" y="229.1" class="st2">1/16</text></g><g id="shape36-73" transform="translate(252.12,-153.375)"><title>Square.36</title><rect width="36" height="36" x="0" y="207.495" class="st1"/></g><g id="shape37-75" transform="translate(288.12,-153.375)"><title>Square.37</title><desc>2/16</desc><rect width="36" height="36" x="0" y="207.495" class="st1"/><text x="6.56" y="229.1" class="st2">2/16</text></g><g id="shape38-78" transform="translate(324.12,-153.375)"><title>Square.38</title><rect width="36" height="36" x="0" y="207.495" class="st1"/></g><g id="shape39-80" transform="translate(360.12,-153.375)"><title>Square.39</title><rect width="36" height="36" x="0" y="207.495" class="st1"/></g><g id="shape40-82" transform="translate(216.12,-117.375)"><title>Square.40</title><rect width="36" height="36" x="0" y="207.495" class="st1"/></g><g id="shape41-84" transform="translate(252.12,-117.375)"><title>Square.41</title><desc>2/16</desc><rect width="36" height="36" x="0" y="207.495" class="st1"/><text x="6.56" y="229.1" class="st2">2/16</text></g><g id="shape42-87" transform="translate(288.12,-117.375)"><title>Square.42</title><rect width="36" height="36" x="0" y="207.495" class="st3"/></g><g id="shape43-89" transform="translate(324.12,-117.375)"><title>Square.43</title><desc>2/16</desc><rect width="36" height="36" x="0" y="207.495" class="st1"/><text x="6.56" y="229.1" class="st2">2/16</text></g><g id="shape44-92" transform="translate(360.12,-117.375)"><title>Square.44</title><rect width="36" height="36" x="0" y="207.495" class="st1"/></g><g id="shape45-94" transform="translate(216.12,-81.375)"><title>Square.45</title><rect width="36" height="36" x="0" y="207.495" class="st1"/></g><g id="shape46-96" transform="translate(252.12,-81.375)"><title>Square.46</title><rect width="36" height="36" x="0" y="207.495" class="st1"/></g><g id="shape47-98" transform="translate(288.12,-81.3749)"><title>Square.47</title><desc>2/16</desc><rect width="36" height="36" x="0" y="207.495" class="st1"/><text x="6.56" y="229.1" class="st2">2/16</text></g><g id="shape48-101" transform="translate(324.12,-81.3749)"><title>Square.48</title><rect width="36" height="36" x="0" y="207.495" class="st1"/></g><g id="shape49-103" transform="translate(360.12,-81.3749)"><title>Square.49</title><desc>1/16</desc><rect width="36" height="36" x="0" y="207.495" class="st1"/><text x="6.56" y="229.1" class="st2">1/16</text></g><g id="shape50-106" transform="translate(216.12,-45.375)"><title>Square.50</title><rect width="36" height="36" x="0" y="207.495" class="st1"/></g><g id="shape51-108" transform="translate(252.12,-45.375)"><title>Square.51</title><desc>1/16</desc><rect width="36" height="36" x="0" y="207.495" class="st1"/><text x="6.56" y="229.1" class="st2">1/16</text></g><g id="shape52-111" transform="translate(288.12,-45.375)"><title>Square.52</title><rect width="36" height="36" x="0" y="207.495" class="st1"/></g><g id="shape53-113" transform="translate(324.12,-45.375)"><title>Square.53</title><rect width="36" height="36" x="0" y="207.495" class="st1"/></g><g id="shape54-115" transform="translate(360.12,-45.375)"><title>Square.54</title><rect width="36" height="36" x="0" y="207.495" class="st1"/></g><g id="shape55-117" transform="translate(414.12,-189.375)"><title>Square.55</title><desc>1/16</desc><rect width="36" height="36" x="0" y="207.495" class="st1"/><text x="6.56" y="229.1" class="st2">1/16</text></g><g id="shape56-120" transform="translate(450.12,-189.375)"><title>Square.56</title><rect width="36" height="36" x="0" y="207.495" class="st1"/></g><g id="shape57-122" transform="translate(486.12,-189.375)"><title>Square.57</title><rect width="36" height="36" x="0" y="207.495" class="st1"/></g><g id="shape58-124" transform="translate(522.12,-189.375)"><title>Square.58</title><rect width="36" height="36" x="0" y="207.495" class="st1"/></g><g id="shape59-126" transform="translate(558.12,-189.375)"><title>Square.59</title><desc>1/16</desc><rect width="36" height="36" x="0" y="207.495" class="st1"/><text x="6.56" y="229.1" class="st2">1/16</text></g><g id="shape60-129" transform="translate(414.12,-153.375)"><title>Square.60</title><rect width="36" height="36" x="0" y="207.495" class="st1"/></g><g id="shape61-131" transform="translate(450.12,-153.375)"><title>Square.61</title><desc>2/16</desc><rect width="36" height="36" x="0" y="207.495" class="st1"/><text x="6.56" y="229.1" class="st2">2/16</text></g><g id="shape62-134" transform="translate(486.12,-153.375)"><title>Square.62</title><rect width="36" height="36" x="0" y="207.495" class="st1"/></g><g id="shape63-136" transform="translate(522.12,-153.375)"><title>Square.63</title><desc>2/16</desc><rect width="36" height="36" x="0" y="207.495" class="st1"/><text x="6.56" y="229.1" class="st2">2/16</text></g><g id="shape64-139" transform="translate(558.12,-153.375)"><title>Square.64</title><rect width="36" height="36" x="0" y="207.495" class="st1"/></g><g id="shape65-141" transform="translate(414.12,-117.375)"><title>Square.65</title><rect width="36" height="36" x="0" y="207.495" class="st1"/></g><g id="shape66-143" transform="translate(450.12,-117.375)"><title>Square.66</title><rect width="36" height="36" x="0" y="207.495" class="st1"/></g><g id="shape67-145" transform="translate(486.12,-117.375)"><title>Square.67</title><rect width="36" height="36" x="0" y="207.495" class="st3"/></g><g id="shape68-147" transform="translate(522.12,-117.375)"><title>Square.68</title><rect width="36" height="36" x="0" y="207.495" class="st1"/></g><g id="shape69-149" transform="translate(558.12,-117.375)"><title>Square.69</title><rect width="36" height="36" x="0" y="207.495" class="st1"/></g><g id="shape70-151" transform="translate(414.12,-81.375)"><title>Square.70</title><rect width="36" height="36" x="0" y="207.495" class="st1"/></g><g id="shape71-153" transform="translate(450.12,-81.375)"><title>Square.71</title><desc>2/16</desc><rect width="36" height="36" x="0" y="207.495" class="st1"/><text x="6.56" y="229.1" class="st2">2/16</text></g><g id="shape72-156" transform="translate(486.12,-81.3749)"><title>Square.72</title><rect width="36" height="36" x="0" y="207.495" class="st1"/></g><g id="shape73-158" transform="translate(522.12,-81.3749)"><title>Square.73</title><desc>2/16</desc><rect width="36" height="36" x="0" y="207.495" class="st1"/><text x="6.56" y="229.1" class="st2">2/16</text></g><g id="shape74-161" transform="translate(558.12,-81.3749)"><title>Square.74</title><rect width="36" height="36" x="0" y="207.495" class="st1"/></g><g id="shape75-163" transform="translate(414.12,-45.375)"><title>Square.75</title><desc>1/16</desc><rect width="36" height="36" x="0" y="207.495" class="st1"/><text x="6.56" y="229.1" class="st2">1/16</text></g><g id="shape76-166" transform="translate(450.12,-45.375)"><title>Square.76</title><rect width="36" height="36" x="0" y="207.495" class="st1"/></g><g id="shape77-168" transform="translate(486.12,-45.375)"><title>Square.77</title><rect width="36" height="36" x="0" y="207.495" class="st1"/></g><g id="shape78-170" transform="translate(522.12,-45.375)"><title>Square.78</title><rect width="36" height="36" x="0" y="207.495" class="st1"/></g><g id="shape79-172" transform="translate(558.12,-45.375)"><title>Square.79</title><desc>1/16</desc><rect width="36" height="36" x="0" y="207.495" class="st1"/><text x="6.56" y="229.1" class="st2">1/16</text></g><g id="shape80-175" transform="translate(612.12,-189.375)"><title>Square.80</title><rect width="36" height="36" x="0" y="207.495" class="st1"/></g><g id="shape81-177" transform="translate(648.12,-189.375)"><title>Square.81</title><desc>1/16</desc><rect width="36" height="36" x="0" y="207.495" class="st1"/><text x="6.56" y="229.1" class="st2">1/16</text></g><g id="shape82-180" transform="translate(684.12,-189.375)"><title>Square.82</title><rect width="36" height="36" x="0" y="207.495" class="st1"/></g><g id="shape83-182" transform="translate(720.12,-189.375)"><title>Square.83</title><rect width="36" height="36" x="0" y="207.495" class="st1"/></g><g id="shape84-184" transform="translate(756.12,-189.375)"><title>Square.84</title><rect width="36" height="36" x="0" y="207.495" class="st1"/></g><g id="shape85-186" transform="translate(612.12,-153.375)"><title>Square.85</title><rect width="36" height="36" x="0" y="207.495" class="st1"/></g><g id="shape86-188" transform="translate(648.12,-153.375)"><title>Square.86</title><rect width="36" height="36" x="0" y="207.495" class="st1"/></g><g id="shape87-190" transform="translate(684.12,-153.375)"><title>Square.87</title><desc>2/16</desc><rect width="36" height="36" x="0" y="207.495" class="st1"/><text x="6.56" y="229.1" class="st2">2/16</text></g><g id="shape88-193" transform="translate(720.12,-153.375)"><title>Square.88</title><rect width="36" height="36" x="0" y="207.495" class="st1"/></g><g id="shape89-195" transform="translate(756.12,-153.375)"><title>Square.89</title><desc>1/16</desc><rect width="36" height="36" x="0" y="207.495" class="st1"/><text x="6.56" y="229.1" class="st2">1/16</text></g><g id="shape90-198" transform="translate(612.12,-117.375)"><title>Square.90</title><rect width="36" height="36" x="0" y="207.495" class="st1"/></g><g id="shape91-200" transform="translate(648.12,-117.375)"><title>Square.91</title><desc>2/16</desc><rect width="36" height="36" x="0" y="207.495" class="st1"/><text x="6.56" y="229.1" class="st2">2/16</text></g><g id="shape92-203" transform="translate(684.12,-117.375)"><title>Square.92</title><rect width="36" height="36" x="0" y="207.495" class="st3"/></g><g id="shape93-205" transform="translate(720.12,-117.375)"><title>Square.93</title><desc>2/16</desc><rect width="36" height="36" x="0" y="207.495" class="st1"/><text x="6.56" y="229.1" class="st2">2/16</text></g><g id="shape94-208" transform="translate(756.12,-117.375)"><title>Square.94</title><rect width="36" height="36" x="0" y="207.495" class="st1"/></g><g id="shape95-210" transform="translate(612.12,-81.375)"><title>Square.95</title><desc>1/16</desc><rect width="36" height="36" x="0" y="207.495" class="st1"/><text x="6.56" y="229.1" class="st2">1/16</text></g><g id="shape96-213" transform="translate(648.12,-81.375)"><title>Square.96</title><rect width="36" height="36" x="0" y="207.495" class="st1"/></g><g id="shape97-215" transform="translate(684.12,-81.3749)"><title>Square.97</title><desc>2/16</desc><rect width="36" height="36" x="0" y="207.495" class="st1"/><text x="6.56" y="229.1" class="st2">2/16</text></g><g id="shape98-218" transform="translate(720.12,-81.3749)"><title>Square.98</title><rect width="36" height="36" x="0" y="207.495" class="st1"/></g><g id="shape99-220" transform="translate(756.12,-81.3749)"><title>Square.99</title><rect width="36" height="36" x="0" y="207.495" class="st1"/></g><g id="shape100-222" transform="translate(612.12,-45.375)"><title>Square.100</title><rect width="36" height="36" x="0" y="207.495" class="st1"/></g><g id="shape101-224" transform="translate(648.12,-45.375)"><title>Square.101</title><rect width="36" height="36" x="0" y="207.495" class="st1"/></g><g id="shape102-226" transform="translate(684.12,-45.375)"><title>Square.102</title><rect width="36" height="36" x="0" y="207.495" class="st1"/></g><g id="shape103-228" transform="translate(720.12,-45.375)"><title>Square.103</title><desc>1/16</desc><rect width="36" height="36" x="0" y="207.495" class="st1"/><text x="6.56" y="229.1" class="st2">1/16</text></g><g id="shape104-231" transform="translate(756.12,-45.375)"><title>Square.104</title><rect width="36" height="36" x="0" y="207.495" class="st1"/></g><g id="shape236-233" transform="translate(54.12,-18.375)"><title>Sheet.236</title><desc>d = 0, 4</desc><rect width="108" height="27" x="0" y="216.495" class="st4"/><text x="27.42" y="235.4" class="st5">d<tspan class="st6"> </tspan><tspan class="st6">= 0, 4</tspan></text></g><g id="shape237-238" transform="translate(252.12,-18.375)"><title>Sheet.237</title><desc>d = 1, 5</desc><rect width="108" height="27" x="0" y="216.495" class="st4"/><text x="27.42" y="235.4" class="st5">d<tspan class="st6"> </tspan><tspan class="st6">= 1, 5</tspan></text></g><g id="shape238-243" transform="translate(450.12,-18.375)"><title>Sheet.238</title><desc>d = 2, 6</desc><rect width="108" height="27" x="0" y="216.495" class="st4"/><text x="27.42" y="235.4" class="st5">d<tspan class="st6"> </tspan><tspan class="st6">= 2, 6</tspan></text></g><g id="shape239-248" transform="translate(648.12,-18.375)"><title>Sheet.239</title><desc>d = 3, 7</desc><rect width="108" height="27" x="0" y="216.495" class="st4"/><text x="27.42" y="235.4" class="st5">d<tspan class="st6"> </tspan><tspan class="st6">= 3, 7</tspan></text></g></g></svg>