<svg xmlns="http://www.w3.org/2000/svg" xmlns:xlink="http://www.w3.org/1999/xlink" viewBox="0 0 380.5 90.27"><defs><style>.cls-1,.cls-30{fill:none}.cls-2{fill:#ddebf7}.cls-3{clip-path:url(#clip-path)}.cls-17,.cls-18,.cls-4{font-size:12px}.cls-17,.cls-18,.cls-19,.cls-4{fill:#333}.cls-4{font-family:Calibri-Bold,Calibri;font-weight:700}.cls-5,.cls-6,.cls-7{letter-spacing:0}.cls-8{letter-spacing:.01em}.cls-9{letter-spacing:0}.cls-10{letter-spacing:.01em}.cls-11,.cls-12,.cls-13,.cls-14{letter-spacing:0}.cls-15{letter-spacing:.01em}.cls-16{clip-path:url(#clip-path-4)}.cls-17{font-family:Calibri,Calibri}.cls-18,.cls-19{font-family:Calibri-Italic,Calibri;font-style:italic}.cls-19{font-size:11.04px;font-family:SegoeUI-Italic,Segoe UI}.cls-20,.cls-21,.cls-22,.cls-23,.cls-24{letter-spacing:0}.cls-25{clip-path:url(#clip-path-8)}.cls-26{clip-path:url(#clip-path-12)}.cls-27,.cls-28{letter-spacing:0}.cls-29{clip-path:url(#clip-path-17)}.cls-30{stroke:#000;stroke-linecap:square;stroke-linejoin:round;stroke-width:.14px}</style><clipPath id="clip-path" transform="translate(-53.04 -30.24)"><rect width="431.98" height="22.92" x="1.92" y="31.68" class="cls-1"/></clipPath><clipPath id="clip-path-4" transform="translate(-53.04 -30.24)"><rect width="431.98" height="22.92" x="1.92" y="55.56" class="cls-1"/></clipPath><clipPath id="clip-path-8" transform="translate(-53.04 -30.24)"><rect width="431.98" height="22.92" x="1.92" y="79.44" class="cls-1"/></clipPath><clipPath id="clip-path-12" transform="translate(-53.04 -30.24)"><rect width="431.98" height="15.74" x="1.92" y="103.33" class="cls-1"/></clipPath><clipPath id="clip-path-17" transform="translate(-53.04 -30.24)"><rect width="435.94" height="673.9" class="cls-1"/></clipPath></defs><title>tx_cands_smallAsset 1</title><g id="Layer_2" data-name="Layer 2"><g id="Layer_1-2" data-name="Layer 1"><rect width="380.5" height="24" y=".96" class="cls-2"/><g class="cls-3"><text class="cls-4" transform="translate(8.66 16.92)"><tspan class="cls-5">M</tspan><tspan x="10.44" y="0" class="cls-6">i</tspan><tspan x="13.42" y="0" class="cls-7">n</tspan><tspan x="19.89" y="0">(w</tspan><tspan x="32.57" y="0" class="cls-8">i</tspan><tspan x="35.59" y="0" class="cls-9">d</tspan><tspan x="42.05" y="0">t</tspan><tspan x="46.21" y="0" class="cls-10">h</tspan><tspan x="52.71" y="0">,</tspan><tspan x="55.8" y="0" class="cls-11"> </tspan><tspan x="58.56" y="0" class="cls-7">h</tspan><tspan x="65.03" y="0" class="cls-12">e</tspan><tspan x="71.03" y="0" class="cls-13">i</tspan><tspan x="74.02" y="0" class="cls-14">g</tspan><tspan x="79.66" y="0" class="cls-9">h</tspan><tspan x="86.12" y="0">t)</tspan></text></g><g class="cls-3"><text class="cls-4" transform="translate(159.77 16.92)"><tspan class="cls-9">In</tspan><tspan x="9.69" y="0">t</tspan><tspan x="13.85" y="0" class="cls-15">r</tspan><tspan x="18.18" y="0">a</tspan></text></g><g class="cls-3"><text class="cls-4" transform="translate(294.19 16.92)"><tspan class="cls-7">In</tspan><tspan x="9.69" y="0">ter</tspan></text></g><g class="cls-16"><text class="cls-17" transform="translate(52.7 40.8)">4</text></g><g class="cls-16"><text class="cls-18" transform="translate(122.57 40.8)"><tspan class="cls-13">D</tspan><tspan x="7.42" y="0">T</tspan><tspan x="13.27" y="0" class="cls-11">T</tspan><tspan x="19.16" y="0">4,</tspan></text></g><g class="cls-16"><text class="cls-19" transform="translate(155.93 40.8)"><tspan class="cls-20">I</tspan><tspan x="2.88" y="0" class="cls-21">D</tspan><tspan x="10.7" y="0" class="cls-22">TX</tspan><tspan x="22.96" y="0">,</tspan><tspan x="25.36" y="0" class="cls-23"> </tspan><tspan x="28.37" y="0" class="cls-24">1</tspan><tspan x="34.34" y="0" class="cls-21">DD</tspan><tspan x="49.97" y="0">CT</tspan></text></g><g class="cls-16"><text class="cls-18" transform="translate(290.59 40.8)">ALL<tspan x="17.03" y="0" class="cls-13">1</tspan><tspan x="23.15" y="0">6</tspan></text></g><g class="cls-25"><text class="cls-17" transform="translate(52.7 64.68)">8</text></g><g class="cls-25"><text class="cls-18" transform="translate(122.57 64.68)"><tspan class="cls-13">D</tspan><tspan x="7.42" y="0">T</tspan><tspan x="13.27" y="0" class="cls-11">T</tspan><tspan x="19.16" y="0">4,</tspan></text></g><g class="cls-25"><text class="cls-19" transform="translate(155.93 64.68)"><tspan class="cls-20">I</tspan><tspan x="2.88" y="0" class="cls-21">D</tspan><tspan x="10.7" y="0" class="cls-22">TX</tspan><tspan x="22.96" y="0">,</tspan><tspan x="25.36" y="0" class="cls-23"> </tspan><tspan x="28.37" y="0" class="cls-24">1</tspan><tspan x="34.34" y="0" class="cls-21">DD</tspan><tspan x="49.97" y="0">CT</tspan></text></g><g class="cls-25"><text class="cls-18" transform="translate(290.59 64.68)">ALL<tspan x="17.03" y="0" class="cls-13">1</tspan><tspan x="23.15" y="0">6</tspan></text></g><g class="cls-26"><text class="cls-17" transform="translate(49.58 84.99)"><tspan class="cls-13">1</tspan><tspan x="6.12" y="0">6</tspan></text></g><g class="cls-26"><text class="cls-18" transform="translate(142.49 84.99)"><tspan class="cls-13">D</tspan><tspan x="7.42" y="0">T</tspan><tspan x="13.27" y="0" class="cls-11">T</tspan><tspan x="19.16" y="0">4,</tspan></text></g><g class="cls-26"><text class="cls-19" transform="translate(175.85 84.99)"><tspan class="cls-20">IDT</tspan><tspan x="16.44" y="0">X</tspan></text></g><g class="cls-26"><text class="cls-18" transform="translate(257.11 84.99)"><tspan class="cls-13">D</tspan><tspan x="7.42" y="0">T</tspan><tspan x="13.27" y="0" class="cls-11">T</tspan><tspan x="19.16" y="0">9,</tspan></text></g><g class="cls-26"><text class="cls-19" transform="translate(290.47 84.99)"><tspan class="cls-27">I</tspan><tspan x="2.88" y="0" class="cls-21">D</tspan><tspan x="10.7" y="0" class="cls-22">TX</tspan><tspan x="22.96" y="0">,</tspan><tspan x="25.36" y="0" class="cls-22"> </tspan><tspan x="28.37" y="0" class="cls-28">1</tspan><tspan x="34.34" y="0" class="cls-21">DD</tspan><tspan x="49.97" y="0">CT</tspan></text></g><g class="cls-29"><line x1="110.84" x2="110.84" y1="1.98" y2="23.82" class="cls-30"/><rect width=".96" height="21.96" x="110.78" y="1.92"/><line x1="231.73" x2="231.73" y1="1.98" y2="23.82" class="cls-30"/><rect width=".96" height="21.96" x="231.67" y="1.92"/><line x1="110.84" x2="110.84" y1="25.86" y2="88.29" class="cls-30"/><rect width=".96" height="62.54" x="110.78" y="25.81"/><line x1="231.73" x2="231.73" y1="25.86" y2="88.29" class="cls-30"/><rect width=".96" height="62.54" x="231.67" y="25.81"/><rect width="380.5" height="1.92"/><rect width="380.5" height="1.92" y="23.88"/><rect width="380.5" height="1.92" y="88.35"/></g></g></g></svg>