<svg xmlns="http://www.w3.org/2000/svg" xmlns:xlink="http://www.w3.org/1999/xlink" viewBox="0 0 324.79 73.56"><defs><style>.cls-1,.cls-22{fill:none}.cls-2{fill:#ddebf7}.cls-3{clip-path:url(#clip-path)}.cls-16,.cls-17,.cls-4{font-size:12px;fill:#333}.cls-4{font-family:Calibri-Bold,Calibri;font-weight:700}.cls-5,.cls-6,.cls-7,.cls-8{letter-spacing:0}.cls-9{letter-spacing:.01em}.cls-10,.cls-11,.cls-12{letter-spacing:0}.cls-13{letter-spacing:.01em}.cls-14{letter-spacing:0}.cls-15{clip-path:url(#clip-path-4)}.cls-16{font-family:Calibri,Calibri}.cls-17{font-family:Calibri-Italic,Calibri;font-style:italic}.cls-18,.cls-19{letter-spacing:0}.cls-20{clip-path:url(#clip-path-7)}.cls-21{clip-path:url(#clip-path-10)}.cls-22{stroke:#000;stroke-linecap:square;stroke-linejoin:round;stroke-width:.14px}</style><clipPath id="clip-path" transform="translate(-53.04 -30.24)"><rect width="376.27" height="22.92" x="1.92" y="31.68" class="cls-1"/></clipPath><clipPath id="clip-path-4" transform="translate(-53.04 -30.24)"><rect width="376.27" height="22.92" x="1.92" y="55.56" class="cls-1"/></clipPath><clipPath id="clip-path-7" transform="translate(-53.04 -30.24)"><rect width="376.27" height="22.92" x="1.92" y="79.44" class="cls-1"/></clipPath><clipPath id="clip-path-10" transform="translate(-53.04 -30.24)"><rect width="380.26" height="105.36" class="cls-1"/></clipPath></defs><title>tables2Asset 1</title><g id="Layer_2" data-name="Layer 2"><g id="Layer_1-2" data-name="Layer 1"><rect width="324.79" height="24" y=".96" class="cls-2"/><g class="cls-3"><text class="cls-4" transform="translate(11.3 16.92)"><tspan class="cls-5">M</tspan><tspan x="10.44" y="0" class="cls-6">a</tspan><tspan x="16.33" y="0">x(</tspan><tspan x="25.58" y="0" class="cls-7">w</tspan><tspan x="34.55" y="0" class="cls-8">i</tspan><tspan x="37.53" y="0" class="cls-7">d</tspan><tspan x="43.99" y="0">t</tspan><tspan x="48.15" y="0" class="cls-9">h</tspan><tspan x="54.65" y="0">,</tspan><tspan x="57.75" y="0" class="cls-10"> </tspan><tspan x="60.51" y="0" class="cls-7">h</tspan><tspan x="66.97" y="0" class="cls-11">e</tspan><tspan x="72.98" y="0" class="cls-12">i</tspan><tspan x="75.96" y="0" class="cls-5">g</tspan><tspan x="81.6" y="0" class="cls-7">h</tspan><tspan x="88.06" y="0">t)</tspan></text></g><g class="cls-3"><text class="cls-4" transform="translate(158.09 16.92)"><tspan class="cls-7">In</tspan><tspan x="9.69" y="0">t</tspan><tspan x="13.85" y="0" class="cls-13">r</tspan><tspan x="18.18" y="0">a</tspan></text></g><g class="cls-3"><text class="cls-4" transform="translate(261.07 16.92)"><tspan class="cls-14">In</tspan><tspan x="9.69" y="0">ter</tspan></text></g><g class="cls-15"><text class="cls-16" transform="translate(53.18 40.8)"><tspan class="cls-8">3</tspan><tspan x="6.12" y="0">2</tspan></text></g><g class="cls-15"><text class="cls-17" transform="translate(148.13 40.8)"><tspan class="cls-8">D</tspan><tspan x="7.42" y="0">CT</tspan><tspan x="19.54" y="0" class="cls-6">O</tspan><tspan x="27.35" y="0" class="cls-5">n</tspan><tspan x="33.47" y="0">ly</tspan></text></g><g class="cls-15"><text class="cls-17" transform="translate(235.75 40.8)"><tspan class="cls-8">D</tspan><tspan x="7.42" y="0">CT</tspan><tspan x="19.54" y="0" class="cls-6">O</tspan><tspan x="27.35" y="0" class="cls-5">n</tspan><tspan x="33.47" y="0">l</tspan><tspan x="36.23" y="0" class="cls-18">y</tspan><tspan x="41.61" y="0">,</tspan><tspan x="44.6" y="0" class="cls-14" xml:space="preserve"> </tspan><tspan x="50.07" y="0">I</tspan><tspan x="53.1" y="0" class="cls-19">D</tspan><tspan x="60.49" y="0">TX</tspan></text></g><g class="cls-20"><text class="cls-16" transform="translate(53.18 64.68)"><tspan class="cls-8">6</tspan><tspan x="6.12" y="0">4</tspan></text></g><g class="cls-20"><text class="cls-17" transform="translate(148.13 64.68)"><tspan class="cls-8">D</tspan><tspan x="7.42" y="0">CT</tspan><tspan x="19.54" y="0" class="cls-6">O</tspan><tspan x="27.35" y="0" class="cls-5">n</tspan><tspan x="33.47" y="0">ly</tspan></text></g><g class="cls-20"><text class="cls-17" transform="translate(251.23 64.68)"><tspan class="cls-8">D</tspan><tspan x="7.42" y="0">CT</tspan><tspan x="19.54" y="0" class="cls-6">O</tspan><tspan x="27.35" y="0" class="cls-5">n</tspan><tspan x="33.47" y="0">ly</tspan></text></g><g class="cls-21"><line x1="118.07" x2="118.07" y1="1.98" y2="23.82" class="cls-22"/><rect width=".96" height="21.96" x="118.01" y="1.92"/><line x1="221.17" x2="221.17" y1="1.98" y2="23.82" class="cls-22"/><rect width=".96" height="21.96" x="221.11" y="1.92"/><line x1="118.07" x2="118.07" y1="25.86" y2="71.58" class="cls-22"/><rect width=".96" height="45.84" x="118.01" y="25.8"/><line x1="221.17" x2="221.17" y1="25.86" y2="71.58" class="cls-22"/><rect width=".96" height="45.84" x="221.11" y="25.8"/><rect width="324.79" height="1.92"/><rect width="324.79" height="1.92" y="23.88"/><rect width="324.79" height="1.92" y="71.64"/></g></g></g></svg>