<svg xmlns="http://www.w3.org/2000/svg" xmlns:xlink="http://www.w3.org/1999/xlink" viewBox="0 0 380.5 244.23"><defs><style>.cls-1,.cls-41{fill:none}.cls-2{fill:#ddebf7}.cls-3{clip-path:url(#clip-path)}.cls-4{font-size:12px;font-family:Calibri-Bold,Calibri;font-weight:700}.cls-19,.cls-4{fill:#333}.cls-5{letter-spacing:0}.cls-6{letter-spacing:.01em}.cls-10,.cls-11,.cls-7,.cls-8,.cls-9{letter-spacing:0}.cls-12{clip-path:url(#clip-path-3)}.cls-13,.cls-14,.cls-15,.cls-16{letter-spacing:0}.cls-17{letter-spacing:.01em}.cls-18{clip-path:url(#clip-path-5)}.cls-19{font-size:11.04px;font-family:SegoeUI-Italic,Segoe UI;font-style:italic}.cls-20,.cls-21{letter-spacing:0}.cls-22{clip-path:url(#clip-path-8)}.cls-23{letter-spacing:0}.cls-24{letter-spacing:-.01em}.cls-25{clip-path:url(#clip-path-11)}.cls-26,.cls-27{letter-spacing:0}.cls-28{clip-path:url(#clip-path-14)}.cls-29,.cls-30{letter-spacing:0}.cls-31{clip-path:url(#clip-path-17)}.cls-32{clip-path:url(#clip-path-20)}.cls-33{clip-path:url(#clip-path-23)}.cls-34{clip-path:url(#clip-path-26)}.cls-35{clip-path:url(#clip-path-29)}.cls-36{clip-path:url(#clip-path-32)}.cls-37{clip-path:url(#clip-path-35)}.cls-38{clip-path:url(#clip-path-38)}.cls-39{clip-path:url(#clip-path-41)}.cls-40{clip-path:url(#clip-path-44)}.cls-41{stroke:#000;stroke-linecap:square;stroke-linejoin:round;stroke-width:.14px}</style><clipPath id="clip-path" transform="translate(-53.04 -15.71)"><rect width="110.3" height="30.24" x="53.52" y="17.15" class="cls-1"/></clipPath><clipPath id="clip-path-3" transform="translate(-53.04 -15.71)"><rect width="431.98" height="30.24" x="1.92" y="17.15" class="cls-1"/></clipPath><clipPath id="clip-path-5" transform="translate(-53.04 -15.71)"><rect width="431.98" height="15" x="1.92" y="48.35" class="cls-1"/></clipPath><clipPath id="clip-path-8" transform="translate(-53.04 -15.71)"><rect width="431.98" height="15" x="1.92" y="64.31" class="cls-1"/></clipPath><clipPath id="clip-path-11" transform="translate(-53.04 -15.71)"><rect width="431.98" height="15" x="1.92" y="80.27" class="cls-1"/></clipPath><clipPath id="clip-path-14" transform="translate(-53.04 -15.71)"><rect width="431.98" height="15" x="1.92" y="96.23" class="cls-1"/></clipPath><clipPath id="clip-path-17" transform="translate(-53.04 -15.71)"><rect width="431.98" height="15.02" x="1.92" y="112.2" class="cls-1"/></clipPath><clipPath id="clip-path-20" transform="translate(-53.04 -15.71)"><rect width="431.98" height="15" x="1.92" y="128.18" class="cls-1"/></clipPath><clipPath id="clip-path-23" transform="translate(-53.04 -15.71)"><rect width="431.98" height="15" x="1.92" y="144.14" class="cls-1"/></clipPath><clipPath id="clip-path-26" transform="translate(-53.04 -15.71)"><rect width="431.98" height="15" x="1.92" y="160.1" class="cls-1"/></clipPath><clipPath id="clip-path-29" transform="translate(-53.04 -15.71)"><rect width="431.98" height="15" x="1.92" y="176.06" class="cls-1"/></clipPath><clipPath id="clip-path-32" transform="translate(-53.04 -15.71)"><rect width="431.98" height="15" x="1.92" y="192.02" class="cls-1"/></clipPath><clipPath id="clip-path-35" transform="translate(-53.04 -15.71)"><rect width="431.98" height="15" x="1.92" y="207.98" class="cls-1"/></clipPath><clipPath id="clip-path-38" transform="translate(-53.04 -15.71)"><rect width="431.98" height="17.88" x="1.92" y="223.94" class="cls-1"/></clipPath><clipPath id="clip-path-41" transform="translate(-53.04 -15.71)"><rect width="431.98" height="15.72" x="1.92" y="242.78" class="cls-1"/></clipPath><clipPath id="clip-path-44" transform="translate(-53.04 -15.71)"><rect width="435.94" height="567.07" class="cls-1"/></clipPath></defs><title>tx_chromaAsset 1</title><g id="Layer_2" data-name="Layer 2"><g id="Layer_1-2" data-name="Layer 1"><rect width="380.5" height="31.32" y=".96" class="cls-2"/><g class="cls-3"><text class="cls-4" transform="translate(16.58 12.84)"><tspan class="cls-5">In</tspan><tspan x="9.69" y="0">t</tspan><tspan x="13.85" y="0" class="cls-6">r</tspan><tspan x="18.18" y="0" class="cls-7">a</tspan><tspan x="24.07" y="0" class="cls-5"> </tspan><tspan x="26.81" y="0">P</tspan><tspan x="33.2" y="0" class="cls-8">r</tspan><tspan x="37.47" y="0" class="cls-7">e</tspan><tspan x="43.48" y="0" class="cls-5">d</tspan><tspan x="49.94" y="0" class="cls-9">i</tspan><tspan x="52.93" y="0">c</tspan><tspan x="57.95" y="0" class="cls-9">ti</tspan><tspan x="65.01" y="0">o</tspan><tspan x="71.46" y="0" class="cls-10">n</tspan></text></g><g class="cls-3"><text class="cls-4" transform="translate(41.06 28.44)"><tspan class="cls-11">M</tspan><tspan x="10.44" y="0">o</tspan><tspan x="16.89" y="0" class="cls-10">d</tspan><tspan x="23.38" y="0">e</tspan></text></g><g class="cls-12"><text class="cls-4" transform="translate(126.17 20.64)">V<tspan x="7.1" y="0" class="cls-11">e</tspan><tspan x="13.09" y="0" class="cls-13">r</tspan><tspan x="17.39" y="0" class="cls-6">ti</tspan><tspan x="24.49" y="0">cal</tspan><tspan x="38.38" y="0" class="cls-10"> </tspan><tspan x="41.14" y="0">t</tspan><tspan x="45.3" y="0" class="cls-6">r</tspan><tspan x="49.64" y="0" class="cls-7">a</tspan><tspan x="55.53" y="0" class="cls-5">n</tspan><tspan x="61.99" y="0">s</tspan><tspan x="66.78" y="0" class="cls-9">f</tspan><tspan x="70.61" y="0">o</tspan><tspan x="77.06" y="0" class="cls-14">r</tspan><tspan x="81.39" y="0">m</tspan></text></g><g class="cls-12"><text class="cls-4" transform="translate(253.87 20.64)">Ho<tspan x="14.02" y="0" class="cls-10">r</tspan><tspan x="18.33" y="0" class="cls-9">i</tspan><tspan x="21.32" y="0">z</tspan><tspan x="26.09" y="0" class="cls-10">o</tspan><tspan x="32.59" y="0" class="cls-15">n</tspan><tspan x="39.05" y="0">tal</tspan><tspan x="52.08" y="0" class="cls-14"> </tspan><tspan x="54.85" y="0">t</tspan><tspan x="59.01" y="0" class="cls-6">r</tspan><tspan x="63.35" y="0" class="cls-7">a</tspan><tspan x="69.24" y="0" class="cls-15">n</tspan><tspan x="75.7" y="0">s</tspan><tspan x="80.49" y="0" class="cls-16">f</tspan><tspan x="84.32" y="0">o</tspan><tspan x="90.77" y="0" class="cls-17">r</tspan><tspan x="95.1" y="0">m</tspan></text></g><g class="cls-18"><text class="cls-19" transform="translate(9.62 44.28)"><tspan class="cls-20">D</tspan><tspan x="7.82" y="0">C_P</tspan><tspan x="25.8" y="0" class="cls-21">R</tspan><tspan x="32.27" y="0">ED</tspan></text></g><g class="cls-18"><text class="cls-19" transform="translate(160.37 44.28)"><tspan class="cls-20">D</tspan><tspan x="7.82" y="0">CT</tspan></text></g><g class="cls-18"><text class="cls-19" transform="translate(294.91 44.28)"><tspan class="cls-20">D</tspan><tspan x="7.82" y="0">CT</tspan></text></g><g class="cls-22"><text class="cls-19" transform="translate(9.62 60.24)">V_P<tspan x="17.86" y="0" class="cls-23">R</tspan><tspan x="24.35" y="0">ED</tspan></text></g><g class="cls-22"><text class="cls-19" transform="translate(157.61 60.24)">A<tspan x="6.98" y="0" class="cls-24">D</tspan><tspan x="14.77" y="0">ST</tspan></text></g><g class="cls-22"><text class="cls-19" transform="translate(294.91 60.24)"><tspan class="cls-20">D</tspan><tspan x="7.82" y="0">CT</tspan></text></g><g class="cls-25"><text class="cls-19" transform="translate(9.62 76.2)">H<tspan x="7.82" y="0" class="cls-26">_</tspan><tspan x="12.37" y="0">P</tspan><tspan x="18.72" y="0" class="cls-21">R</tspan><tspan x="25.19" y="0">ED</tspan></text></g><g class="cls-25"><text class="cls-19" transform="translate(160.37 76.2)"><tspan class="cls-20">D</tspan><tspan x="7.82" y="0">CT</tspan></text></g><g class="cls-25"><text class="cls-19" transform="translate(292.15 76.2)">A<tspan x="6.98" y="0" class="cls-24">D</tspan><tspan x="14.77" y="0" class="cls-27">ST</tspan></text></g><g class="cls-28"><text class="cls-19" transform="translate(9.62 92.16)"><tspan class="cls-20">D</tspan><tspan x="7.82" y="0" class="cls-29">45</tspan><tspan x="19.76" y="0">_P</tspan><tspan x="30.69" y="0" class="cls-30">R</tspan><tspan x="37.14" y="0">ED</tspan></text></g><g class="cls-28"><text class="cls-19" transform="translate(160.37 92.16)"><tspan class="cls-20">D</tspan><tspan x="7.82" y="0">CT</tspan></text></g><g class="cls-28"><text class="cls-19" transform="translate(294.91 92.16)"><tspan class="cls-20">D</tspan><tspan x="7.82" y="0">CT</tspan></text></g><g class="cls-31"><text class="cls-19" transform="translate(9.62 108.15)"><tspan class="cls-20">D</tspan><tspan x="7.82" y="0" class="cls-29">135</tspan><tspan x="25.74" y="0">_P</tspan><tspan x="36.67" y="0" class="cls-29">R</tspan><tspan x="43.12" y="0">ED</tspan></text></g><g class="cls-31"><text class="cls-19" transform="translate(157.61 108.15)">A<tspan x="6.98" y="0" class="cls-24">D</tspan><tspan x="14.77" y="0">ST</tspan></text></g><g class="cls-31"><text class="cls-19" transform="translate(292.15 108.15)">A<tspan x="6.98" y="0" class="cls-24">D</tspan><tspan x="14.77" y="0" class="cls-27">ST</tspan></text></g><g class="cls-32"><text class="cls-19" transform="translate(9.62 124.11)"><tspan class="cls-20">D</tspan><tspan x="7.82" y="0" class="cls-29">113</tspan><tspan x="25.74" y="0">_P</tspan><tspan x="36.67" y="0" class="cls-29">R</tspan><tspan x="43.12" y="0">ED</tspan></text></g><g class="cls-32"><text class="cls-19" transform="translate(157.61 124.11)">A<tspan x="6.98" y="0" class="cls-24">D</tspan><tspan x="14.77" y="0">ST</tspan></text></g><g class="cls-32"><text class="cls-19" transform="translate(294.91 124.11)"><tspan class="cls-20">D</tspan><tspan x="7.82" y="0">CT</tspan></text></g><g class="cls-33"><text class="cls-19" transform="translate(9.62 140.07)"><tspan class="cls-20">D</tspan><tspan x="7.82" y="0" class="cls-29">157</tspan><tspan x="25.74" y="0">_P</tspan><tspan x="36.67" y="0" class="cls-29">R</tspan><tspan x="43.12" y="0">ED</tspan></text></g><g class="cls-33"><text class="cls-19" transform="translate(160.37 140.07)"><tspan class="cls-20">D</tspan><tspan x="7.82" y="0">CT</tspan></text></g><g class="cls-33"><text class="cls-19" transform="translate(292.15 140.07)">A<tspan x="6.98" y="0" class="cls-24">D</tspan><tspan x="14.77" y="0" class="cls-27">ST</tspan></text></g><g class="cls-34"><text class="cls-19" transform="translate(9.62 156.03)"><tspan class="cls-20">D</tspan><tspan x="7.82" y="0" class="cls-29">203</tspan><tspan x="25.74" y="0">_P</tspan><tspan x="36.67" y="0" class="cls-29">R</tspan><tspan x="43.12" y="0">ED</tspan></text></g><g class="cls-34"><text class="cls-19" transform="translate(160.37 156.03)"><tspan class="cls-20">D</tspan><tspan x="7.82" y="0">CT</tspan></text></g><g class="cls-34"><text class="cls-19" transform="translate(292.15 156.03)">A<tspan x="6.98" y="0" class="cls-24">D</tspan><tspan x="14.77" y="0" class="cls-27">ST</tspan></text></g><g class="cls-35"><text class="cls-19" transform="translate(9.62 171.99)"><tspan class="cls-20">D</tspan><tspan x="7.82" y="0" class="cls-29">67</tspan><tspan x="19.76" y="0">_P</tspan><tspan x="30.69" y="0" class="cls-30">R</tspan><tspan x="37.14" y="0">ED</tspan></text></g><g class="cls-35"><text class="cls-19" transform="translate(157.61 171.99)">A<tspan x="6.98" y="0" class="cls-24">D</tspan><tspan x="14.77" y="0">ST</tspan></text></g><g class="cls-35"><text class="cls-19" transform="translate(294.91 171.99)"><tspan class="cls-20">D</tspan><tspan x="7.82" y="0">CT</tspan></text></g><g class="cls-36"><text class="cls-19" transform="translate(9.62 187.95)">SM<tspan x="14.52" y="0" class="cls-26">OOT</tspan><tspan x="36.87" y="0">H</tspan><tspan x="44.69" y="0" class="cls-26">_</tspan><tspan x="49.23" y="0">P</tspan><tspan x="55.58" y="0" class="cls-21">R</tspan><tspan x="62.05" y="0">ED</tspan></text></g><g class="cls-36"><text class="cls-19" transform="translate(157.61 187.95)">A<tspan x="6.98" y="0" class="cls-24">D</tspan><tspan x="14.77" y="0">ST</tspan></text></g><g class="cls-36"><text class="cls-19" transform="translate(292.15 187.95)">A<tspan x="6.98" y="0" class="cls-24">D</tspan><tspan x="14.77" y="0" class="cls-27">ST</tspan></text></g><g class="cls-37"><text class="cls-19" transform="translate(9.62 203.91)">SM<tspan x="14.52" y="0" class="cls-26">OOT</tspan><tspan x="36.87" y="0">H</tspan><tspan x="44.69" y="0" class="cls-26">_</tspan><tspan x="49.23" y="0">V_P</tspan><tspan x="67.1" y="0" class="cls-23">R</tspan><tspan x="73.58" y="0">ED</tspan></text></g><g class="cls-37"><text class="cls-19" transform="translate(157.61 203.91)">A<tspan x="6.98" y="0" class="cls-24">D</tspan><tspan x="14.77" y="0">ST</tspan></text></g><g class="cls-37"><text class="cls-19" transform="translate(294.91 203.91)"><tspan class="cls-20">D</tspan><tspan x="7.82" y="0">CT</tspan></text></g><g class="cls-38"><text class="cls-19" transform="translate(9.62 221.19)">SM<tspan x="14.52" y="0" class="cls-26">OOT</tspan><tspan x="36.87" y="0">H</tspan><tspan x="44.69" y="0" class="cls-26">_</tspan><tspan x="49.23" y="0">H</tspan><tspan x="57.05" y="0" class="cls-26">_</tspan><tspan x="61.6" y="0">P</tspan><tspan x="67.95" y="0" class="cls-21">R</tspan><tspan x="74.42" y="0">ED</tspan></text></g><g class="cls-38"><text class="cls-19" transform="translate(160.37 221.19)"><tspan class="cls-20">D</tspan><tspan x="7.82" y="0">CT</tspan></text></g><g class="cls-38"><text class="cls-19" transform="translate(292.15 221.19)">A<tspan x="6.98" y="0" class="cls-24">D</tspan><tspan x="14.77" y="0" class="cls-27">ST</tspan></text></g><g class="cls-39"><text class="cls-19" transform="translate(9.62 238.95)">PAE<tspan x="18.83" y="0" class="cls-26">T</tspan><tspan x="24.61" y="0">H</tspan><tspan x="32.42" y="0" class="cls-26">_</tspan><tspan x="36.97" y="0">P</tspan><tspan x="43.32" y="0" class="cls-21">R</tspan><tspan x="49.79" y="0">ED</tspan></text></g><g class="cls-39"><text class="cls-19" transform="translate(157.61 238.95)">A<tspan x="6.98" y="0" class="cls-24">D</tspan><tspan x="14.77" y="0">ST</tspan></text></g><g class="cls-39"><text class="cls-19" transform="translate(292.15 238.95)">A<tspan x="6.98" y="0" class="cls-24">D</tspan><tspan x="14.77" y="0" class="cls-27">ST</tspan></text></g><g class="cls-40"><line x1="110.84" x2="110.84" y1="1.98" y2="31.14" class="cls-41"/><rect width=".96" height="29.28" x="110.78" y="1.92"/><line x1="231.73" x2="231.73" y1="1.98" y2="31.14" class="cls-41"/><rect width=".96" height="29.28" x="231.67" y="1.92"/><line x1="110.84" x2="110.84" y1="33.18" y2="242.25" class="cls-41"/><rect width=".96" height="209.18" x="110.78" y="33.13"/><line x1="231.73" x2="231.73" y1="33.18" y2="242.25" class="cls-41"/><rect width=".96" height="209.18" x="231.67" y="33.13"/><rect width="380.5" height="1.92"/><rect width="380.5" height="1.92" y="31.2"/><rect width="380.5" height="1.92" y="242.31"/></g></g></g></svg>