<svg xmlns="http://www.w3.org/2000/svg" xmlns:xlink="http://www.w3.org/1999/xlink" viewBox="0 0 172.61 310.73"><defs><style>.cls-1,.cls-38{fill:none}.cls-2{clip-path:url(#clip-path)}.cls-3{fill:#ddebf7}.cls-4{clip-path:url(#clip-path-2)}.cls-5{font-size:11.04px;font-family:Calibri,Calibri}.cls-10,.cls-11,.cls-6,.cls-7,.cls-8,.cls-9{letter-spacing:0}.cls-12{clip-path:url(#clip-path-4)}.cls-13,.cls-14{letter-spacing:0}.cls-15{letter-spacing:.01em}.cls-16{letter-spacing:0}.cls-17{clip-path:url(#clip-path-8)}.cls-18{clip-path:url(#clip-path-10)}.cls-19{letter-spacing:.01em}.cls-20{clip-path:url(#clip-path-12)}.cls-21{clip-path:url(#clip-path-14)}.cls-22{clip-path:url(#clip-path-16)}.cls-23{clip-path:url(#clip-path-18)}.cls-24{clip-path:url(#clip-path-20)}.cls-25{letter-spacing:.01em}.cls-26{clip-path:url(#clip-path-22)}.cls-27{clip-path:url(#clip-path-24)}.cls-28{clip-path:url(#clip-path-26)}.cls-29{clip-path:url(#clip-path-28)}.cls-30{clip-path:url(#clip-path-30)}.cls-31{clip-path:url(#clip-path-32)}.cls-32{clip-path:url(#clip-path-34)}.cls-33{clip-path:url(#clip-path-36)}.cls-34{clip-path:url(#clip-path-38)}.cls-35{clip-path:url(#clip-path-40)}.cls-36{clip-path:url(#clip-path-42)}.cls-37{clip-path:url(#clip-path-44)}.cls-38{stroke:#000;stroke-linecap:square;stroke-linejoin:round;stroke-width:.14px}</style><clipPath id="clip-path" transform="translate(-1.44 -15.24)"><rect width="172.49" height="323.09" x="1.92" y="1.92" class="cls-1"/></clipPath><clipPath id="clip-path-2" transform="translate(-1.44 -15.24)"><rect width="86.9" height="29.52" x="1.92" y="17.16" class="cls-1"/></clipPath><clipPath id="clip-path-4" transform="translate(-1.44 -15.24)"><rect width="83.66" height="29.52" x="89.78" y="17.16" class="cls-1"/></clipPath><clipPath id="clip-path-8" transform="translate(-1.44 -15.24)"><rect width="172.49" height="13.56" x="1.92" y="62.88" class="cls-1"/></clipPath><clipPath id="clip-path-10" transform="translate(-1.44 -15.24)"><rect width="172.49" height="13.56" x="1.92" y="77.4" class="cls-1"/></clipPath><clipPath id="clip-path-12" transform="translate(-1.44 -15.24)"><rect width="172.49" height="13.56" x="1.92" y="91.92" class="cls-1"/></clipPath><clipPath id="clip-path-14" transform="translate(-1.44 -15.24)"><rect width="172.49" height="13.58" x="1.92" y="106.45" class="cls-1"/></clipPath><clipPath id="clip-path-16" transform="translate(-1.44 -15.24)"><rect width="172.49" height="13.56" x="1.92" y="120.99" class="cls-1"/></clipPath><clipPath id="clip-path-18" transform="translate(-1.44 -15.24)"><rect width="172.49" height="13.56" x="1.92" y="135.51" class="cls-1"/></clipPath><clipPath id="clip-path-20" transform="translate(-1.44 -15.24)"><rect width="172.49" height="13.56" x="1.92" y="150.03" class="cls-1"/></clipPath><clipPath id="clip-path-22" transform="translate(-1.44 -15.24)"><rect width="172.49" height="13.56" x="1.92" y="164.55" class="cls-1"/></clipPath><clipPath id="clip-path-24" transform="translate(-1.44 -15.24)"><rect width="172.49" height="13.56" x="1.92" y="179.07" class="cls-1"/></clipPath><clipPath id="clip-path-26" transform="translate(-1.44 -15.24)"><rect width="172.49" height="13.56" x="1.92" y="193.59" class="cls-1"/></clipPath><clipPath id="clip-path-28" transform="translate(-1.44 -15.24)"><rect width="172.49" height="13.56" x="1.92" y="208.11" class="cls-1"/></clipPath><clipPath id="clip-path-30" transform="translate(-1.44 -15.24)"><rect width="172.49" height="13.56" x="1.92" y="222.63" class="cls-1"/></clipPath><clipPath id="clip-path-32" transform="translate(-1.44 -15.24)"><rect width="172.49" height="13.56" x="1.92" y="237.15" class="cls-1"/></clipPath><clipPath id="clip-path-34" transform="translate(-1.44 -15.24)"><rect width="172.49" height="13.56" x="1.92" y="251.67" class="cls-1"/></clipPath><clipPath id="clip-path-36" transform="translate(-1.44 -15.24)"><rect width="172.49" height="13.58" x="1.92" y="266.19" class="cls-1"/></clipPath><clipPath id="clip-path-38" transform="translate(-1.44 -15.24)"><rect width="172.49" height="13.56" x="1.92" y="280.73" class="cls-1"/></clipPath><clipPath id="clip-path-40" transform="translate(-1.44 -15.24)"><rect width="172.49" height="13.56" x="1.92" y="295.25" class="cls-1"/></clipPath><clipPath id="clip-path-42" transform="translate(-1.44 -15.24)"><rect width="172.49" height="14.28" x="1.92" y="309.77" class="cls-1"/></clipPath><clipPath id="clip-path-44" transform="translate(-1.44 -15.24)"><rect width="176.45" height="327.05" class="cls-1"/></clipPath></defs><title>tables2Asset 1</title><g id="Layer_2" data-name="Layer 2"><g id="Layer_1-2" data-name="Layer 1"><g class="cls-2"><rect width="172.61" height="30.6" y="1.44" class="cls-3"/></g><g class="cls-4"><text class="cls-5" transform="translate(5.28 13.2)">Tra<tspan x="14.52" y="0" class="cls-6">n</tspan><tspan x="20.28" y="0">sf</tspan><tspan x="27.97" y="0" class="cls-7">o</tspan><tspan x="33.83" y="0" class="cls-8">r</tspan><tspan x="37.67" y="0" class="cls-9">m</tspan><tspan x="46.53" y="0" class="cls-8" xml:space="preserve"> size </tspan><tspan x="68.22" y="0" class="cls-10">o</tspan><tspan x="74.1" y="0">f</tspan></text></g><g class="cls-4"><text class="cls-5" transform="translate(12.96 27.72)">cu<tspan x="10.47" y="0" class="cls-11">r</tspan><tspan x="14.28" y="0">rent depth</tspan></text></g><g class="cls-12"><text class="cls-5" transform="translate(91.46 13.2)">Tra<tspan x="14.52" y="0" class="cls-6">n</tspan><tspan x="20.28" y="0">sf</tspan><tspan x="27.97" y="0" class="cls-7">o</tspan><tspan x="33.83" y="0" class="cls-8">r</tspan><tspan x="37.67" y="0" class="cls-9">m</tspan><tspan x="46.53" y="0" class="cls-8" xml:space="preserve"> size </tspan><tspan x="68.22" y="0" class="cls-10">o</tspan><tspan x="74.1" y="0">f</tspan></text></g><g class="cls-12"><text class="cls-5" transform="translate(105.86 27.72)"><tspan class="cls-6">n</tspan><tspan x="5.77" y="0">e</tspan><tspan x="11.26" y="0" class="cls-13">x</tspan><tspan x="16.06" y="0">t</tspan><tspan x="19.76" y="0" class="cls-14"> </tspan><tspan x="22.28" y="0" class="cls-6">d</tspan><tspan x="28.05" y="0">epth</tspan></text></g><g class="cls-2"><text class="cls-5" transform="translate(27.48 43.32)">T<tspan x="5.38" y="0" class="cls-7">X</tspan><tspan x="11.14" y="0">_</tspan><tspan x="16.64" y="0" class="cls-15">4</tspan><tspan x="22.29" y="0" class="cls-8">X4</tspan></text></g><g class="cls-2"><text class="cls-5" transform="translate(113.78 43.32)">T<tspan x="5.38" y="0" class="cls-16">X</tspan><tspan x="11.14" y="0">_</tspan><tspan x="16.64" y="0" class="cls-15">4</tspan><tspan x="22.29" y="0" class="cls-8">X4</tspan></text></g><g class="cls-17"><text class="cls-5" transform="translate(27.48 58.2)">T<tspan x="5.38" y="0" class="cls-7">X</tspan><tspan x="11.14" y="0">_</tspan><tspan x="16.64" y="0" class="cls-15">8</tspan><tspan x="22.29" y="0" class="cls-8">X8</tspan></text></g><g class="cls-17"><text class="cls-5" transform="translate(113.78 58.2)">T<tspan x="5.38" y="0" class="cls-16">X</tspan><tspan x="11.14" y="0">_</tspan><tspan x="16.64" y="0" class="cls-15">4</tspan><tspan x="22.29" y="0" class="cls-8">X4</tspan></text></g><g class="cls-18"><text class="cls-5" transform="translate(21.84 72.72)">T<tspan x="5.38" y="0" class="cls-7">X</tspan><tspan x="11.14" y="0">_</tspan><tspan x="16.64" y="0" class="cls-15">1</tspan><tspan x="22.29" y="0" class="cls-16">6</tspan><tspan x="27.92" y="0" class="cls-8">X</tspan><tspan x="33.65" y="0" class="cls-19">1</tspan><tspan x="39.31" y="0" class="cls-8">6</tspan></text></g><g class="cls-18"><text class="cls-5" transform="translate(113.78 72.72)">T<tspan x="5.38" y="0" class="cls-16">X</tspan><tspan x="11.14" y="0">_</tspan><tspan x="16.64" y="0" class="cls-15">8</tspan><tspan x="22.29" y="0" class="cls-8">X8</tspan></text></g><g class="cls-20"><text class="cls-5" transform="translate(21.84 87.24)">T<tspan x="5.38" y="0" class="cls-7">X</tspan><tspan x="11.14" y="0">_</tspan><tspan x="16.64" y="0" class="cls-15">3</tspan><tspan x="22.29" y="0" class="cls-16">2</tspan><tspan x="27.92" y="0" class="cls-8">X</tspan><tspan x="33.65" y="0" class="cls-19">3</tspan><tspan x="39.31" y="0" class="cls-8">2</tspan></text></g><g class="cls-20"><text class="cls-5" transform="translate(108.14 87.24)">T<tspan x="5.38" y="0" class="cls-7">X</tspan><tspan x="11.14" y="0">_</tspan><tspan x="16.64" y="0" class="cls-15">1</tspan><tspan x="22.29" y="0" class="cls-16">6</tspan><tspan x="27.92" y="0" class="cls-8">X</tspan><tspan x="33.65" y="0" class="cls-19">1</tspan><tspan x="39.31" y="0" class="cls-8">6</tspan></text></g><g class="cls-21"><text class="cls-5" transform="translate(21.84 101.79)">T<tspan x="5.38" y="0" class="cls-7">X</tspan><tspan x="11.14" y="0">_</tspan><tspan x="16.64" y="0" class="cls-15">6</tspan><tspan x="22.29" y="0" class="cls-16">4</tspan><tspan x="27.92" y="0" class="cls-8">X</tspan><tspan x="33.65" y="0" class="cls-19">6</tspan><tspan x="39.31" y="0" class="cls-8">4</tspan></text></g><g class="cls-21"><text class="cls-5" transform="translate(108.14 101.79)">T<tspan x="5.38" y="0" class="cls-7">X</tspan><tspan x="11.14" y="0">_</tspan><tspan x="16.64" y="0" class="cls-15">3</tspan><tspan x="22.29" y="0" class="cls-16">2</tspan><tspan x="27.92" y="0" class="cls-8">X</tspan><tspan x="33.65" y="0" class="cls-19">3</tspan><tspan x="39.31" y="0" class="cls-8">2</tspan></text></g><g class="cls-22"><text class="cls-5" transform="translate(27.48 116.31)">T<tspan x="5.38" y="0" class="cls-7">X</tspan><tspan x="11.14" y="0">_</tspan><tspan x="16.64" y="0" class="cls-15">4</tspan><tspan x="22.29" y="0" class="cls-8">X8</tspan></text></g><g class="cls-22"><text class="cls-5" transform="translate(113.78 116.31)">T<tspan x="5.38" y="0" class="cls-16">X</tspan><tspan x="11.14" y="0">_</tspan><tspan x="16.64" y="0" class="cls-15">4</tspan><tspan x="22.29" y="0" class="cls-8">X4</tspan></text></g><g class="cls-23"><text class="cls-5" transform="translate(27.48 130.83)">T<tspan x="5.38" y="0" class="cls-7">X</tspan><tspan x="11.14" y="0">_</tspan><tspan x="16.64" y="0" class="cls-15">8</tspan><tspan x="22.29" y="0" class="cls-8">X4</tspan></text></g><g class="cls-23"><text class="cls-5" transform="translate(113.78 130.83)">T<tspan x="5.38" y="0" class="cls-16">X</tspan><tspan x="11.14" y="0">_</tspan><tspan x="16.64" y="0" class="cls-15">4</tspan><tspan x="22.29" y="0" class="cls-8">X4</tspan></text></g><g class="cls-24"><text class="cls-5" transform="translate(24.72 145.35)">T<tspan x="5.38" y="0" class="cls-7">X</tspan><tspan x="11.14" y="0">_</tspan><tspan x="16.64" y="0" class="cls-15">8</tspan><tspan x="22.29" y="0" class="cls-8">X</tspan><tspan x="28.02" y="0" class="cls-25">1</tspan><tspan x="33.68" y="0">6</tspan></text></g><g class="cls-24"><text class="cls-5" transform="translate(113.78 145.35)">T<tspan x="5.38" y="0" class="cls-16">X</tspan><tspan x="11.14" y="0">_</tspan><tspan x="16.64" y="0" class="cls-15">8</tspan><tspan x="22.29" y="0" class="cls-8">X8</tspan></text></g><g class="cls-26"><text class="cls-5" transform="translate(24.72 159.87)">T<tspan x="5.38" y="0" class="cls-7">X</tspan><tspan x="11.14" y="0">_</tspan><tspan x="16.64" y="0" class="cls-15">1</tspan><tspan x="22.29" y="0" class="cls-16">6</tspan><tspan x="27.92" y="0" class="cls-8">X8</tspan></text></g><g class="cls-26"><text class="cls-5" transform="translate(113.78 159.87)">T<tspan x="5.38" y="0" class="cls-16">X</tspan><tspan x="11.14" y="0">_</tspan><tspan x="16.64" y="0" class="cls-15">8</tspan><tspan x="22.29" y="0" class="cls-8">X8</tspan></text></g><g class="cls-27"><text class="cls-5" transform="translate(21.84 174.39)">T<tspan x="5.38" y="0" class="cls-7">X</tspan><tspan x="11.14" y="0">_</tspan><tspan x="16.64" y="0" class="cls-15">1</tspan><tspan x="22.29" y="0" class="cls-16">6</tspan><tspan x="27.92" y="0" class="cls-8">X</tspan><tspan x="33.65" y="0" class="cls-19">3</tspan><tspan x="39.31" y="0" class="cls-8">2</tspan></text></g><g class="cls-27"><text class="cls-5" transform="translate(108.14 174.39)">T<tspan x="5.38" y="0" class="cls-7">X</tspan><tspan x="11.14" y="0">_</tspan><tspan x="16.64" y="0" class="cls-15">1</tspan><tspan x="22.29" y="0" class="cls-16">6</tspan><tspan x="27.92" y="0" class="cls-8">X</tspan><tspan x="33.65" y="0" class="cls-19">1</tspan><tspan x="39.31" y="0" class="cls-8">6</tspan></text></g><g class="cls-28"><text class="cls-5" transform="translate(21.84 188.91)">T<tspan x="5.38" y="0" class="cls-7">X</tspan><tspan x="11.14" y="0">_</tspan><tspan x="16.64" y="0" class="cls-15">3</tspan><tspan x="22.29" y="0" class="cls-16">2</tspan><tspan x="27.92" y="0" class="cls-8">X</tspan><tspan x="33.65" y="0" class="cls-19">1</tspan><tspan x="39.31" y="0" class="cls-8">6</tspan></text></g><g class="cls-28"><text class="cls-5" transform="translate(108.14 188.91)">T<tspan x="5.38" y="0" class="cls-7">X</tspan><tspan x="11.14" y="0">_</tspan><tspan x="16.64" y="0" class="cls-15">1</tspan><tspan x="22.29" y="0" class="cls-16">6</tspan><tspan x="27.92" y="0" class="cls-8">X</tspan><tspan x="33.65" y="0" class="cls-19">1</tspan><tspan x="39.31" y="0" class="cls-8">6</tspan></text></g><g class="cls-29"><text class="cls-5" transform="translate(21.84 203.43)">T<tspan x="5.38" y="0" class="cls-7">X</tspan><tspan x="11.14" y="0">_</tspan><tspan x="16.64" y="0" class="cls-15">3</tspan><tspan x="22.29" y="0" class="cls-16">2</tspan><tspan x="27.92" y="0" class="cls-8">X</tspan><tspan x="33.65" y="0" class="cls-19">6</tspan><tspan x="39.31" y="0" class="cls-8">4</tspan></text></g><g class="cls-29"><text class="cls-5" transform="translate(108.14 203.43)">T<tspan x="5.38" y="0" class="cls-7">X</tspan><tspan x="11.14" y="0">_</tspan><tspan x="16.64" y="0" class="cls-15">3</tspan><tspan x="22.29" y="0" class="cls-16">2</tspan><tspan x="27.92" y="0" class="cls-8">X</tspan><tspan x="33.65" y="0" class="cls-19">3</tspan><tspan x="39.31" y="0" class="cls-8">2</tspan></text></g><g class="cls-30"><text class="cls-5" transform="translate(21.84 217.95)">T<tspan x="5.38" y="0" class="cls-7">X</tspan><tspan x="11.14" y="0">_</tspan><tspan x="16.64" y="0" class="cls-15">6</tspan><tspan x="22.29" y="0" class="cls-16">4</tspan><tspan x="27.92" y="0" class="cls-8">X</tspan><tspan x="33.65" y="0" class="cls-19">3</tspan><tspan x="39.31" y="0" class="cls-8">2</tspan></text></g><g class="cls-30"><text class="cls-5" transform="translate(108.14 217.95)">T<tspan x="5.38" y="0" class="cls-7">X</tspan><tspan x="11.14" y="0">_</tspan><tspan x="16.64" y="0" class="cls-15">3</tspan><tspan x="22.29" y="0" class="cls-16">2</tspan><tspan x="27.92" y="0" class="cls-8">X</tspan><tspan x="33.65" y="0" class="cls-19">3</tspan><tspan x="39.31" y="0" class="cls-8">2</tspan></text></g><g class="cls-31"><text class="cls-5" transform="translate(24.72 232.47)">T<tspan x="5.38" y="0" class="cls-7">X</tspan><tspan x="11.14" y="0">_</tspan><tspan x="16.64" y="0" class="cls-15">4</tspan><tspan x="22.29" y="0" class="cls-8">X</tspan><tspan x="28.02" y="0" class="cls-25">1</tspan><tspan x="33.68" y="0">6</tspan></text></g><g class="cls-31"><text class="cls-5" transform="translate(113.78 232.47)">T<tspan x="5.38" y="0" class="cls-16">X</tspan><tspan x="11.14" y="0">_</tspan><tspan x="16.64" y="0" class="cls-15">4</tspan><tspan x="22.29" y="0" class="cls-8">X8</tspan></text></g><g class="cls-32"><text class="cls-5" transform="translate(24.72 246.99)">T<tspan x="5.38" y="0" class="cls-7">X</tspan><tspan x="11.14" y="0">_</tspan><tspan x="16.64" y="0" class="cls-15">1</tspan><tspan x="22.29" y="0" class="cls-16">6</tspan><tspan x="27.92" y="0" class="cls-8">X4</tspan></text></g><g class="cls-32"><text class="cls-5" transform="translate(113.78 246.99)">T<tspan x="5.38" y="0" class="cls-16">X</tspan><tspan x="11.14" y="0">_</tspan><tspan x="16.64" y="0" class="cls-15">8</tspan><tspan x="22.29" y="0" class="cls-8">X4</tspan></text></g><g class="cls-33"><text class="cls-5" transform="translate(24.72 261.53)">T<tspan x="5.38" y="0" class="cls-7">X</tspan><tspan x="11.14" y="0">_</tspan><tspan x="16.64" y="0" class="cls-15">8</tspan><tspan x="22.29" y="0" class="cls-8">X</tspan><tspan x="28.02" y="0" class="cls-25">3</tspan><tspan x="33.68" y="0">2</tspan></text></g><g class="cls-33"><text class="cls-5" transform="translate(110.9 261.53)">T<tspan x="5.38" y="0" class="cls-7">X</tspan><tspan x="11.14" y="0">_</tspan><tspan x="16.64" y="0" class="cls-15">8</tspan><tspan x="22.29" y="0" class="cls-8">X</tspan><tspan x="28.02" y="0" class="cls-25">1</tspan><tspan x="33.68" y="0">6</tspan></text></g><g class="cls-34"><text class="cls-5" transform="translate(24.72 276.05)">T<tspan x="5.38" y="0" class="cls-7">X</tspan><tspan x="11.14" y="0">_</tspan><tspan x="16.64" y="0" class="cls-15">3</tspan><tspan x="22.29" y="0" class="cls-16">2</tspan><tspan x="27.92" y="0" class="cls-8">X8</tspan></text></g><g class="cls-34"><text class="cls-5" transform="translate(110.9 276.05)">T<tspan x="5.38" y="0" class="cls-7">X</tspan><tspan x="11.14" y="0">_</tspan><tspan x="16.64" y="0" class="cls-15">1</tspan><tspan x="22.29" y="0" class="cls-16">6</tspan><tspan x="27.92" y="0" class="cls-8">X8</tspan></text></g><g class="cls-35"><text class="cls-5" transform="translate(21.84 290.57)">T<tspan x="5.38" y="0" class="cls-7">X</tspan><tspan x="11.14" y="0">_</tspan><tspan x="16.64" y="0" class="cls-15">1</tspan><tspan x="22.29" y="0" class="cls-16">6</tspan><tspan x="27.92" y="0" class="cls-8">X</tspan><tspan x="33.65" y="0" class="cls-19">6</tspan><tspan x="39.31" y="0" class="cls-8">4</tspan></text></g><g class="cls-35"><text class="cls-5" transform="translate(108.14 290.57)">T<tspan x="5.38" y="0" class="cls-7">X</tspan><tspan x="11.14" y="0">_</tspan><tspan x="16.64" y="0" class="cls-15">1</tspan><tspan x="22.29" y="0" class="cls-16">6</tspan><tspan x="27.92" y="0" class="cls-8">X</tspan><tspan x="33.65" y="0" class="cls-19">3</tspan><tspan x="39.31" y="0" class="cls-8">2</tspan></text></g><g class="cls-36"><text class="cls-5" transform="translate(21.84 305.45)">T<tspan x="5.38" y="0" class="cls-7">X</tspan><tspan x="11.14" y="0">_</tspan><tspan x="16.64" y="0" class="cls-15">6</tspan><tspan x="22.29" y="0" class="cls-16">4</tspan><tspan x="27.92" y="0" class="cls-8">X</tspan><tspan x="33.65" y="0" class="cls-19">1</tspan><tspan x="39.31" y="0" class="cls-8">6</tspan></text></g><g class="cls-36"><text class="cls-5" transform="translate(108.14 305.45)">T<tspan x="5.38" y="0" class="cls-7">X</tspan><tspan x="11.14" y="0">_</tspan><tspan x="16.64" y="0" class="cls-15">3</tspan><tspan x="22.29" y="0" class="cls-16">2</tspan><tspan x="27.92" y="0" class="cls-8">X</tspan><tspan x="33.65" y="0" class="cls-19">1</tspan><tspan x="39.31" y="0" class="cls-8">6</tspan></text></g><g class="cls-37"><line x1="87.44" x2="87.44" y1="2.94" y2="30.42" class="cls-38"/><rect width=".96" height="27.6" x="87.38" y="2.88"/><line x1="87.44" x2="87.44" y1="33.42" y2="307.79" class="cls-38"/><rect width=".96" height="274.49" x="87.38" y="33.36"/><rect width="172.61" height="2.88"/><rect width="172.61" height=".96" y="30.48"/><rect width="172.61" height=".96" y="32.4"/><rect width="172.61" height="2.88" y="307.85"/></g></g></g></svg>