<svg xmlns="http://www.w3.org/2000/svg" xmlns:xlink="http://www.w3.org/1999/xlink" viewBox="0 0 347.4 549.8"><defs><style>.cls-1,.cls-60{fill:none}.cls-2{fill:#ddebf7}.cls-3{clip-path:url(#clip-path)}.cls-19,.cls-4{font-size:12px;fill:#333}.cls-4{font-family:Calibri-Bold,Calibri;font-weight:700}.cls-10,.cls-5,.cls-6,.cls-7,.cls-8,.cls-9{letter-spacing:0}.cls-11{letter-spacing:.01em}.cls-12,.cls-13,.cls-14{letter-spacing:0}.cls-15{letter-spacing:.01em}.cls-16,.cls-17{letter-spacing:0}.cls-18{clip-path:url(#clip-path-4)}.cls-19{font-family:Calibri-Italic,Calibri;font-style:italic}.cls-20{clip-path:url(#clip-path-7)}.cls-21,.cls-22{letter-spacing:0}.cls-23{clip-path:url(#clip-path-10)}.cls-24{clip-path:url(#clip-path-12)}.cls-25{clip-path:url(#clip-path-14)}.cls-26{clip-path:url(#clip-path-16)}.cls-27{clip-path:url(#clip-path-18)}.cls-28{clip-path:url(#clip-path-20)}.cls-29{clip-path:url(#clip-path-22)}.cls-30{clip-path:url(#clip-path-24)}.cls-31{clip-path:url(#clip-path-26)}.cls-32{clip-path:url(#clip-path-28)}.cls-33{clip-path:url(#clip-path-30)}.cls-34{clip-path:url(#clip-path-32)}.cls-35{clip-path:url(#clip-path-34)}.cls-36{clip-path:url(#clip-path-36)}.cls-37{clip-path:url(#clip-path-38)}.cls-38{clip-path:url(#clip-path-40)}.cls-39{clip-path:url(#clip-path-42)}.cls-40{clip-path:url(#clip-path-44)}.cls-41{clip-path:url(#clip-path-46)}.cls-42{clip-path:url(#clip-path-48)}.cls-43{clip-path:url(#clip-path-50)}.cls-44{clip-path:url(#clip-path-52)}.cls-45{clip-path:url(#clip-path-54)}.cls-46{clip-path:url(#clip-path-56)}.cls-47{clip-path:url(#clip-path-58)}.cls-48{clip-path:url(#clip-path-60)}.cls-49{clip-path:url(#clip-path-62)}.cls-50{clip-path:url(#clip-path-64)}.cls-51{clip-path:url(#clip-path-66)}.cls-52{clip-path:url(#clip-path-68)}.cls-53{clip-path:url(#clip-path-70)}.cls-54{clip-path:url(#clip-path-72)}.cls-55{letter-spacing:.01em}.cls-56{clip-path:url(#clip-path-73)}.cls-57{clip-path:url(#clip-path-74)}.cls-58{clip-path:url(#clip-path-75)}.cls-59{clip-path:url(#clip-path-76)}.cls-60{stroke:#000;stroke-linecap:square;stroke-linejoin:round;stroke-width:.14px}</style><clipPath id="clip-path" transform="translate(-53.03 -15.71)"><rect width="502.08" height="30.24" x="1.92" y="17.15" class="cls-1"/></clipPath><clipPath id="clip-path-4" transform="translate(-53.03 -15.71)"><rect width="502.08" height="15" x="1.92" y="48.35" class="cls-1"/></clipPath><clipPath id="clip-path-7" transform="translate(-53.03 -15.71)"><rect width="502.08" height="15" x="1.92" y="64.31" class="cls-1"/></clipPath><clipPath id="clip-path-10" transform="translate(-53.03 -15.71)"><rect width="502.08" height="15" x="1.92" y="80.27" class="cls-1"/></clipPath><clipPath id="clip-path-12" transform="translate(-53.03 -15.71)"><rect width="502.08" height="15" x="1.92" y="96.23" class="cls-1"/></clipPath><clipPath id="clip-path-14" transform="translate(-53.03 -15.71)"><rect width="502.08" height="15.02" x="1.92" y="112.2" class="cls-1"/></clipPath><clipPath id="clip-path-16" transform="translate(-53.03 -15.71)"><rect width="502.08" height="15" x="1.92" y="128.18" class="cls-1"/></clipPath><clipPath id="clip-path-18" transform="translate(-53.03 -15.71)"><rect width="502.08" height="15" x="1.92" y="144.14" class="cls-1"/></clipPath><clipPath id="clip-path-20" transform="translate(-53.03 -15.71)"><rect width="502.08" height="15" x="1.92" y="160.1" class="cls-1"/></clipPath><clipPath id="clip-path-22" transform="translate(-53.03 -15.71)"><rect width="502.08" height="15" x="1.92" y="176.06" class="cls-1"/></clipPath><clipPath id="clip-path-24" transform="translate(-53.03 -15.71)"><rect width="502.08" height="15" x="1.92" y="192.02" class="cls-1"/></clipPath><clipPath id="clip-path-26" transform="translate(-53.03 -15.71)"><rect width="502.08" height="15" x="1.92" y="207.98" class="cls-1"/></clipPath><clipPath id="clip-path-28" transform="translate(-53.03 -15.71)"><rect width="502.08" height="17.88" x="1.92" y="223.94" class="cls-1"/></clipPath><clipPath id="clip-path-30" transform="translate(-53.03 -15.71)"><rect width="502.08" height="15.72" x="1.92" y="242.78" class="cls-1"/></clipPath><clipPath id="clip-path-32" transform="translate(-53.03 -15.71)"><rect width="502.08" height="14.3" x="1.92" y="259.46" class="cls-1"/></clipPath><clipPath id="clip-path-34" transform="translate(-53.03 -15.71)"><rect width="502.08" height="14.28" x="1.92" y="274.72" class="cls-1"/></clipPath><clipPath id="clip-path-36" transform="translate(-53.03 -15.71)"><rect width="502.08" height="14.28" x="1.92" y="289.96" class="cls-1"/></clipPath><clipPath id="clip-path-38" transform="translate(-53.03 -15.71)"><rect width="502.08" height="14.28" x="1.92" y="305.2" class="cls-1"/></clipPath><clipPath id="clip-path-40" transform="translate(-53.03 -15.71)"><rect width="502.08" height="14.28" x="1.92" y="320.44" class="cls-1"/></clipPath><clipPath id="clip-path-42" transform="translate(-53.03 -15.71)"><rect width="502.08" height="14.28" x="1.92" y="335.68" class="cls-1"/></clipPath><clipPath id="clip-path-44" transform="translate(-53.03 -15.71)"><rect width="502.08" height="14.28" x="1.92" y="350.92" class="cls-1"/></clipPath><clipPath id="clip-path-46" transform="translate(-53.03 -15.71)"><rect width="502.08" height="14.28" x="1.92" y="366.16" class="cls-1"/></clipPath><clipPath id="clip-path-48" transform="translate(-53.03 -15.71)"><rect width="502.08" height="14.28" x="1.92" y="381.4" class="cls-1"/></clipPath><clipPath id="clip-path-50" transform="translate(-53.03 -15.71)"><rect width="502.08" height="14.28" x="1.92" y="396.64" class="cls-1"/></clipPath><clipPath id="clip-path-52" transform="translate(-53.03 -15.71)"><rect width="502.08" height="14.28" x="1.92" y="411.88" class="cls-1"/></clipPath><clipPath id="clip-path-54" transform="translate(-53.03 -15.71)"><rect width="502.08" height="14.3" x="1.92" y="427.13" class="cls-1"/></clipPath><clipPath id="clip-path-56" transform="translate(-53.03 -15.71)"><rect width="502.08" height="14.28" x="1.92" y="442.39" class="cls-1"/></clipPath><clipPath id="clip-path-58" transform="translate(-53.03 -15.71)"><rect width="502.08" height="14.28" x="1.92" y="457.63" class="cls-1"/></clipPath><clipPath id="clip-path-60" transform="translate(-53.03 -15.71)"><rect width="502.08" height="14.28" x="1.92" y="472.87" class="cls-1"/></clipPath><clipPath id="clip-path-62" transform="translate(-53.03 -15.71)"><rect width="502.08" height="14.28" x="1.92" y="488.11" class="cls-1"/></clipPath><clipPath id="clip-path-64" transform="translate(-53.03 -15.71)"><rect width="502.08" height="14.28" x="1.92" y="503.35" class="cls-1"/></clipPath><clipPath id="clip-path-66" transform="translate(-53.03 -15.71)"><rect width="502.08" height="14.28" x="1.92" y="518.59" class="cls-1"/></clipPath><clipPath id="clip-path-68" transform="translate(-53.03 -15.71)"><rect width="502.08" height="14.28" x="1.92" y="533.83" class="cls-1"/></clipPath><clipPath id="clip-path-70" transform="translate(-53.03 -15.71)"><rect width="502.08" height="15" x="1.92" y="549.07" class="cls-1"/></clipPath><clipPath id="clip-path-72" transform="translate(-53.03 -15.71)"><rect width="118.49" height="31.92" x="53.04" y="79.79" class="cls-1"/></clipPath><clipPath id="clip-path-73" transform="translate(-53.03 -15.71)"><rect width="118.49" height="63.86" x="53.04" y="111.72" class="cls-1"/></clipPath><clipPath id="clip-path-74" transform="translate(-53.03 -15.71)"><rect width="118.49" height="144.38" x="53.04" y="175.58" class="cls-1"/></clipPath><clipPath id="clip-path-75" transform="translate(-53.03 -15.71)"><rect width="118.49" height="244.58" x="53.04" y="319.97" class="cls-1"/></clipPath><clipPath id="clip-path-76" transform="translate(-53.03 -15.71)"><rect width="506.04" height="567.07" class="cls-1"/></clipPath></defs><title>tx_setAsset 1</title><g id="Layer_2" data-name="Layer 2"><g id="Layer_1-2" data-name="Layer 1"><rect width="347.38" height="31.32" x=".01" y=".96" class="cls-2"/><g class="cls-3"><text class="cls-4" transform="translate(24.51 20.64)"><tspan class="cls-5">Tr</tspan><tspan x="10.28" y="0" class="cls-6">a</tspan><tspan x="16.17" y="0" class="cls-7">n</tspan><tspan x="22.63" y="0">s</tspan><tspan x="27.42" y="0" class="cls-5">f</tspan><tspan x="31.25" y="0">o</tspan><tspan x="37.7" y="0" class="cls-8">r</tspan><tspan x="42.03" y="0" class="cls-6">m</tspan><tspan x="51.75" y="0" class="cls-7"> </tspan><tspan x="54.49" y="0">set</tspan></text></g><g class="cls-3"><text class="cls-4" transform="translate(127.26 20.64)">V<tspan x="7.1" y="0" class="cls-9">e</tspan><tspan x="13.09" y="0" class="cls-10">r</tspan><tspan x="17.39" y="0" class="cls-11">ti</tspan><tspan x="24.49" y="0">cal</tspan><tspan x="38.38" y="0" class="cls-12"> </tspan><tspan x="41.14" y="0">t</tspan><tspan x="45.3" y="0" class="cls-11">r</tspan><tspan x="49.64" y="0" class="cls-13">a</tspan><tspan x="55.53" y="0" class="cls-7">n</tspan><tspan x="61.99" y="0">s</tspan><tspan x="66.78" y="0" class="cls-5">f</tspan><tspan x="70.61" y="0" class="cls-14">o</tspan><tspan x="77.06" y="0" class="cls-15">r</tspan><tspan x="81.39" y="0">m</tspan></text></g><g class="cls-3"><text class="cls-4" transform="translate(234.8 20.64)">Ho<tspan x="14.02" y="0" class="cls-12">r</tspan><tspan x="18.33" y="0" class="cls-5">i</tspan><tspan x="21.32" y="0">z</tspan><tspan x="26.09" y="0" class="cls-12">o</tspan><tspan x="32.59" y="0" class="cls-16">n</tspan><tspan x="39.05" y="0">tal</tspan><tspan x="52.08" y="0" class="cls-8"> </tspan><tspan x="54.85" y="0">t</tspan><tspan x="59.01" y="0" class="cls-11">r</tspan><tspan x="63.35" y="0" class="cls-13">a</tspan><tspan x="69.24" y="0" class="cls-16">n</tspan><tspan x="75.7" y="0">s</tspan><tspan x="80.49" y="0" class="cls-17">f</tspan><tspan x="84.32" y="0">o</tspan><tspan x="90.77" y="0" class="cls-15">r</tspan><tspan x="95.1" y="0">m</tspan></text></g><g class="cls-18"><text class="cls-19" transform="translate(37.35 44.16)"><tspan class="cls-5">D</tspan><tspan x="7.42" y="0">CT</tspan><tspan x="19.54" y="0" class="cls-13">O</tspan><tspan x="27.35" y="0" class="cls-9">n</tspan><tspan x="33.47" y="0">ly</tspan></text></g><g class="cls-18"><text class="cls-19" transform="translate(162.06 44.16)"><tspan class="cls-5">D</tspan><tspan x="7.42" y="0">CT</tspan></text></g><g class="cls-18"><text class="cls-19" transform="translate(276.44 44.16)"><tspan class="cls-5">D</tspan><tspan x="7.42" y="0">CT</tspan></text></g><g class="cls-20"><text class="cls-19" transform="translate(46.95 60.12)">I<tspan x="3.02" y="0" class="cls-21">D</tspan><tspan x="10.42" y="0">TX</tspan></text></g><g class="cls-20"><text class="cls-19" transform="translate(163.62 60.12)">I<tspan x="3.02" y="0" class="cls-21">D</tspan><tspan x="10.42" y="0">T</tspan></text></g><g class="cls-20"><text class="cls-19" transform="translate(278 60.12)">I<tspan x="3.02" y="0" class="cls-22">D</tspan><tspan x="10.42" y="0">T</tspan></text></g><g class="cls-23"><text class="cls-19" transform="translate(160.62 76.08)"><tspan class="cls-5">D</tspan><tspan x="7.42" y="0">CT</tspan></text></g><g class="cls-23"><text class="cls-19" transform="translate(276.68 76.08)">I<tspan x="3.02" y="0" class="cls-22">D</tspan><tspan x="10.42" y="0">T</tspan></text></g><g class="cls-24"><text class="cls-19" transform="translate(163.62 92.04)">I<tspan x="3.02" y="0" class="cls-21">D</tspan><tspan x="10.42" y="0">T</tspan></text></g><g class="cls-24"><text class="cls-19" transform="translate(276.44 92.04)"><tspan class="cls-5">D</tspan><tspan x="7.42" y="0">CT</tspan></text></g><g class="cls-25"><text class="cls-19" transform="translate(157.62 108.03)">A<tspan x="6.94" y="0" class="cls-12">D</tspan><tspan x="14.37" y="0">ST</tspan></text></g><g class="cls-25"><text class="cls-19" transform="translate(272 108.03)">A<tspan x="6.94" y="0" class="cls-12">D</tspan><tspan x="14.37" y="0">ST</tspan></text></g><g class="cls-26"><text class="cls-19" transform="translate(157.62 123.99)">A<tspan x="6.94" y="0" class="cls-12">D</tspan><tspan x="14.37" y="0">ST</tspan></text></g><g class="cls-26"><text class="cls-19" transform="translate(275 123.99)"><tspan class="cls-5">D</tspan><tspan x="7.42" y="0">CT</tspan></text></g><g class="cls-27"><text class="cls-19" transform="translate(160.62 139.95)"><tspan class="cls-5">D</tspan><tspan x="7.42" y="0">CT</tspan></text></g><g class="cls-27"><text class="cls-19" transform="translate(272 139.95)">A<tspan x="6.94" y="0" class="cls-12">D</tspan><tspan x="14.37" y="0">ST</tspan></text></g><g class="cls-28"><text class="cls-19" transform="translate(162.06 155.91)"><tspan class="cls-5">D</tspan><tspan x="7.42" y="0">CT</tspan></text></g><g class="cls-28"><text class="cls-19" transform="translate(276.44 155.91)"><tspan class="cls-5">D</tspan><tspan x="7.42" y="0">CT</tspan></text></g><g class="cls-29"><text class="cls-19" transform="translate(160.62 171.87)"><tspan class="cls-5">D</tspan><tspan x="7.42" y="0">CT</tspan></text></g><g class="cls-29"><text class="cls-19" transform="translate(275 171.87)"><tspan class="cls-5">D</tspan><tspan x="7.42" y="0">CT</tspan></text></g><g class="cls-30"><text class="cls-19" transform="translate(160.62 187.83)"><tspan class="cls-5">D</tspan><tspan x="7.42" y="0">CT</tspan></text></g><g class="cls-30"><text class="cls-19" transform="translate(272 187.83)">A<tspan x="6.94" y="0" class="cls-12">D</tspan><tspan x="14.37" y="0">ST</tspan></text></g><g class="cls-31"><text class="cls-19" transform="translate(160.62 203.79)"><tspan class="cls-5">D</tspan><tspan x="7.42" y="0">CT</tspan></text></g><g class="cls-31"><text class="cls-19" transform="translate(253.04 203.79)">Fli<tspan x="11.02" y="0" class="cls-13">p</tspan><tspan x="17.16" y="0" class="cls-9">p</tspan><tspan x="23.28" y="0">ed </tspan><tspan x="37.89" y="0" class="cls-16">A</tspan><tspan x="44.86" y="0" class="cls-17">D</tspan><tspan x="52.28" y="0">ST</tspan></text></g><g class="cls-32"><text class="cls-19" transform="translate(158.94 221.19)">A<tspan x="6.94" y="0" class="cls-12">D</tspan><tspan x="14.37" y="0">ST</tspan></text></g><g class="cls-32"><text class="cls-19" transform="translate(276.44 221.19)"><tspan class="cls-5">D</tspan><tspan x="7.42" y="0">CT</tspan></text></g><g class="cls-33"><text class="cls-19" transform="translate(157.62 238.95)">A<tspan x="6.94" y="0" class="cls-12">D</tspan><tspan x="14.37" y="0">ST</tspan></text></g><g class="cls-33"><text class="cls-19" transform="translate(272 238.95)">A<tspan x="6.94" y="0" class="cls-12">D</tspan><tspan x="14.37" y="0">ST</tspan></text></g><g class="cls-34"><text class="cls-19" transform="translate(157.62 255.03)">A<tspan x="6.94" y="0" class="cls-12">D</tspan><tspan x="14.37" y="0">ST</tspan></text></g><g class="cls-34"><text class="cls-19" transform="translate(253.04 255.03)">Fli<tspan x="11.02" y="0" class="cls-13">p</tspan><tspan x="17.16" y="0" class="cls-9">p</tspan><tspan x="23.28" y="0">ed </tspan><tspan x="37.89" y="0" class="cls-16">A</tspan><tspan x="44.86" y="0" class="cls-17">D</tspan><tspan x="52.28" y="0">ST</tspan></text></g><g class="cls-35"><text class="cls-19" transform="translate(138.66 270.29)">Fli<tspan x="11.02" y="0" class="cls-13">p</tspan><tspan x="17.16" y="0" class="cls-9">p</tspan><tspan x="23.28" y="0">ed </tspan><tspan x="37.89" y="0" class="cls-7">A</tspan><tspan x="44.86" y="0" class="cls-5">D</tspan><tspan x="52.28" y="0">ST</tspan></text></g><g class="cls-35"><text class="cls-19" transform="translate(275 270.29)"><tspan class="cls-5">D</tspan><tspan x="7.42" y="0">CT</tspan></text></g><g class="cls-36"><text class="cls-19" transform="translate(138.66 285.53)">Fli<tspan x="11.02" y="0" class="cls-13">p</tspan><tspan x="17.16" y="0" class="cls-9">p</tspan><tspan x="23.28" y="0">ed </tspan><tspan x="37.89" y="0" class="cls-7">A</tspan><tspan x="44.86" y="0" class="cls-5">D</tspan><tspan x="52.28" y="0">ST</tspan></text></g><g class="cls-36"><text class="cls-19" transform="translate(272 285.53)">A<tspan x="6.94" y="0" class="cls-12">D</tspan><tspan x="14.37" y="0">ST</tspan></text></g><g class="cls-37"><text class="cls-19" transform="translate(139.98 300.77)">Fli<tspan x="11.02" y="0" class="cls-13">p</tspan><tspan x="17.16" y="0" class="cls-9">p</tspan><tspan x="23.28" y="0">ed </tspan><tspan x="37.89" y="0" class="cls-7">A</tspan><tspan x="44.86" y="0" class="cls-5">D</tspan><tspan x="52.28" y="0">ST</tspan></text></g><g class="cls-37"><text class="cls-19" transform="translate(253.04 300.77)">Fli<tspan x="11.02" y="0" class="cls-13">p</tspan><tspan x="17.16" y="0" class="cls-9">p</tspan><tspan x="23.28" y="0">ed </tspan><tspan x="37.89" y="0" class="cls-16">A</tspan><tspan x="44.86" y="0" class="cls-17">D</tspan><tspan x="52.28" y="0">ST</tspan></text></g><g class="cls-38"><text class="cls-19" transform="translate(160.62 316.01)"><tspan class="cls-5">D</tspan><tspan x="7.42" y="0">CT</tspan></text></g><g class="cls-38"><text class="cls-19" transform="translate(275 316.01)"><tspan class="cls-5">D</tspan><tspan x="7.42" y="0">CT</tspan></text></g><g class="cls-39"><text class="cls-19" transform="translate(160.62 331.25)"><tspan class="cls-5">D</tspan><tspan x="7.42" y="0">CT</tspan></text></g><g class="cls-39"><text class="cls-19" transform="translate(272 331.25)">A<tspan x="6.94" y="0" class="cls-12">D</tspan><tspan x="14.37" y="0">ST</tspan></text></g><g class="cls-40"><text class="cls-19" transform="translate(160.62 346.49)"><tspan class="cls-5">D</tspan><tspan x="7.42" y="0">CT</tspan></text></g><g class="cls-40"><text class="cls-19" transform="translate(253.04 346.49)">Fli<tspan x="11.02" y="0" class="cls-13">p</tspan><tspan x="17.16" y="0" class="cls-9">p</tspan><tspan x="23.28" y="0">ed </tspan><tspan x="37.89" y="0" class="cls-16">A</tspan><tspan x="44.86" y="0" class="cls-17">D</tspan><tspan x="52.28" y="0">ST</tspan></text></g><g class="cls-41"><text class="cls-19" transform="translate(160.62 361.73)"><tspan class="cls-5">D</tspan><tspan x="7.42" y="0">CT</tspan></text></g><g class="cls-41"><text class="cls-19" transform="translate(276.68 361.73)">I<tspan x="3.02" y="0" class="cls-22">D</tspan><tspan x="10.42" y="0">T</tspan></text></g><g class="cls-42"><text class="cls-19" transform="translate(157.62 376.97)">A<tspan x="6.94" y="0" class="cls-12">D</tspan><tspan x="14.37" y="0">ST</tspan></text></g><g class="cls-42"><text class="cls-19" transform="translate(275 376.97)"><tspan class="cls-5">D</tspan><tspan x="7.42" y="0">CT</tspan></text></g><g class="cls-43"><text class="cls-19" transform="translate(157.62 392.21)">A<tspan x="6.94" y="0" class="cls-12">D</tspan><tspan x="14.37" y="0">ST</tspan></text></g><g class="cls-43"><text class="cls-19" transform="translate(272 392.21)">A<tspan x="6.94" y="0" class="cls-12">D</tspan><tspan x="14.37" y="0">ST</tspan></text></g><g class="cls-44"><text class="cls-19" transform="translate(157.62 407.45)">A<tspan x="6.94" y="0" class="cls-12">D</tspan><tspan x="14.37" y="0">ST</tspan></text></g><g class="cls-44"><text class="cls-19" transform="translate(253.04 407.45)">Fli<tspan x="11.02" y="0" class="cls-13">p</tspan><tspan x="17.16" y="0" class="cls-9">p</tspan><tspan x="23.28" y="0">ed </tspan><tspan x="37.89" y="0" class="cls-16">A</tspan><tspan x="44.86" y="0" class="cls-17">D</tspan><tspan x="52.28" y="0">ST</tspan></text></g><g class="cls-45"><text class="cls-19" transform="translate(157.62 422.72)">A<tspan x="6.94" y="0" class="cls-12">D</tspan><tspan x="14.37" y="0">ST</tspan></text></g><g class="cls-45"><text class="cls-19" transform="translate(276.68 422.72)">I<tspan x="3.02" y="0" class="cls-22">D</tspan><tspan x="10.42" y="0">T</tspan></text></g><g class="cls-46"><text class="cls-19" transform="translate(138.66 437.96)">Fli<tspan x="11.02" y="0" class="cls-13">p</tspan><tspan x="17.16" y="0" class="cls-9">p</tspan><tspan x="23.28" y="0">ed </tspan><tspan x="37.89" y="0" class="cls-7">A</tspan><tspan x="44.86" y="0" class="cls-5">D</tspan><tspan x="52.28" y="0">ST</tspan></text></g><g class="cls-46"><text class="cls-19" transform="translate(275 437.96)"><tspan class="cls-5">D</tspan><tspan x="7.42" y="0">CT</tspan></text></g><g class="cls-47"><text class="cls-19" transform="translate(138.66 453.2)">Fli<tspan x="11.02" y="0" class="cls-13">p</tspan><tspan x="17.16" y="0" class="cls-9">p</tspan><tspan x="23.28" y="0">ed </tspan><tspan x="37.89" y="0" class="cls-7">A</tspan><tspan x="44.86" y="0" class="cls-5">D</tspan><tspan x="52.28" y="0">ST</tspan></text></g><g class="cls-47"><text class="cls-19" transform="translate(272 453.2)">A<tspan x="6.94" y="0" class="cls-12">D</tspan><tspan x="14.37" y="0">ST</tspan></text></g><g class="cls-48"><text class="cls-19" transform="translate(138.66 468.44)">Fli<tspan x="11.02" y="0" class="cls-13">p</tspan><tspan x="17.16" y="0" class="cls-9">p</tspan><tspan x="23.28" y="0">ed </tspan><tspan x="37.89" y="0" class="cls-7">A</tspan><tspan x="44.86" y="0" class="cls-5">D</tspan><tspan x="52.28" y="0">ST</tspan></text></g><g class="cls-48"><text class="cls-19" transform="translate(253.04 468.44)">Fli<tspan x="11.02" y="0" class="cls-13">p</tspan><tspan x="17.16" y="0" class="cls-9">p</tspan><tspan x="23.28" y="0">ed </tspan><tspan x="37.89" y="0" class="cls-16">A</tspan><tspan x="44.86" y="0" class="cls-17">D</tspan><tspan x="52.28" y="0">ST</tspan></text></g><g class="cls-49"><text class="cls-19" transform="translate(138.66 483.68)">Fli<tspan x="11.02" y="0" class="cls-13">p</tspan><tspan x="17.16" y="0" class="cls-9">p</tspan><tspan x="23.28" y="0">ed </tspan><tspan x="37.89" y="0" class="cls-7">A</tspan><tspan x="44.86" y="0" class="cls-5">D</tspan><tspan x="52.28" y="0">ST</tspan></text></g><g class="cls-49"><text class="cls-19" transform="translate(276.68 483.68)">I<tspan x="3.02" y="0" class="cls-22">D</tspan><tspan x="10.42" y="0">T</tspan></text></g><g class="cls-50"><text class="cls-19" transform="translate(162.3 498.92)">I<tspan x="3.02" y="0" class="cls-21">D</tspan><tspan x="10.42" y="0">T</tspan></text></g><g class="cls-50"><text class="cls-19" transform="translate(275 498.92)"><tspan class="cls-5">D</tspan><tspan x="7.42" y="0">CT</tspan></text></g><g class="cls-51"><text class="cls-19" transform="translate(162.3 514.16)">I<tspan x="3.02" y="0" class="cls-21">D</tspan><tspan x="10.42" y="0">T</tspan></text></g><g class="cls-51"><text class="cls-19" transform="translate(272 514.16)">A<tspan x="6.94" y="0" class="cls-12">D</tspan><tspan x="14.37" y="0">ST</tspan></text></g><g class="cls-52"><text class="cls-19" transform="translate(162.3 529.4)">I<tspan x="3.02" y="0" class="cls-21">D</tspan><tspan x="10.42" y="0">T</tspan></text></g><g class="cls-52"><text class="cls-19" transform="translate(253.04 529.4)">Fli<tspan x="11.02" y="0" class="cls-13">p</tspan><tspan x="17.16" y="0" class="cls-9">p</tspan><tspan x="23.28" y="0">ed </tspan><tspan x="37.89" y="0" class="cls-16">A</tspan><tspan x="44.86" y="0" class="cls-17">D</tspan><tspan x="52.28" y="0">ST</tspan></text></g><g class="cls-53"><text class="cls-19" transform="translate(162.3 544.88)">I<tspan x="3.02" y="0" class="cls-21">D</tspan><tspan x="10.42" y="0">T</tspan></text></g><g class="cls-53"><text class="cls-19" transform="translate(276.68 544.88)">I<tspan x="3.02" y="0" class="cls-22">D</tspan><tspan x="10.42" y="0">T</tspan></text></g><g class="cls-54"><text class="cls-19" transform="translate(41.67 83.64)">1<tspan x="6.08" y="0" class="cls-55">D</tspan><tspan x="13.54" y="0" class="cls-5">D</tspan><tspan x="20.96" y="0">CT</tspan></text></g><g class="cls-56"><text class="cls-19" transform="translate(45.51 131.55)"><tspan class="cls-5">D</tspan><tspan x="7.42" y="0">T</tspan><tspan x="13.27" y="0" class="cls-12">T</tspan><tspan x="19.16" y="0">4</tspan></text></g><g class="cls-57"><text class="cls-19" transform="translate(45.51 235.59)"><tspan class="cls-5">D</tspan><tspan x="7.42" y="0">T</tspan><tspan x="13.27" y="0" class="cls-12">T</tspan><tspan x="19.16" y="0">9</tspan></text></g><g class="cls-58"><text class="cls-19" transform="translate(43.59 430.16)">ALL<tspan x="17.03" y="0" class="cls-5">1</tspan><tspan x="23.15" y="0">6</tspan></text></g><g class="cls-59"><line x1="118.08" x2="118.08" y1="1.98" y2="31.14" class="cls-60"/><rect width=".96" height="29.28" x="118.02" y="1.92"/><line x1="226.82" x2="226.82" y1="1.98" y2="31.14" class="cls-60"/><rect width=".96" height="29.28" x="226.76" y="1.92"/><line x1="118.08" x2="118.08" y1="33.18" y2="547.82" class="cls-60"/><rect width=".96" height="514.75" x="118.02" y="33.13"/><line x1="226.82" x2="226.82" y1="33.18" y2="547.82" class="cls-60"/><rect width=".96" height="514.75" x="226.76" y="33.13"/><rect width="347.38" height="1.92" x=".01"/><rect width="347.38" height="1.92" x=".01" y="31.2"/><line x1=".07" x2="347.33" y1="47.7" y2="47.7" class="cls-60"/><rect width="347.38" height=".96" x=".01" y="47.64"/><line x1=".07" x2="347.33" y1="63.66" y2="63.66" class="cls-60"/><rect width="347.38" height=".96" x=".01" y="63.6"/><line x1=".07" x2="347.33" y1="95.58" y2="95.58" class="cls-60"/><rect width="347.38" height=".96" x=".01" y="95.52"/><line x1=".07" x2="347.33" y1="159.45" y2="159.45" class="cls-60"/><rect width="347.38" height=".96" x=".01" y="159.39"/><line x1=".07" x2="347.33" y1="303.83" y2="303.83" class="cls-60"/><rect width="347.38" height=".96" x=".01" y="303.77"/><rect width="347.38" height="1.92" x=".01" y="547.88"/></g></g></g></svg>